<svg width="25" height="21" viewBox="0 0 25 21" fill="none" xmlns="http://www.w3.org/2000/svg">
<path d="M8.46669 14.374C8.37706 14.374 8.28744 14.3877 8.20194 14.4166C7.71594 14.5811 7.20481 14.6865 6.66669 14.6865C6.12856 14.6865 5.61744 14.5811 5.13106 14.4166C5.04556 14.3877 4.95631 14.374 4.86669 14.374C2.53944 14.374 0.654312 16.3459 0.666687 18.7732C0.671937 19.799 1.48156 20.624 2.46669 20.624H10.8667C11.8518 20.624 12.6614 19.799 12.6667 18.7732C12.6791 16.3459 10.7939 14.374 8.46669 14.374ZM6.66669 13.124C8.65494 13.124 10.2667 11.4451 10.2667 9.37402C10.2667 7.30293 8.65494 5.62402 6.66669 5.62402C4.67844 5.62402 3.06669 7.30293 3.06669 9.37402C3.06669 11.4451 4.67844 13.124 6.66669 13.124ZM22.8667 0.624023H8.46669C7.47406 0.624023 6.66669 1.49316 6.66669 2.56113V4.37402C7.54494 4.37402 8.35794 4.63887 9.06669 5.06934V3.12402H22.2667V14.374H19.8667V11.874H15.0667V14.374H12.2077C12.9239 15.026 13.4497 15.8869 13.6961 16.874H22.8667C23.8593 16.874 24.6667 16.0049 24.6667 14.9369V2.56113C24.6667 1.49316 23.8593 0.624023 22.8667 0.624023Z" fill="black"/>
</svg>
