<?xml version="1.0" encoding="UTF-8"?>
<svg version="1.1" xmlns="http://www.w3.org/2000/svg" width="800" height="600">
<path d="M0 0 C264 0 528 0 800 0 C800 198 800 396 800 600 C536 600 272 600 0 600 C0 402 0 204 0 0 Z " fill="#F0F4F6" transform="translate(0,0)"/>
<path d="M0 0 C2.4375 0.1875 2.4375 0.1875 3.4375 1.1875 C3.47813832 2.85367115 3.480221 4.52138095 3.4375 6.1875 C5.36856346 6.17417633 5.36856346 6.17417633 7.33863831 6.1605835 C19.47722845 6.07945934 31.6157635 6.01951599 43.75456333 5.98025131 C49.99510061 5.95938624 56.23541885 5.93108763 62.47583008 5.88574219 C68.49938545 5.84224695 74.52273028 5.81835477 80.54643059 5.80799103 C82.84332531 5.80060635 85.14020865 5.78618581 87.43701363 5.76457977 C90.65691052 5.73549777 93.87593994 5.73154612 97.09594727 5.73339844 C98.04325714 5.71901733 98.99056702 5.70463623 99.96658325 5.68981934 C107.20314073 5.73479683 111.52047 7.34723394 116.8125 12.5 C118.77246663 15.74148327 118.99169713 18.4593642 119.4375 22.1875 C120.50073486 22.16655273 121.56396973 22.14560547 122.65942383 22.12402344 C126.65326141 22.05091101 130.64704149 22.005445 134.64135742 21.96777344 C136.36086009 21.94781852 138.08029633 21.92064442 139.79956055 21.88574219 C161.89079467 21.44892802 161.89079467 21.44892802 169.62426758 28.05566406 C175.16966512 33.61972795 177.55419555 40.42219033 177.73046875 48.22265625 C177.71090413 49.89869204 177.67569042 51.57461669 177.625 53.25 C177.61146484 54.11560547 177.59792969 54.98121094 177.58398438 55.87304688 C177.5490933 57.97814174 177.49530665 60.08290974 177.4375 62.1875 C182.52153125 62.42507155 186.84035931 62.57517961 190.8203125 59.1171875 C193.01228437 56.673641 193.01228437 56.673641 194.87890625 54.12109375 C197.4375 52.1875 197.4375 52.1875 207.4375 52.1875 C207.4375 71.9875 207.4375 91.7875 207.4375 112.1875 C197.4375 112.1875 197.4375 112.1875 194.87890625 110.25390625 C194.25886719 109.42761719 193.63882813 108.60132813 193 107.75 C189.58562015 103.84610332 187.58316656 102.53792369 182.375 102.125 C180.72916024 102.10468099 179.08167106 102.11066958 177.4375 102.1875 C177.48390625 103.43144531 177.5303125 104.67539062 177.578125 105.95703125 C178.1226695 126.47645817 178.1226695 126.47645817 171.70703125 134.296875 C164.03971551 141.70402234 155.18205308 142.63544201 144.91015625 142.55981445 C143.79188446 142.56346512 142.67361267 142.56711578 141.52145386 142.57087708 C137.84747846 142.5789424 134.17394969 142.56540537 130.5 142.55078125 C127.93367513 142.55026216 125.36734987 142.55078174 122.80102539 142.55229187 C117.43141231 142.55220233 112.06196083 142.54215148 106.69238281 142.52368164 C100.50469225 142.50251815 94.31718739 142.49900578 88.12946796 142.5052436 C82.15097057 142.51095952 76.17255484 142.50515891 70.19406128 142.49407005 C67.66161357 142.49023146 65.12916032 142.48906426 62.59671021 142.4906559 C59.05264809 142.49102835 55.50886394 142.47835574 51.96484375 142.4621582 C50.92665497 142.46463562 49.88846619 142.46711304 48.81881714 142.46966553 C40.14902464 142.40669305 32.36292118 141.85375369 25.4375 136.1875 C19.8410867 130.46093756 17.12217753 124.42684931 17.0531311 116.38337708 C17.06234589 115.70312973 17.07156067 115.02288239 17.08105469 114.32202148 C17.07901031 113.58107239 17.07696594 112.84012329 17.07485962 112.07672119 C17.07187793 109.65375189 17.09025014 107.23148097 17.109375 104.80859375 C17.11243756 103.11043974 17.1143099 101.4122832 17.11505127 99.71412659 C17.11963806 96.16617112 17.13400111 92.61844467 17.15625 89.07055664 C17.18455237 84.5358653 17.19546603 80.00135359 17.1999321 75.4665823 C17.20510136 71.12222997 17.21963125 66.77792213 17.234375 62.43359375 C17.23625572 61.61175535 17.23813644 60.78991695 17.24007416 59.94317436 C17.24699319 57.60325046 17.2606511 55.26346339 17.27636719 52.92358398 C17.27748505 52.24131241 17.27860291 51.55904083 17.27975464 50.85609436 C17.31848183 46.47514096 17.80808721 42.5933895 18.4375 38.1875 C13.4875 38.1875 8.5375 38.1875 3.4375 38.1875 C3.4375 39.8375 3.4375 41.4875 3.4375 43.1875 C2.4375 44.1875 2.4375 44.1875 0 44.375 C-2.5625 44.1875 -2.5625 44.1875 -4.5625 42.1875 C-4.76256302 39.19787897 -4.84222923 36.3028765 -4.828125 33.3125 C-4.83003845 32.43223145 -4.8319519 31.55196289 -4.83392334 30.64501953 C-4.83528552 28.78222366 -4.83158682 26.91941831 -4.82324219 25.05664062 C-4.81254307 22.19900264 -4.82313632 19.34199334 -4.8359375 16.484375 C-4.83461591 14.67708194 -4.83205353 12.86978927 -4.828125 11.0625 C-4.83217346 10.20414551 -4.83622192 9.34579102 -4.84039307 8.46142578 C-4.77600262 0.34946361 -4.77600262 0.34946361 0 0 Z " fill="#D1DBEA" transform="translate(298.5625,228.8125)"/>
<path d="M0 0 C2.4375 0.1875 2.4375 0.1875 3.4375 1.1875 C3.47813832 2.85367115 3.480221 4.52138095 3.4375 6.1875 C5.36856346 6.17417633 5.36856346 6.17417633 7.33863831 6.1605835 C19.47722845 6.07945934 31.6157635 6.01951599 43.75456333 5.98025131 C49.99510061 5.95938624 56.23541885 5.93108763 62.47583008 5.88574219 C68.49938545 5.84224695 74.52273028 5.81835477 80.54643059 5.80799103 C82.84332531 5.80060635 85.14020865 5.78618581 87.43701363 5.76457977 C90.65691052 5.73549777 93.87593994 5.73154612 97.09594727 5.73339844 C98.04325714 5.71901733 98.99056702 5.70463623 99.96658325 5.68981934 C107.24444537 5.73505355 111.49928981 7.39996726 116.875 12.5 C118.85240644 15.90113908 118.55103867 18.31356045 118.4375 22.1875 C116.96410912 22.19629936 116.96410912 22.19629936 115.46095276 22.20527649 C106.17771112 22.26263421 96.8947008 22.33546351 87.61169529 22.42321491 C82.83986176 22.46783148 78.0681119 22.5071066 73.29614258 22.53393555 C68.68590541 22.56005573 64.07599172 22.60051914 59.46595573 22.65068626 C57.71225971 22.66729625 55.95850782 22.67884691 54.20474434 22.68511391 C38.8780819 22.32252009 38.8780819 22.32252009 25.5625 29 C25.02882813 29.46019531 24.49515625 29.92039062 23.9453125 30.39453125 C21.892523 32.69395111 21.892523 32.69395111 19.4375 38.1875 C14.1575 38.1875 8.8775 38.1875 3.4375 38.1875 C3.4375 39.8375 3.4375 41.4875 3.4375 43.1875 C2.4375 44.1875 2.4375 44.1875 0 44.375 C-2.5625 44.1875 -2.5625 44.1875 -4.5625 42.1875 C-4.76256302 39.19787897 -4.84222923 36.3028765 -4.828125 33.3125 C-4.83003845 32.43223145 -4.8319519 31.55196289 -4.83392334 30.64501953 C-4.83528552 28.78222366 -4.83158682 26.91941831 -4.82324219 25.05664062 C-4.81254307 22.19900264 -4.82313632 19.34199334 -4.8359375 16.484375 C-4.83461591 14.67708194 -4.83205353 12.86978927 -4.828125 11.0625 C-4.83217346 10.20414551 -4.83622192 9.34579102 -4.84039307 8.46142578 C-4.77600262 0.34946361 -4.77600262 0.34946361 0 0 Z " fill="#C4CEDE" transform="translate(298.5625,228.8125)"/>
<path d="M0 0 C3.25804829 0.97853954 5.92081524 2.21576248 8.88427734 3.88354492 C9.95677734 4.48489258 11.02927734 5.08624023 12.13427734 5.70581055 C13.24029297 6.3380957 14.34630859 6.97038086 15.48583984 7.62182617 C17.13326172 8.54125 17.13326172 8.54125 18.81396484 9.47924805 C35.42231062 18.86873849 35.42231062 18.86873849 37.11083984 23.93432617 C34.49300111 31.78784238 23.16225868 36.01196477 16.30126953 39.85058594 C14.47309785 40.87899397 12.65961943 41.93069222 10.84521484 42.9831543 C9.67156263 43.64413002 8.49711033 44.30368755 7.32177734 44.96166992 C5.74855713 45.85486938 5.74855713 45.85486938 4.14355469 46.76611328 C0.57733481 48.13983427 -1.2694633 48.0893356 -4.88916016 46.93432617 C-7.51109084 43.00143015 -7.21309571 39.59904741 -7.22509766 35.03198242 C-7.23175446 34.15787216 -7.23841125 33.2837619 -7.24526978 32.38316345 C-7.25539304 30.53476058 -7.2600869 28.68632119 -7.25976562 26.83789062 C-7.2641387 24.0106993 -7.30046018 21.18506935 -7.33837891 18.3581543 C-7.34424717 16.56193568 -7.3482165 14.76570964 -7.35009766 12.96948242 C-7.36446869 12.12458755 -7.37883972 11.27969269 -7.39364624 10.40919495 C-7.36447224 6.65961943 -7.26531504 4.53187602 -5.23535156 1.30712891 C-2.88916016 -0.06567383 -2.88916016 -0.06567383 0 0 Z " fill="#FEFEFE" transform="translate(380.88916015625,287.065673828125)"/>
<path d="M0 0 C3.3 0 6.6 0 10 0 C10 13.2 10 26.4 10 40 C6.7 40 3.4 40 0 40 C0 26.8 0 13.6 0 0 Z " fill="#C4CEDE" transform="translate(476,291)"/>
<path d="M0 0 C2.4375 0.1875 2.4375 0.1875 3.4375 1.1875 C3.5386692 4.27831465 3.57718558 7.34632555 3.5703125 10.4375 C3.57126923 11.36594727 3.57222595 12.29439453 3.57321167 13.25097656 C3.57389355 15.21809965 3.57203872 17.18522496 3.56787109 19.15234375 C3.56252295 22.17453026 3.56781582 25.19656815 3.57421875 28.21875 C3.57355797 30.12500033 3.57227681 32.03125057 3.5703125 33.9375 C3.57233673 34.84790039 3.57436096 35.75830078 3.57644653 36.69628906 C3.55244969 43.07255031 3.55244969 43.07255031 2.4375 44.1875 C0 44.375 0 44.375 -2.5625 44.1875 C-5.22320205 41.52679795 -4.81166545 39.53270322 -4.84039307 35.91357422 C-4.8363446 35.05521973 -4.83229614 34.19686523 -4.828125 33.3125 C-4.83003845 32.43223145 -4.8319519 31.55196289 -4.83392334 30.64501953 C-4.83528552 28.78222366 -4.83158682 26.91941831 -4.82324219 25.05664062 C-4.81254307 22.19900264 -4.82313632 19.34199334 -4.8359375 16.484375 C-4.83461591 14.67708194 -4.83205353 12.86978927 -4.828125 11.0625 C-4.83217346 10.20414551 -4.83622192 9.34579102 -4.84039307 8.46142578 C-4.77600262 0.34946361 -4.77600262 0.34946361 0 0 Z " fill="#D1DBEA" transform="translate(298.5625,228.8125)"/>
</svg>
