<?xml version="1.0" standalone="no"?>
<svg version="1.1" id="Layer_1" xmlns="http://www.w3.org/2000/svg" xmlns:xlink="http://www.w3.org/1999/xlink" x="0px" y="0px" width="595.28px" height="595.28px" viewBox="0 0 595.28 595.28" enable-background="new 0 0 595.28 595.28" xml:space="preserve">
<path id="color_x5F_2" fill="#f90815" d="M210.486,391.058c0.891,0.982,1.771,1.976,2.635,2.982h-0.182L210.486,391.058z
	 M219.551,333.975c-0.006-0.044-0.017-0.087-0.023-0.131c-0.287,0.17-0.633,0.37-1.047,0.602c0.361-0.141,0.722-0.287,1.083-0.432
	C219.561,334,219.553,333.989,219.551,333.975z M222.105,330.904l-0.076-0.1c0.005,0.025,0.008,0.051,0.013,0.076
	C222.065,330.887,222.084,330.896,222.105,330.904z M218.092,392.308c0.223-0.146,0.452-0.296,0.692-0.453
	c-0.025-0.028-0.05-0.056-0.075-0.083C218.502,391.949,218.294,392.124,218.092,392.308z M221.316,334.371
	c-3.506,1.425-7.088,2.735-10.73,3.885c-5.673,2.345-13.229,4.662-21.146,4.784c-1.299,0.021-2.606,0.026-3.912,0.022
	c-0.988,0.055-1.978,0.098-2.967,0.117c-16.236,0.316-32.26-2.699-48.453-3.221c-0.34,0.034-0.672,0.068-0.986,0.102
	c-2.746,10.203-5.904,20.283-8.988,30.389c-1.667,5.464-3.33,10.932-4.837,16.442c-0.656,2.399-1.31,4.801-1.906,7.216
	c-0.511,2.069,1.374,2.007,2.799,2.511c6.872,2.433,13.781,4.946,20.934,6.433c0.947,0.197,1.923,0.393,2.919,0.572
	c3.826,0.177,9.763,0.546,13.611,0.241c2.443-0.598,4.726-1.688,6.687-3.503c0.102-0.094,0.255-0.174,0.434-0.24
	c5.882-14.395,3.197-31.711,14.225-43.922c0.716-0.792,3.203-0.666,2.565,0.43c6.469,3.725,10.795,10.008,15.486,15.644
	c1.97,2.366,4.034,4.65,6.128,6.907c0.117,0.054,0.18,0.126,0.195,0.211c4.017,4.321,8.14,8.549,12,13.012
	c9.778-9.037,23.977-11.655,36.086-16.286c0.023-0.009,0.047-0.015,0.071-0.022c0.103-0.056,0.202-0.109,0.298-0.162
	c0.066-0.072,0.144-0.146,0.232-0.217c0.038-0.074,0.107-0.147,0.192-0.221c-8.867-14.738-19.17-28.459-30.68-41.223
	C221.491,334.309,221.405,334.342,221.316,334.371z M221.118,390.318c2.076-1.371,4.337-2.875,6.077-4.064
	c-2.219,1.1-4.34,2.348-6.322,3.795C220.953,390.139,221.038,390.229,221.118,390.318z M172.452,200.055
	c0.253-0.14,0.47-0.342,0.669-0.57c-0.083,0.031-0.158,0.073-0.244,0.101c-0.722,0.228-1.37,0.198-1.944-0.008
	C171.48,199.984,172.06,200.271,172.452,200.055z M158.009,178.148c1.842-3.588,5.01-5.163,8.657-5.828
	c1.457-0.181,3.095-0.324,4.743-0.435c3.954-0.097,8.041,0.272,11.385-0.03c6.669-0.605,12.244-4.671,17.655-8.215
	c0.342-0.225,0.68-0.426,1.015-0.613c0.853,0.013,2.157-0.566,2.235-1c9.587-3.24,15.142,8.893,9.945,17.112
	c-1.922,3.04-5.456,4.191-9.45,4.517c-0.917,0.041-2.111,0.075-3.445,0.103c-4.416-0.062-8.988-0.719-12.356-0.718
	c-0.433-0.687-2.978-0.042-2.839,0.934c0.255,1.806-0.913,4.511-1.313,6.241c-0.856,3.696-1.767,7.38-2.684,11.063
	c-1.811,7.274-7.865,8.568-14.136,5.802C155.819,201.961,152.438,188.996,158.009,178.148z M170.784,202.017
	c3.851,0.732,5.807-2.943,6.542-6.101c0.482-2.067,1.363-7.841-1.479-8.764c-0.136-0.045-0.288-0.059-0.446-0.051
	c-4.108-1.167-8.669,0.466-9.991,4.83C164.2,195.935,166.332,201.17,170.784,202.017z M168,193.089
	c-0.03,0.267-0.05,0.538-0.047,0.819c0.009,0.819,0.154,1.65,0.437,2.43C168.087,195.331,167.952,194.201,168,193.089z
	 M396.858,179.773c-6.703,1.414-13.864,4.58-20.677,3.709c-9.255-1.184-11.68-14.258-5.547-20.017
	c1.215-1.141,2.688-1.557,4.267-1.552c1.399,0.245,3.313,0.816,5.385,1.496c3.758,1.752,10.733,4.796,13.82,4.796
	c0.999,0,2.308-0.2,3.755-0.501c7.818-0.646,16.42-4.927,23.647-1.646c5.938,2.696,9.468,11.647,9.244,17.802
	c-0.21,5.773-3.717,11.162-7.971,14.822c-5.705,4.909-12.428,3.926-15.912-2.719c-1.758-3.352-3.274-6.858-4.868-10.29
	c-0.783-1.689-2.472-4.13-2.591-6.038C399.368,178.947,397.616,179.148,396.858,179.773z M409.483,189.22
	c1.109,3.176,3.284,6.555,7.08,5.827c4.521-0.865,6.086-6.92,4.624-10.631c-1.754-4.452-6.7-5.389-10.639-3.412
	c-0.182,0.035-0.367,0.099-0.551,0.202C407.32,182.717,408.694,186.963,409.483,189.22z M433.939,291.54
	c-0.1,0.037-0.193,0.06-0.29,0.091c0.878-0.09,1.606-0.507,2.185-1.119C435.293,290.91,434.667,291.268,433.939,291.54z
	 M481.871,320.625c-0.18-0.168-0.252-0.385-0.236-0.611c-3.112-8.08-7.41-15.891-8.565-24.535
	c-4.902-0.972-9.761-2.182-14.574-3.512c-6.095-1.684-12.187-3.504-18.128-5.693c-0.911,4.636-5.871,7.463-10.565,6.308
	c-1.378-0.339-2.425-1.073-3.245-2.041c-7.729,3.281-18.086,5.42-25.99,2.969c-0.063,0.083-0.139,0.169-0.232,0.255
	c-0.252,0.233-0.482,0.479-0.697,0.734c2.107,12.469-5.132,24.231-4.785,36.702c0.725-0.091,1.361,0.04,1.128,0.542
	c0.271,0.053,0.573,0.11,0.938,0.179c5.678-0.097,11.252,0.67,16.891,1.576c9.974,1.601,18.799,1.629,28.662-0.847
	c9.916-2.489,19.622-5.709,29.451-8.485c4.662-1.52,8.362-2.743,10.039-3.3C481.932,320.785,481.901,320.705,481.871,320.625z
	 M428.938,335.944c2.18,0.013,4.074-0.104,5.501-0.404c1.028-0.216,2.402-0.562,4.035-1.006c-0.513,0.108-1.022,0.224-1.536,0.326
	C434.242,335.4,431.591,335.762,428.938,335.944z M446.325,221.001c0.059-1.417,0.13-2.747,0.202-3.942
	C446.352,218.371,446.312,219.742,446.325,221.001z M432.048,260.953c0.783-0.159,1.596-0.292,2.364-0.361
	C433.584,260.509,432.794,260.646,432.048,260.953z M400.688,256.791c-0.287-0.063-0.564-0.107-0.836-0.143l0.587,0.392
	L400.688,256.791z M391.939,253.04l0.13,0.182c-0.044-0.28-0.087-0.562-0.13-0.845V253.04z M396.878,255.32l0.562-0.28l0.182,0.121
	c1.203-0.194,2.556-0.174,4.058,0.077c5.129-9.869,22.858-0.832,28.191,5.428c0.029,0.034,0.044,0.069,0.065,0.104
	c1.647-0.902,3.48-1.441,5.384-1.428c4.638,0.034,7.041,3.466,7.696,7.781c0.024,0.159-0.131,0.315-0.378,0.454
	c3.321,1.127,6.826,1.033,10.301,1.221c3.197,0.173,6.392,0.363,9.583,0.592c-7.932-9.515-13.99-21.164-17.185-33.101
	c-0.174-0.074-0.302-0.189-0.347-0.361c-1.153-4.473-1.602-9.248-1.494-13.861c0.072-3.121,0.051-7.174,2.156-9.743
	c-0.176,0.009-0.35,0.021-0.526,0.026c-2.264,0.079-4.948,0.176-7.509-0.166c0.255,3.142,0.363,6.385,0.143,9.536l0.18,1.32
	c0,0-0.151,0.521-0.462,1.394c-1.053,7.576-4.427,14.24-12.895,17.056c-4.779,1.589-11.481,3.142-15.259-1.228
	c-4.256-4.924-3.341-11.876-1.974-17.961c-1.446,0.535-3.099,0.771-4.601,0.902c-2.042,0.178-4.293,0.385-6.519,0.794
	c-0.004,0.013-0.002,0.022-0.007,0.036c-3.549,9.436-2.551,21.979-0.682,31.715C395.963,255.571,396.412,255.436,396.878,255.32z"></path>
<path id="color_x5F_1" d="M202.708,192.191c0,1.258-0.021,2.508-0.25,3.75c-0.211,1.14-3.156,1.584-2.917,0.291
	c0.23-1.241,0.25-2.49,0.25-3.75C199.792,191.359,202.709,190.814,202.708,192.191z M197.827,187.99
	c0.92,0.032,1.754,0.459,2.564,0.863c0.574,0.287,1.31,0.114,1.882-0.104c0.113-0.042,1.366-0.665,0.835-0.93
	c-1.094-0.547-2.189-1.094-3.436-1.137c-0.701-0.024-1.467,0.137-2.049,0.549C197.182,187.545,197.239,187.97,197.827,187.99z
	 M195.881,207.566c0.468,0.286,1.404-0.042,1.856-0.2c0.104-0.037,1.298-0.505,0.882-0.759c-0.93-0.568-2.113-0.574-3.17-0.575
	c-0.688-0.001-1.455,0.202-2.049,0.549c-0.467,0.273-0.395,0.561,0.15,0.561C194.346,207.143,195.181,207.139,195.881,207.566z
	 M177.326,195.916c-0.735,3.157-2.691,6.833-6.542,6.101c-4.452-0.847-6.584-6.082-5.373-10.085c1.321-4.364,5.883-5.997,9.991-4.83
	c0.158-0.008,0.31,0.006,0.446,0.051C178.689,188.075,177.808,193.849,177.326,195.916z M173.121,199.484
	c1.157-1.327,1.478-3.936,1.601-5.397c0.059-0.696,0.432-4.511-0.495-5.021c-0.114-0.002-0.225-0.013-0.325-0.044
	c-3.158-0.969-5.563,1.029-5.902,4.067c-0.03,0.267-0.05,0.538-0.047,0.819c0.009,0.819,0.154,1.65,0.437,2.43
	c0.255,0.705,0.621,1.367,1.127,1.926c0.228,0.251,0.802,0.858,1.416,1.313c0.548,0.407,1.127,0.693,1.519,0.478
	C172.705,199.915,172.922,199.713,173.121,199.484z M387.227,191.088c-0.244-1.178-3.149-0.438-2.898,0.775
	c0.256,1.233,0.526,2.455,1.004,3.623c0.475,1.16,3.342,0.31,2.898-0.775C387.753,193.541,387.481,192.32,387.227,191.088z
	 M387.07,185.537c-1.419,0.338-2.591,1.13-3.718,2.02c-0.434,0.342-0.39,0.703,0.203,0.758c0.655,0.061,1.524-0.136,2.049-0.549
	c0.521-0.411,1.243-1.035,1.753-1.156c0.298-0.07,1.438-0.428,1.306-0.924C388.526,185.177,387.369,185.467,387.07,185.537z
	 M395.555,203.58c-1.421,0.295-3.089,0.641-4.181,1.668c-0.468,0.439,0.417,0.428,0.665,0.402c0.61-0.063,1.478-0.234,1.944-0.674
	c0.076-0.07,0.149-0.144,0.237-0.199c0.041-0.026,0.068-0.045,0.086-0.058c0.02-0.004,0.051-0.013,0.118-0.036
	c-0.207,0.074,0.098-0.018,0.251-0.063c0.078-0.018,0.277-0.063,0.313-0.07c0.488-0.102,1.426-0.268,1.709-0.754
	C396.941,203.376,395.655,203.559,395.555,203.58z M409.483,189.22c-0.789-2.257-2.163-6.503,0.515-8.014
	c0.184-0.104,0.369-0.167,0.551-0.202c3.938-1.977,8.885-1.04,10.639,3.412c1.462,3.711-0.104,9.766-4.624,10.631
	C412.768,195.774,410.593,192.396,409.483,189.22z M418.329,190.613c0.596-1.437,0.756-3.066,0.269-4.564
	c-1.054-3.235-3.868-5.018-7.031-3.334c-0.033,0.086-0.099,0.238-0.117,0.453c-0.035,0.4-0.055,0.805-0.013,1.207
	c0.115,1.118,0.338,2.229,0.686,3.3c0.552,1.698,1.636,4.919,3.641,5.454C416.849,193.419,417.999,191.411,418.329,190.613z
	 M552.821,304.771c0.005,0.25-0.142,0.469-0.364,0.647c0,42.694,0,85.39,0,128.085c0,1.006-2.898,1.502-2.898,0.775
	c0-43.28,0-86.561,0-129.842c0-0.196,0.112-0.372,0.29-0.524c-0.614-8.567-6.171-17.724-15.929-17
	c-10.313,0.766-14.439,10.444-14.48,19.587c0,0.148-0.001,0.296-0.001,0.443c0.003,0.286,0.009,0.571,0.02,0.855
	c0.003,0.064-0.007,0.127-0.023,0.188c-0.048,33.81-0.53,67.617-0.544,101.429c0.287,0.362,0.574,0.726,0.856,1.084
	c6.997,8.871,14.558,17.259,21.702,26.005c0.139,0.169-2.367,1.427-2.898,0.775c-7.145-8.746-14.734-17.115-21.699-26.012
	c-0.482,0.023-0.861-0.078-0.861-0.34c0-0.25,0.002-0.499,0.002-0.749c-6.146-7.948-13.254-16.804-16.29-26.646
	c-4.987,2.814-10.581,5.49-15.263,6.508c-3.055,0.664-6.142,0.938-9.032,0.985c-2.214,0.335-4.437,0.442-6.612,0.191
	c3.738,12.469,12.311,23.162,21.59,32.05c3.754,3.596,7.675,7.032,11.831,10.157c1.273,0.957,2.563,1.899,3.894,2.778
	c0.488-0.1,0.967-0.089,1.236,0.124c0.514,0.405,1.768,1.099,1.719,1.884c-0.03,0.498-0.89,0.794-1.255,0.903
	c-1.898,0.568-4.079-1.52-5.47-2.502c-4.365-3.084-8.518-6.494-12.432-10.133h-0.001c-26.638,0.008-53.274,0.328-79.911,0.348
	c1.787,3.561,3.395,7.202,4.492,11.102c0.285,1.014-2.609,1.801-2.898,0.775c-1.37-4.867-3.423-9.39-5.839-13.823
	c-2.264-4.155-5.619-8.769-6.626-13.442c-1.799-8.353,3.263-14.821,7.262-21.669c-4.153-1.57-9.284-3.327-13.83-4.359
	c-2.513-0.404-5.053-0.717-7.588-0.999c-1.928-0.147-3.701-0.352-5.301-0.58c-2.377-0.266-4.727-0.553-7.018-0.92
	c-3.34,10.934-9.255,22.636-3.706,33.83c4.888,9.861,13.668,16.881,19.886,25.814c0.566,0.814-2.239,1.74-2.709,1.064
	c-3.651-5.245-8.542-9.931-12.817-14.977c-0.27,0.136-0.557,0.225-0.826,0.225c-38.333,0-76.667,0-115,0
	c-0.127,0-0.237-0.009-0.335-0.024c-1.884,3.282-3.725,6.583-5.203,10.027c-0.361,0.842-3.189,1.157-2.879,0.434
	c4.5-10.48,13.58-20.335,14.791-32.001c1.204-11.598-6.059-20.627-11.238-30.277c-0.026,0.011-0.046,0.021-0.074,0.032
	c-8.113,3.103-17.335,5.224-25.344,9.196c-2.219,1.1-4.34,2.348-6.322,3.795c0.08,0.09,0.164,0.18,0.245,0.27
	c5.027,5.601,12.473,11.678,11.508,20.051c-1.144,9.922-5.964,18.955-6.677,29.038c-0.069,0.979-2.983,1.553-2.898,0.359
	c0.271-3.83,1.193-7.489,2.268-11.104c-23.646,0-47.292,0-70.937,0c-3.168,5.189-6.846,10.054-10.533,14.452
	c-0.597,0.713-3.517,0.921-2.697-0.057c9.029-10.77,17.939-24.143,19.278-38.505c-5.394,1.966-11.639,1.733-17.247,0.774
	c-5.245-0.896-10.323-2.334-15.348-3.959c-0.586,14.271-7.394,25.517-13.91,37.945c-0.367,0.698-3.004,0.842-2.849,0.545
	c2.194-4.184,4.42-8.225,6.436-12.291c-13.028,0.007-26.056,0.084-39.084,0.096c0,1.946,0,3.893,0,5.84
	c0,1.006-2.897,1.502-2.897,0.775c0-43.28,0-86.561,0-129.842c0-0.196,0.112-0.372,0.29-0.523
	c-0.614-8.568-6.171-17.725-15.929-17.001c-10.064,0.747-14.239,9.985-14.471,18.93c0,0.513,0,1.024,0,1.536
	c0.003,0.141,0.004,0.28,0.01,0.42c0.001,0.027-0.007,0.052-0.01,0.078c0,41.875,0,83.75,0,125.627c0,1.006-2.897,1.502-2.897,0.775
	c0-42.045,0-84.089,0-126.134c-0.002-0.02-0.009-0.035-0.01-0.056c-0.029-0.758-0.023-1.52,0.01-2.283c0-0.456,0-0.912,0-1.369
	c0-0.126,0.045-0.244,0.125-0.353c0.996-9.57,6.853-18.745,17.57-19.037c11.545-0.313,18.358,8.774,18.576,19.724
	c0.005,0.25-0.142,0.47-0.365,0.648c0,5.49,0,10.981,0,16.473c18.292,0.005,36.585,0.092,54.877,0.099
	c0.346-2.818,0.489-5.652,0.247-8.517c-0.013-0.155,0.019-0.301,0.081-0.436c-1.053,0.412-2.109,0.814-3.174,1.19
	c-3.206,1.134-8.127,3.347-11.584,1.967c-8.707-3.476-6.777-18.036-6.279-25.183c1-14.345,3.721-28.504,7.463-42.376
	c2.314-8.581,5.349-18.974,14.319-22.89c0.805-0.352,1.739-0.629,2.762-0.862c0.184-0.042,0.375-0.081,0.564-0.12
	c7.329-1.512,18.673-1.063,21.091-7.775c0.099-0.274,0.368-0.5,0.704-0.668c1.806-2.668,3.583-5.357,5.409-8.013
	c-5.426-2.606-10.24-7.354-11.932-13.123c-1.936-6.602-0.179-16.863,5.713-21.158c1.051-0.767,2.143-1.369,3.263-1.856
	c-3.23-0.01-7.179-0.677-5.089-4.289c1.869-3.23,6.392-3.885,10.372-4.008c-2.592-2.03-4.665-5.877-1.771-8.137
	c4.892-3.818,10.728,0.338,14.633,3.528c0.098,0.08,0.142,0.167,0.147,0.257c6.885-2.907,15.805-2.894,22.041,1.297
	c3.652-1.66,7.479-2.236,11.095,0.326c6.94,4.917,7.274,16.359-0.181,21.128c-1.636,1.046-3.398,1.729-5.233,2.18
	c0,0.001,0,0.003,0,0.004c-0.086,3.325-1.123,6.544-1,9.88c1.596,0.773,3.898,2.063,3.447,4.129c-0.437,2-2.308,3.492-3.77,4.773
	c-0.044,0.039-0.105,0.076-0.172,0.111c0.001,0.045,0.009,0.087,0.004,0.136c-0.534,5.681-3.183,10.577-8.813,12.546
	c-3.068,1.073-6.155,1.195-9.342,1.631c-1.81,0.246-3.025,2.43-4.034,4.104c2.432,5.919,14.994,2.921,20.085,3.964
	c9.037,1.854,12.195,7.869,14.993,15.976c3.436,9.955,8.757,19.64,10.981,30c4.945-3.497,9.984-6.847,14.677-10.691
	c0.058-0.048,0.131-0.089,0.21-0.128c-0.835-1.21-1.328-2.547-1.194-4.051c0.131-1.486,1.5-2.045,2.977-2.158
	c-5.228-5.837-7.704-15.457-4.042-22.496c2.208-4.246,7.984-4.941,10.74-1.892c1.925-6.394,6.934-11.985,13.31-13.822
	c0.43-0.124,0.779-0.11,1.04-0.019c5.564-1.434,9.825,0.418,14.011,4.743c6.208,6.416,10.162,12.765,12.29,21.591
	c1.827,7.578-1.177,12.501-7.446,16.776c-5.88,4.011-11.519,8.767-18.498,10.637c-0.007,0.002-0.017,0.004-0.023,0.006
	c-0.495,1.038-1.424,1.922-2.95,2.491c-3.01,1.122-5.157,0.129-7.211-1.43c-0.004,0.006-0.006,0.012-0.011,0.018
	c-5.191,6.635-8.521,14.495-13.644,21.221c-3.789,4.974-7.597,11.441-13.25,14.553c-4.036,2.221-10.288,3.508-14.282,0.35
	c-2.288-1.809-3.616-4.443-5.112-6.9c1.133,6.764,4.123,13.117,6.687,19.584c58.24,0.004,116.48,0.307,174.722,0.313
	c1.553-6.896,3.827-13.717,3.776-20.667c-0.874,2.793-1.59,5.686-3.814,7.702c-3.334,3.023-8.55,4.229-12.889,2.857
	c-7.068-2.236-12.797-8.079-18.151-12.991c-5.382-4.937-10.249-10.295-15.935-14.914c-0.134-0.108-0.219-0.222-0.279-0.336
	c-2.195,1.477-4.905,2.112-7.528,1.368c-1.446-0.411-2.409-1.139-3.003-2.048c-0.242,0.024-0.465,0.028-0.629,0.019
	c-4.398-0.271-8.019-1.659-12.013-3.433c-3.66-1.624-7.611-2.771-11.068-4.826c-6.995-4.158-7.554-10.105-6.597-17.694
	c1.342-10.641,7.769-27.592,20.748-26.933c0.256-0.103,0.523-0.159,0.774-0.139c6.259,0.506,12.367,5.042,15.539,10.863
	c2.354-3.611,8.523-4.041,11.411,0.229c4.283,6.335,3.512,16.075-0.499,22.517c1.883-0.557,3.918-0.551,3.919,1.896
	c0.001,1.779-0.581,3.106-1.415,4.528c0.219-0.013,0.417,0.007,0.566,0.077c4.26,2.001,9.015,2.547,13.364,4.407
	c1.582,0.677,3.141,1.395,4.691,2.129c-0.017-10.973,2.74-21.898,3.963-32.742c0.88-7.814,3.623-13.643,10.932-17.069
	c2.92-1.369,6.313-2.2,9.484-2.72c2.814-0.462,7.764,0.16,9.221-2.559c0.036-0.148,0.072-0.299,0.107-0.445
	c0.019-0.076,0.074-0.148,0.154-0.216c0.057-0.204,0.105-0.417,0.13-0.651c0.009-0.079,0.043-0.152,0.089-0.223
	c-1.613-1.869-3.521-4.231-5.688-4.351c-3.222-0.179-6.338,0.367-9.554-0.159c-5.502-0.902-8.657-5.227-10.215-10.24
	c-0.005-0.018-0.004-0.033-0.009-0.05c-1.478,0.054-3.229-0.354-3.736-1.935c-0.717-2.236,0.426-4.677,1.47-6.614
	c-0.013-0.038-0.029-0.072-0.036-0.114c-0.522-3.311-2.208-6.26-2.979-9.505c-2.652-0.01-5.147-0.552-7.289-1.987
	c-6.364-4.265-9.083-15.199-2.028-20.396c2.086-1.536,4.121-2.254,6.139-2.441c-2.112-1.944-4.908-4.84-4.005-7.102
	c0.772-1.935,4.119-2.045,5.792-1.992c6.129,0.192,12.355,2.391,18.177,4.446c4.911-3.758,13.534-4.004,19.037-2.938
	c7.479,1.448,18.05,6.644,16.759,16.015c-0.041,0.305-0.343,0.563-0.734,0.745c6.712,8.991,4.461,22.731-4.786,29.728
	c2.313,2.226,4.591,4.489,6.893,6.727c0.274,0.041,0.506,0.148,0.63,0.351c0.191,0.312,0.399,0.595,0.615,0.865
	c0.033,0.032,0.066,0.064,0.1,0.097c0.029,0.028,0.046,0.059,0.058,0.09c5.257,6.18,17.228,1.242,24.156,2.705
	c10.157,2.143,15.226,10.969,19.521,19.605c6.383,12.832,12.171,26.112,15.883,39.989c1.863,6.964,6.795,20.785-1.153,26.034
	c-3.196,2.11-8.224,1.184-11.727,0.668c-1.173-0.173-2.343-0.368-3.511-0.572c1.373,7.975,5.282,15.273,8.218,22.795
	c10.706,0,21.412,0,32.117,0c0.014-3.639,0.033-7.277,0.037-10.917c0.001-0.673,0.006-1.347,0.007-2.02
	c0-0.493,0.005-0.986,0.005-1.479c0-0.126,0.046-0.244,0.125-0.353c0.996-9.57,6.853-18.745,17.569-19.037
	C545.79,284.734,552.604,293.822,552.821,304.771z M486.141,320.93c-0.03,0.178-0.341,0.443-0.738,0.659
	c0.009,0.026,0.02,0.053,0.028,0.079c0.094,0.27,0.012,0.518-0.167,0.729c8.653,17.174,18.861,33.521,27.167,50.876
	c0.082,0.17-0.031,0.357-0.183,0.512l0.296,0.536c1.202,0,2.405,0,3.607,0c0.126-17.797,0.27-35.595,0.344-53.392
	C506.377,320.93,496.259,320.93,486.141,320.93z M394.852,331.2c0.725-0.091,1.361,0.04,1.128,0.542
	c0.271,0.053,0.573,0.11,0.938,0.179c5.678-0.097,11.252,0.67,16.891,1.576c9.974,1.601,18.799,1.629,28.662-0.847
	c9.916-2.489,19.622-5.709,29.451-8.485c4.662-1.52,8.362-2.743,10.039-3.3c-0.029-0.08-0.06-0.16-0.09-0.24
	c-0.18-0.168-0.252-0.385-0.236-0.611c-3.112-8.08-7.41-15.891-8.565-24.535c-4.902-0.972-9.761-2.182-14.574-3.512
	c-6.095-1.684-12.187-3.504-18.128-5.693c-0.911,4.636-5.871,7.463-10.565,6.308c-1.378-0.339-2.425-1.073-3.245-2.041
	c-7.729,3.281-18.086,5.42-25.99,2.969c-0.063,0.083-0.139,0.169-0.232,0.255c-0.252,0.233-0.482,0.479-0.697,0.734
	C401.744,306.967,394.505,318.729,394.852,331.2z M396.231,223.997c-0.004,0.013-0.002,0.022-0.007,0.036
	c-3.549,9.436-2.551,21.979-0.682,31.715c0.42-0.177,0.869-0.313,1.335-0.428c0.243-0.059,0.487-0.117,0.743-0.159
	c1.203-0.194,2.556-0.174,4.058,0.077c5.129-9.869,22.858-0.832,28.191,5.428c0.029,0.034,0.044,0.069,0.065,0.104
	c1.647-0.902,3.48-1.441,5.384-1.428c4.638,0.034,7.041,3.466,7.696,7.781c0.024,0.159-0.131,0.315-0.378,0.454
	c3.321,1.127,6.826,1.033,10.301,1.221c3.197,0.173,6.392,0.363,9.583,0.592c-7.932-9.515-13.99-21.164-17.185-33.101
	c-0.174-0.074-0.302-0.189-0.347-0.361c-1.153-4.473-1.602-9.248-1.494-13.861c0.072-3.121,0.051-7.174,2.156-9.743
	c-0.176,0.009-0.35,0.021-0.526,0.026c-2.264,0.079-4.948,0.176-7.509-0.166c0.255,3.142,0.363,6.385,0.143,9.536
	c-0.064,0.914-0.158,1.819-0.282,2.714c-1.053,7.576-4.427,14.24-12.895,17.056c-4.779,1.589-11.481,3.142-15.259-1.228
	c-4.256-4.924-3.341-11.876-1.974-17.961c-1.446,0.535-3.099,0.771-4.601,0.902C400.708,223.381,398.457,223.588,396.231,223.997z
	 M392.987,282.682c4.428,13.891,21.964,11.63,32.813,6.813c-2.04-3.404-2.136-8.667-2.586-11.978
	c-0.101-0.74,2.821-1.341,2.898-0.775c0.481,3.542,0.469,7.479,2.071,10.755c0.206,0.421,0.447,0.848,0.718,1.263
	c0.403,0.074,0.625,0.234,0.344,0.487c0.895,1.205,2.084,2.204,3.616,2.386c0.277,0.033,0.536,0.024,0.788-0.002
	c0.878-0.09,1.606-0.507,2.185-1.119c1.227-1.302,1.798-3.443,1.797-4.996c0-0.077,0.032-0.15,0.079-0.22
	c-1.077-0.384-3.23-1.011-4.94-1.868c-0.616,0.092-1.235-0.028-1.445-0.5c-0.083-0.186-0.15-0.385-0.223-0.579
	c-0.409-0.371-0.688-0.771-0.755-1.2c-0.039-0.253,0.063-0.481,0.243-0.678c-0.881-4.731,0.712-10.842,4.758-13.162
	c0.463-0.266,1.206-0.281,1.748-0.132c0.094-0.024,0.184-0.042,0.263-0.048c0.884-0.059,1.754-0.096,2.615-0.049
	c-0.437-2.238-1.346-4.619-3.417-5.784c-0.739-0.416-1.455-0.634-2.145-0.704c-0.828-0.083-1.618,0.054-2.364,0.361
	c-1.327,0.549-2.52,1.62-3.542,2.897c-0.524,0.654-2.964,0.686-2.85,0.543c0.646-0.807,1.396-1.549,2.213-2.214
	c-0.275-0.033-0.517-0.128-0.671-0.309c-4.14-4.858-20.97-14.619-23.51-4.505c-0.283,1.128-3.229,1.536-2.916,0.293
	c0.069-0.278,0.157-0.53,0.24-0.79c-0.108-0.025-0.218-0.056-0.324-0.078c-0.287-0.063-0.564-0.107-0.836-0.143
	C388.628,255.18,390.801,275.826,392.987,282.682z M434.439,335.54c1.028-0.216,2.402-0.562,4.035-1.006
	c-0.513,0.108-1.022,0.224-1.536,0.326c-2.696,0.54-5.348,0.901-8,1.084C431.118,335.957,433.013,335.84,434.439,335.54z
	 M438.455,348.559l-0.016-0.019l-0.038,0.066C438.419,348.591,438.437,348.574,438.455,348.559z M422.21,378.857
	c11.161,0,22.323,0,33.484,0c-4.49-10.143-7.699-21.071-16.744-28.049c-4.691,5.064-7.319,11.799-10.636,17.776
	C426.381,372.069,424.301,375.467,422.21,378.857z M448.547,212.15c-1.182,1.106-1.756,2.938-2.02,4.908
	c-0.176,1.313-0.216,2.684-0.202,3.942c0.012,1.054,0.06,2.029,0.092,2.821c0.152,3.738,0.511,7.484,1.426,11.12
	c0.175,0.106,0.308,0.259,0.365,0.474c3.274,12.301,9.571,24.19,17.895,33.824c0.13,0.15,0.181,0.301,0.181,0.448
	c2.352,0.196,4.703,0.411,7.051,0.678c1.584,0.179-1,1.537-1.809,1.445c-7.182-0.813-14.388-1.24-21.603-1.624
	c-2.587-0.138-5.221-0.064-7.747-0.69c-1.831-0.453-3.433-0.911-5.309-0.9c-3.51,2.37-4.252,8.695-2.979,12.664
	c1.924,1.595,7.594,3.084,8.749,3.494c6.116,2.174,12.333,4.08,18.602,5.761c4.258,1.143,8.56,2.254,12.897,3.14
	c0.709-0.237,1.514-0.177,1.709,0.342c1.631,0.309,3.269,0.581,4.91,0.806c5.927,0.811,11.563,1.504,11.892-6.69
	c0.443-11.06-4.32-23.206-8.218-33.362c-4.152-10.822-8.644-22.804-15.243-32.399c-2.761-4.015-6.351-8.232-11.224-9.654
	C454.763,211.762,451.698,211.934,448.547,212.15z M375.983,161.978c-0.365-0.042-0.726-0.063-1.082-0.063
	c-1.578-0.005-3.052,0.411-4.267,1.552c-6.133,5.759-3.708,18.833,5.547,20.017c6.813,0.871,13.974-2.295,20.677-3.709
	c0.758-0.625,2.51-0.826,2.553-0.137c0.119,1.908,1.808,4.349,2.591,6.038c1.594,3.432,3.11,6.938,4.868,10.29
	c3.484,6.645,10.207,7.628,15.912,2.719c4.254-3.66,7.761-9.049,7.971-14.822c0.224-6.154-3.306-15.105-9.244-17.802
	c-7.228-3.281-15.829,1-23.647,1.646c-1.447,0.301-2.756,0.501-3.755,0.501c-3.087,0-10.063-3.044-13.82-4.796
	c-0.907-0.422-1.624-0.768-2.056-0.979c-0.323-0.092-0.646-0.176-0.969-0.246c-0.488,0.102-0.955,0.095-1.178-0.115
	C376.054,162.042,376.016,162.008,375.983,161.978z M411.86,218.036c0.916,0.883-0.224,1.913-1.265,2.003
	c-1.163,4.804-2.452,10.624-0.751,15.327c2.941,8.128,13.153,8.372,19.084,2.674c6.897-6.626,6.505-17.287,5.704-26.093
	c-0.012-0.126,0.076-0.245,0.225-0.354c-1.994-0.608-3.754-1.646-4.981-3.362c-2.492-2.396-4.937-4.841-7.423-7.245
	c-0.013,0.008-0.025,0.017-0.039,0.024c-4.26,2.422-10.309,4.051-14.574,0.651c-3.45-2.748-4.93-7.097-6.754-10.973
	c-1.22-2.592-3.85-6.342-4.452-9.415c-4.605,0.99-10.44,3.268-15.939,3.951c0.82,3.02,2.333,5.813,2.825,8.928
	c0.011,0.066,0.008,0.129,0.003,0.192c0.067,0.058,0.091,0.13,0.039,0.226c-1.011,1.871-3.503,7.902,0.82,7.576
	c0.051-0.004,0.109-0.003,0.171,0.002c0.572-0.025,1.111,0.18,1.278,0.717c1.189,3.829,3.321,7.594,7.526,8.643
	c3.215,0.803,6.244,0.129,9.468,0.307C407.039,212.047,409.013,215.29,411.86,218.036z M349.531,274.316
	c1.362-2.266,3.572-4.748,4.315-7.306c0.143-0.49,0.903-4.896-0.92-3.876c-0.479,0.268-2.818,0.519-2.498,0.093
	c-0.333-0.062-0.502-0.228-0.29-0.541c2.788-4.112,3.871-10.1,3.363-14.978c-0.271-2.593-0.835-5.108-2.533-7.194
	c-2.547-3.128-7.33-2.194-6.657,2.329c0.032,0.215-0.113,0.415-0.351,0.586c0.834,3.137,0.774,6.437-0.541,9.559
	c-2.516,5.972-7.364,12.514-13.043,15.809c-4.66,2.703-10.304,0.413-14.732-1.535c-1.34-0.589,1.264-1.986,2.268-1.545
	c4.688,2.062,9.794,3.615,13.998-0.666c1.431-1.457,2.872-2.927,4.131-4.537c2.905-3.717,6.129-8.492,5.434-13.484
	c-1.111-7.982-7.325-16.086-15.804-16.771c-0.393-0.031-0.632-0.132-0.761-0.269c-6.783-0.499-12.287,8.83-14.326,14.335
	c-2.043,5.514-3.94,13.299-2.771,19.177c1.178,5.924,6.146,8.659,11.392,10.723c5.126,2.016,10.015,4.691,15.455,5.529
	c0.042-0.158,0.084-0.317,0.126-0.476c0.001-0.002,0.002-0.004,0.003-0.006c-0.283-2.46,0.938-5.37,2.48-7.232
	c0.448-0.541,3.235-0.93,2.629-0.197c-1.437,1.733-2.767,4.418-2.307,6.715c0.075,0.075,0.108,0.172,0.075,0.297
	c-0.002,0.008-0.004,0.016-0.006,0.023c0.225,0.805,0.686,1.551,1.465,2.18C344.094,285.063,347.558,277.596,349.531,274.316z
	 M396.603,294.541c-0.019-0.094-0.032-0.188-0.052-0.281c-0.115-0.552,0.51-1.007,1.209-1.206c0.143-0.155,0.291-0.309,0.445-0.459
	c-4.201-1.967-7.431-5.548-8.719-11.408c-1.66-7.553-1.741-19.374,3.896-24.103c-0.375-0.038-0.667-0.188-0.726-0.49
	c-0.209-1.086-0.405-2.217-0.588-3.372c-0.044-0.28-0.087-0.562-0.13-0.845c-1.339-8.959-1.674-19.538,1.273-27.673
	c-2.482,0.729-4.789,1.835-6.561,3.589c-3.439,3.403-4.813,7.265-5.344,11.973c-1.326,11.766-4.405,23.649-4.087,35.553
	c0.005,0.172-0.106,0.328-0.283,0.465c2.245,1.115,4.468,2.277,6.678,3.478c1.245,0.677-1.41,1.933-2.293,1.453
	c-4.565-2.479-9.185-4.905-13.999-6.874c-4.162-1.701-8.634-2.354-12.733-4.138c-1.873,3.052-3.667,6.151-5.721,9.088
	c-0.287,0.41-0.603,0.8-0.942,1.165c0.233,0.022,0.451,0.094,0.625,0.234c9.325,7.578,16.938,17.228,26.797,24.164
	c4.036,2.84,10.659,6.073,15.168,1.985c1.883-1.707,2.763-3.939,3.52-6.297C394.736,298.363,395.42,296.336,396.603,294.541z
	 M219.242,321.695c1.138,2.985,2.145,6.004,2.787,9.109c0.005,0.025,0.008,0.051,0.013,0.076c0.023,0.006,0.042,0.016,0.063,0.023
	c0.1,0.034,0.187,0.079,0.248,0.146c12.473,13.556,23.551,28.227,33.021,44.03c38.949,0,77.896,0,116.846,0
	c5.504-14.465,12.288-28.356,20.174-41.695c-0.114-0.039-0.21-0.094-0.279-0.169c-0.258-0.04-0.264-0.155-0.125-0.3
	c-0.218-3.682,0.261-7.308,1.001-10.908C335.075,322.003,277.159,321.705,219.242,321.695z M169.454,294.471
	c1.011,4.822,7.65,8.186,9.491,1.827c1.123-3.88,0.38-7.88,0.106-11.823c-0.055-0.783,2.862-1.292,2.897-0.775
	c0.268,3.853,1.33,9.513-0.611,13.324c11.502,2.725,30.27,1.108,31.378-13.734c0.537-7.184-1.575-29.11-13.177-24.081
	c0.139,0.241,0.281,0.477,0.41,0.741c0.5,1.021-2.344,1.908-2.897,0.775c-0.174-0.355-0.358-0.675-0.55-0.972
	c-0.134-0.062-0.2-0.146-0.169-0.254c-3.408-4.872-9.24-1.229-13.324,1.75c-3.135,2.287-6.244,4.73-8.141,8.187
	c-0.075,0.137-0.201,0.255-0.354,0.357c0.833,0.432,1.625,0.958,2.357,1.566c0.342,0.285-2.167,1.43-2.739,0.955
	c-1.863-1.549-5.78-4.037-8.127-2.076c-2.244,1.875-2.708,4.669-2.555,7.461c0.001,0.025-0.009,0.049-0.014,0.072
	c0.933-0.298,1.872-0.569,2.824-0.789c0.515-0.396,1.341-0.68,1.857-0.515c0.095,0.03,0.188,0.075,0.282,0.11
	c0.004-0.001,0.009-0.002,0.014-0.003c0.951-0.132,1.196,0.139,1.057,0.479c4.418,2.323,7.746,8.616,6.739,13.382
	c-0.15,0.713-1.401,1.146-2.22,1.043C172.559,292.714,170.587,293.795,169.454,294.471z M141.554,284.398
	c3.956-1.131,7.93-2.197,11.912-3.244c0.646-0.17,1.286-0.359,1.922-0.563l-13.77,3.683
	C141.597,284.315,141.575,284.357,141.554,284.398z M218.481,334.445c0.361-0.141,0.722-0.287,1.083-0.432
	c-0.003-0.014-0.011-0.024-0.013-0.039c-0.006-0.044-0.017-0.087-0.023-0.131C219.241,334.014,218.895,334.214,218.481,334.445z
	 M246.886,256.574c0.006,0.39,0.061,0.772,0.164,1.148c0.3,0.941,0.691,1.98,1.402,2.699c2.258,2.283,4.926,3.953,7.496,5.847
	c2.167,1.597,4.921,5.19,7.666,5.709c2.623,0.495,2.672-4.514,2.031-5.847c-0.797-1.655-1.846-2.902-3.259-4.045
	c-0.462-0.374,2.1-1.506,2.728-0.998c1.842,1.489,3.431,4.041,3.68,6.436c0.063,0.049,0.119,0.104,0.155,0.176
	c0.146,0.293,0.292,0.586,0.439,0.878c5.806-1.958,11.688-6.505,16.416-10.178c5.215-4.052,7.374-8.302,5.657-14.839
	c-1.633-6.218-3.85-13.072-8.564-17.687c-4.009-3.925-8.168-9.929-14.521-8.206c-0.178,0.217-0.468,0.414-0.893,0.536
	c-7.78,2.241-13.47,12.712-11.414,20.6c1.29,4.951,5.115,8.87,9.13,11.853c1.573,1.169,3.193,2.497,4.935,3.408
	c5.378,2.81,9.08-0.046,12.935-2.78c1.044-0.741,3.471-0.035,1.863,1.105c-4.98,3.532-11.187,7.002-17.065,3.22
	c-5.205-3.348-11.846-7.771-14.036-13.89c-0.771-2.155-1.065-4.419-0.955-6.671c-0.325-0.024-0.559-0.124-0.574-0.324
	c-0.426-5.648-5.825-5.91-7.508-0.727c-0.714,2.201-0.959,4.407-0.563,6.709c0.861,5.003,2.674,10.231,6.376,13.853
	c0.193,0.188,0.053,0.425-0.247,0.64c-0.062,0.402-1.98,1.139-2.547,0.959C246.946,255.884,246.793,255.344,246.886,256.574z
	 M201.33,226.878c4.808,8.609,4.289,20.739,4.311,30.238c0,0.111-0.041,0.217-0.106,0.316c8.39,2.126,10.954,16.571,10.06,25.418
	c-0.457,4.517-2.431,7.937-5.31,10.472l0.078,0.857c0.59-0.01,1.097,0.201,1.093,0.745c-0.001,0.099,0.01,0.194,0.01,0.293
	c2.097,2.095,3.207,4.894,4.964,7.391c5.016,7.124,13.32,4.403,18.177-1.368c4.442-5.277,8.972-10.898,12.505-16.833
	c2.821-4.739,5.261-9.658,8.671-14.017c0.187-0.238,0.469-0.395,0.781-0.483c-0.75-0.638-1.513-1.294-2.331-1.896
	c-2.09-1.54-5.516-3.349-7.82-5.7c-7.373,5.887-15.497,10.679-22.741,16.799c-0.759,0.642-3.641,0.55-2.343-0.547
	c2.056-1.737,4.187-3.362,6.349-4.94c-2.161-11.308-8.143-21.74-11.699-32.617c-1.561-4.775-3.594-9.861-8.413-12.242
	C205.556,227.771,203.464,227.206,201.33,226.878z M195.684,226.477l2.399,0.231c0.014-0.056,0.034-0.108,0.063-0.161
	C197.329,226.502,196.507,226.482,195.684,226.477z M200.747,183.759c1.168,0.017,2.324-0.013,3.445-0.103
	c3.995-0.325,7.528-1.477,9.45-4.517c5.197-8.22-0.358-20.353-9.945-17.112c-0.078,0.434-1.382,1.013-2.235,1
	c-0.334,0.188-0.672,0.389-1.015,0.613c-5.411,3.544-10.986,7.609-17.655,8.215c-3.344,0.303-7.431-0.066-11.385,0.03
	c-1.624,0.039-3.225,0.158-4.743,0.435c-3.647,0.665-6.814,2.24-8.657,5.828c-5.571,10.848-2.189,23.813,9.409,28.932
	c6.271,2.767,12.325,1.473,14.136-5.802c0.917-3.683,1.828-7.366,2.684-11.063c0.4-1.73,1.569-4.436,1.313-6.241
	c-0.139-0.976,2.406-1.62,2.839-0.934C191.759,183.04,196.331,183.697,200.747,183.759z M166.287,170.858
	c0.342-0.065,0.687-0.126,1.032-0.179c-2.665-0.102-5.125-0.205-6.86-0.3c1.318,0.511,3.452,0.368,4.765,0.252
	C165.859,170.576,166.182,170.683,166.287,170.858z M161.537,217.078c-0.453,1.087-1.092,2.016-1.873,2.81
	c0.018,0.019,0.032,0.038,0.035,0.062c0.768,7.274,0.584,18.141,6.729,23.356c4.985,4.232,16.484,5.327,20.148-1.196
	c3.277-5.834,0.814-10.466-1.835-15.932c-0.041-0.084,0.064-0.198,0.248-0.319c-1.356-0.476-2.51-1.271-3.249-2.571
	c-0.643-0.18-1.052-0.691-0.521-1.454c2.047-2.934,3.488-5.973,7.333-6.37c8.026-0.831,14.126-2.724,14.978-11.776
	c0.056-0.593,0.646-0.998,1.283-1.142c1.113-0.954,2.565-2.221,2.716-3.65c0.188-1.785-1.873-2.787-3.198-3.418
	c-0.249-0.118-0.291-0.27-0.208-0.428c-0.046-0.098-0.08-0.205-0.086-0.333c-0.148-3.289,0.851-6.462,0.984-9.731
	c-5.393,0.629-11.224-0.267-16.52-0.358c-0.144,3.132-1.797,7.052-2.454,9.759c-1.001,4.122-1.569,8.563-4.285,11.967
	c-3.235,4.057-9.426,4.633-14.047,3.104c-0.278-0.092-0.554-0.197-0.83-0.301C165.097,211.792,163.337,214.449,161.537,217.078z
	 M146.878,305.038c5.999-3.015,11.938-6.185,17.663-9.699c1.161-0.712,8.333-4.397,8.261-5.864
	c-0.019-0.376,0.241-0.695,0.611-0.928c-0.287-4.113-3.231-8.98-6.841-10.267c-2.551,0.624-4.724,1.853-7.253,2.696
	c-2.368,0.79-4.886,1.279-7.301,1.916c-6.494,1.713-12.963,3.486-19.347,5.578c-1.708,0.561-2.014-0.72-0.34-1.268
	c1.966-0.645,3.94-1.252,5.921-1.844c0.001-0.12,0.035-0.256,0.121-0.412c4.663-8.467,6-19.725,6.569-29.209
	c0.509-8.489,1.346-24.787-8.349-29.009c-0.016-0.007-0.025-0.015-0.04-0.022c-0.33,0.139-0.662,0.271-0.977,0.438
	c-5.134,2.723-8.354,7.756-10.232,13.131c-3.974,11.38-6.502,23.687-8.23,35.601c-0.89,6.141-1.593,12.323-1.797,18.527
	c-0.148,4.513-0.614,9.58,0.82,13.951c2.634,8.031,7.665,6.534,13.893,4.195C135.786,310.388,141.385,307.799,146.878,305.038z
	 M78.427,323.691c0,17.823,0,35.646,0,53.47c13.644-0.007,27.289-0.089,40.933-0.098c3.604-12.113,7.495-24.146,10.79-36.35
	c-0.092-0.128-0.14-0.288-0.112-0.493c0.02-0.146,0.044-0.293,0.064-0.439c0.005-0.034,0.01-0.068,0.015-0.103
	c0.754-5.31,2.138-10.575,2.94-15.89C114.847,323.784,96.637,323.699,78.427,323.691z M125.282,400.531
	c-3.65-1.225-7.282-2.518-10.938-3.752c-0.209-0.07-0.346-0.29-0.292-0.506c1.473-5.962,3.141-11.868,4.878-17.754
	c-13.501,0.004-27.002,0.084-40.504,0.096c0,15.832,0,31.664,0,47.497c13.282-0.007,26.564-0.089,39.845-0.097
	c3.74-7.793,6.572-15.758,6.718-25.088C124.993,400.779,125.105,400.646,125.282,400.531z M195.302,374.537
	c-4.659-5.599-8.989-12.117-15.261-16.045c-4.749,6.118-6.471,13.505-7.781,21.078c0.404-0.272,0.918-0.488,1.307-0.488
	c8.572,0,17.145,0,25.717,0C197.927,377.593,196.591,376.086,195.302,374.537z M218.709,391.771
	c-0.207,0.178-0.415,0.353-0.617,0.536c-0.565,0.513-1.11,1.054-1.643,1.612c-0.054,0.232-0.291,0.453-0.614,0.629
	c-0.001,0.002-0.002,0.003-0.003,0.004c-0.54,0.602-3.401,0.892-2.663,0.068c0.078-0.087,0.164-0.162,0.242-0.248
	c-0.095-0.112-0.193-0.222-0.289-0.333c-0.864-1.007-1.744-2-2.635-2.982c-3.179-3.505-6.49-6.893-9.711-10.356
	c-9.447,0-18.895,0-28.342,0c-0.143,0-0.259-0.011-0.362-0.027c-1.15,6.831-2.078,13.768-4.703,20.017
	c-0.194,0.463-0.881,0.756-1.528,0.813c-0.77,0.629-1.577,1.18-2.417,1.661c-0.566,8.377-3.761,16.486-8.113,23.955
	c23.492,0,46.983,0,70.475,0c1.51-4.901,3.178-9.75,3.766-14.854c1.031-8.94-5.298-14.37-10.767-20.412
	C218.759,391.826,218.734,391.799,218.709,391.771z M251.532,376.094c0.07-0.023,0.141-0.045,0.213-0.062
	c0.024-0.033,0.055-0.066,0.085-0.101c0.066-0.072,0.144-0.146,0.232-0.217c0.038-0.074,0.107-0.147,0.192-0.221
	c-8.867-14.738-19.17-28.459-30.68-41.223c-0.084,0.037-0.17,0.07-0.259,0.1c-3.506,1.425-7.088,2.735-10.73,3.885
	c-5.673,2.345-13.229,4.662-21.146,4.784c-1.299,0.021-2.606,0.026-3.912,0.022c-0.988,0.055-1.978,0.098-2.967,0.117
	c-16.236,0.316-32.26-2.699-48.453-3.221c-0.34,0.034-0.672,0.068-0.986,0.102c-2.746,10.203-5.904,20.283-8.988,30.389
	c-1.667,5.464-3.33,10.932-4.837,16.442c-0.656,2.399-1.31,4.801-1.906,7.216c-0.511,2.069,1.374,2.007,2.799,2.511
	c6.872,2.433,13.781,4.946,20.934,6.433c0.947,0.197,1.923,0.393,2.919,0.572c4.45,0.805,9.283,1.3,13.611,0.241
	c1.194-0.292,2.349-0.704,3.447-1.259c0.033-0.019,0.07-0.034,0.105-0.052c1.111-0.571,2.163-1.293,3.135-2.192
	c0.102-0.094,0.255-0.174,0.434-0.24c5.882-14.395,3.197-31.711,14.225-43.922c0.716-0.792,3.203-0.666,2.565,0.43
	c6.469,3.725,10.795,10.008,15.486,15.644c1.97,2.366,4.034,4.65,6.128,6.907c0.117,0.054,0.18,0.126,0.195,0.211
	c4.017,4.321,8.14,8.549,12,13.012c9.778-9.037,23.977-11.655,36.086-16.286C251.484,376.107,251.508,376.102,251.532,376.094z
	 M370.102,382.236c-0.267-0.062-0.42-0.193-0.343-0.415c0.599-1.716,1.229-3.418,1.863-5.118c-38.623,0-77.246,0-115.869,0
	c5.113,9.307,12.851,18.967,10.977,30.166c-1.226,7.326-4.831,13.715-8.498,20.08c0.098-0.02,0.195-0.033,0.29-0.033
	c37.786,0,75.573,0,113.359,0c-2.635-3.293-4.935-6.775-6.4-10.694C361.072,404.438,366.857,393.482,370.102,382.236z
	 M465.471,390.516c-0.272-0.084-0.545-0.164-0.813-0.262c-2.311-0.362-3.718-0.714-3.718-0.714l-0.816-2.142
	c-1.331-2.113-2.488-4.339-3.555-6.622c-0.205,0.091-0.439,0.149-0.704,0.149c-11.333,0-22.667,0-34,0
	c-0.354,0-0.622-0.068-0.818-0.179c-0.665,1.079-1.326,2.159-1.984,3.241l-3.951,7.737c0.152,0.154,0.007,0.366-0.291,0.57
	l-0.38,0.744c0,0-0.234-0.104-0.646-0.281c-0.556,0.163-1.132,0.211-1.422-0.003c-0.114-0.084-0.233-0.152-0.349-0.234
	c-0.082-0.06-0.168-0.111-0.252-0.17c-0.582-0.408-1.168-0.807-1.77-1.171c-0.434-0.175-0.897-0.359-1.377-0.548
	c-4.824,8.224-9.525,15.068-4.637,24.75c1.645,3.258,3.417,6.431,5.088,9.646c0.155-0.047,0.31-0.075,0.456-0.075
	c26.133-0.008,52.264-0.313,78.396-0.343C478.098,415.133,469.024,403.896,465.471,390.516z M516.008,405.739
	c0.017-10.143,0.066-20.285,0.137-30.427c-0.361,0.098-0.734,0.149-1.09,0.149c-0.9,0-1.8,0-2.7,0
	c-1.405,1.005-5.246,3.689-9.989,6.521C504.813,390.598,510.423,398.542,516.008,405.739z" fill="#000000"></path>
</svg>