<svg width="21" height="21" viewBox="0 0 21 21" fill="none" xmlns="http://www.w3.org/2000/svg">
<path d="M3.00004 0.5C2.2928 0.5 1.61452 0.747898 1.11442 1.18916C0.614325 1.63042 0.333374 2.2289 0.333374 2.85294V16.9706C0.333374 17.5946 0.614325 18.1931 1.11442 18.6344C1.61452 19.0756 2.2928 19.3235 3.00004 19.3235H8.67604C8.33642 18.9606 8.04268 18.5662 7.80004 18.1471H3.00004C2.64642 18.1471 2.30728 18.0231 2.05723 17.8025C1.80718 17.5819 1.66671 17.2826 1.66671 16.9706H7.27604C6.91944 15.8623 6.90467 14.6901 7.23326 13.5751C7.56184 12.4601 8.22187 11.4427 9.14514 10.628C10.0684 9.81337 11.2214 9.231 12.4851 8.94108C13.7488 8.65115 15.0773 8.66418 16.3334 8.97882V2.85294C16.3334 2.2289 16.0524 1.63042 15.5523 1.18916C15.0522 0.747898 14.374 0.5 13.6667 0.5H3.00004ZM4.00004 3.44118H12.6667C12.9319 3.44118 13.1863 3.53414 13.3738 3.69961C13.5613 3.86508 13.6667 4.08951 13.6667 4.32353C13.6667 4.55754 13.5613 4.78197 13.3738 4.94745C13.1863 5.11292 12.9319 5.20588 12.6667 5.20588H4.00004C3.73482 5.20588 3.48047 5.11292 3.29293 4.94745C3.1054 4.78197 3.00004 4.55754 3.00004 4.32353C3.00004 4.08951 3.1054 3.86508 3.29293 3.69961C3.48047 3.53414 3.73482 3.44118 4.00004 3.44118ZM20.3334 15.2059C20.3334 16.61 19.7012 17.9565 18.576 18.9494C17.4508 19.9422 15.9247 20.5 14.3334 20.5C12.7421 20.5 11.216 19.9422 10.0907 18.9494C8.96552 17.9565 8.33337 16.61 8.33337 15.2059C8.33337 13.8018 8.96552 12.4552 10.0907 11.4624C11.216 10.4695 12.7421 9.91177 14.3334 9.91177C15.9247 9.91177 17.4508 10.4695 18.576 11.4624C19.7012 12.4552 20.3334 13.8018 20.3334 15.2059ZM13.6934 12.8929C13.607 12.8403 13.5065 12.8086 13.402 12.801C13.2974 12.7934 13.1924 12.81 13.0974 12.8494C13.02 12.8798 12.9498 12.9229 12.8907 12.9765C12.8286 13.0317 12.7795 13.0973 12.7463 13.1694C12.7132 13.2415 12.6965 13.3187 12.6974 13.3965V17.0141C12.6963 17.0921 12.7129 17.1695 12.7461 17.2418C12.7793 17.3141 12.8284 17.3799 12.8907 17.4353C12.9522 17.4881 13.0229 17.5317 13.1 17.5647C13.2353 17.6194 13.3888 17.6278 13.5307 17.5882C13.5923 17.5707 13.6507 17.5453 13.704 17.5129L16.7654 15.6694C16.8585 15.6152 16.9335 15.5401 16.9827 15.4518C17.0329 15.3627 17.0588 15.2644 17.0581 15.1649C17.0574 15.0654 17.0302 14.9674 16.9787 14.8788C16.9259 14.7921 16.8494 14.7185 16.756 14.6647L13.6934 12.8929Z" fill="#0C243C"/>
<path d="M3.00004 0.5C2.2928 0.5 1.61452 0.747898 1.11442 1.18916C0.614325 1.63042 0.333374 2.2289 0.333374 2.85294V16.9706C0.333374 17.5946 0.614325 18.1931 1.11442 18.6344C1.61452 19.0756 2.2928 19.3235 3.00004 19.3235H8.67604C8.33642 18.9606 8.04268 18.5662 7.80004 18.1471H3.00004C2.64642 18.1471 2.30728 18.0231 2.05723 17.8025C1.80718 17.5819 1.66671 17.2826 1.66671 16.9706H7.27604C6.91944 15.8623 6.90467 14.6901 7.23326 13.5751C7.56184 12.4601 8.22187 11.4427 9.14514 10.628C10.0684 9.81337 11.2214 9.231 12.4851 8.94108C13.7488 8.65115 15.0773 8.66418 16.3334 8.97882V2.85294C16.3334 2.2289 16.0524 1.63042 15.5523 1.18916C15.0522 0.747898 14.374 0.5 13.6667 0.5H3.00004ZM4.00004 3.44118H12.6667C12.9319 3.44118 13.1863 3.53414 13.3738 3.69961C13.5613 3.86508 13.6667 4.08951 13.6667 4.32353C13.6667 4.55754 13.5613 4.78197 13.3738 4.94745C13.1863 5.11292 12.9319 5.20588 12.6667 5.20588H4.00004C3.73482 5.20588 3.48047 5.11292 3.29293 4.94745C3.1054 4.78197 3.00004 4.55754 3.00004 4.32353C3.00004 4.08951 3.1054 3.86508 3.29293 3.69961C3.48047 3.53414 3.73482 3.44118 4.00004 3.44118ZM20.3334 15.2059C20.3334 16.61 19.7012 17.9565 18.576 18.9494C17.4508 19.9422 15.9247 20.5 14.3334 20.5C12.7421 20.5 11.216 19.9422 10.0907 18.9494C8.96552 17.9565 8.33337 16.61 8.33337 15.2059C8.33337 13.8018 8.96552 12.4552 10.0907 11.4624C11.216 10.4695 12.7421 9.91177 14.3334 9.91177C15.9247 9.91177 17.4508 10.4695 18.576 11.4624C19.7012 12.4552 20.3334 13.8018 20.3334 15.2059ZM13.6934 12.8929C13.607 12.8403 13.5065 12.8086 13.402 12.801C13.2974 12.7934 13.1924 12.81 13.0974 12.8494C13.02 12.8798 12.9498 12.9229 12.8907 12.9765C12.8286 13.0317 12.7795 13.0973 12.7463 13.1694C12.7132 13.2415 12.6965 13.3187 12.6974 13.3965V17.0141C12.6963 17.0921 12.7129 17.1695 12.7461 17.2418C12.7793 17.3141 12.8284 17.3799 12.8907 17.4353C12.9522 17.4881 13.0229 17.5317 13.1 17.5647C13.2353 17.6194 13.3888 17.6278 13.5307 17.5882C13.5923 17.5707 13.6507 17.5453 13.704 17.5129L16.7654 15.6694C16.8585 15.6152 16.9335 15.5401 16.9827 15.4518C17.0329 15.3627 17.0588 15.2644 17.0581 15.1649C17.0574 15.0654 17.0302 14.9674 16.9787 14.8788C16.9259 14.7921 16.8494 14.7185 16.756 14.6647L13.6934 12.8929Z" fill="#959595"/>
<path d="M3.00004 0.5C2.2928 0.5 1.61452 0.747898 1.11442 1.18916C0.614325 1.63042 0.333374 2.2289 0.333374 2.85294V16.9706C0.333374 17.5946 0.614325 18.1931 1.11442 18.6344C1.61452 19.0756 2.2928 19.3235 3.00004 19.3235H8.67604C8.33642 18.9606 8.04268 18.5662 7.80004 18.1471H3.00004C2.64642 18.1471 2.30728 18.0231 2.05723 17.8025C1.80718 17.5819 1.66671 17.2826 1.66671 16.9706H7.27604C6.91944 15.8623 6.90467 14.6901 7.23326 13.5751C7.56184 12.4601 8.22187 11.4427 9.14514 10.628C10.0684 9.81337 11.2214 9.231 12.4851 8.94108C13.7488 8.65115 15.0773 8.66418 16.3334 8.97882V2.85294C16.3334 2.2289 16.0524 1.63042 15.5523 1.18916C15.0522 0.747898 14.374 0.5 13.6667 0.5H3.00004ZM4.00004 3.44118H12.6667C12.9319 3.44118 13.1863 3.53414 13.3738 3.69961C13.5613 3.86508 13.6667 4.08951 13.6667 4.32353C13.6667 4.55754 13.5613 4.78197 13.3738 4.94745C13.1863 5.11292 12.9319 5.20588 12.6667 5.20588H4.00004C3.73482 5.20588 3.48047 5.11292 3.29293 4.94745C3.1054 4.78197 3.00004 4.55754 3.00004 4.32353C3.00004 4.08951 3.1054 3.86508 3.29293 3.69961C3.48047 3.53414 3.73482 3.44118 4.00004 3.44118ZM20.3334 15.2059C20.3334 16.61 19.7012 17.9565 18.576 18.9494C17.4508 19.9422 15.9247 20.5 14.3334 20.5C12.7421 20.5 11.216 19.9422 10.0907 18.9494C8.96552 17.9565 8.33337 16.61 8.33337 15.2059C8.33337 13.8018 8.96552 12.4552 10.0907 11.4624C11.216 10.4695 12.7421 9.91177 14.3334 9.91177C15.9247 9.91177 17.4508 10.4695 18.576 11.4624C19.7012 12.4552 20.3334 13.8018 20.3334 15.2059ZM13.6934 12.8929C13.607 12.8403 13.5065 12.8086 13.402 12.801C13.2974 12.7934 13.1924 12.81 13.0974 12.8494C13.02 12.8798 12.9498 12.9229 12.8907 12.9765C12.8286 13.0317 12.7795 13.0973 12.7463 13.1694C12.7132 13.2415 12.6965 13.3187 12.6974 13.3965V17.0141C12.6963 17.0921 12.7129 17.1695 12.7461 17.2418C12.7793 17.3141 12.8284 17.3799 12.8907 17.4353C12.9522 17.4881 13.0229 17.5317 13.1 17.5647C13.2353 17.6194 13.3888 17.6278 13.5307 17.5882C13.5923 17.5707 13.6507 17.5453 13.704 17.5129L16.7654 15.6694C16.8585 15.6152 16.9335 15.5401 16.9827 15.4518C17.0329 15.3627 17.0588 15.2644 17.0581 15.1649C17.0574 15.0654 17.0302 14.9674 16.9787 14.8788C16.9259 14.7921 16.8494 14.7185 16.756 14.6647L13.6934 12.8929Z" fill="#959595"/>
<path d="M3.00004 0.5C2.2928 0.5 1.61452 0.747898 1.11442 1.18916C0.614325 1.63042 0.333374 2.2289 0.333374 2.85294V16.9706C0.333374 17.5946 0.614325 18.1931 1.11442 18.6344C1.61452 19.0756 2.2928 19.3235 3.00004 19.3235H8.67604C8.33642 18.9606 8.04268 18.5662 7.80004 18.1471H3.00004C2.64642 18.1471 2.30728 18.0231 2.05723 17.8025C1.80718 17.5819 1.66671 17.2826 1.66671 16.9706H7.27604C6.91944 15.8623 6.90467 14.6901 7.23326 13.5751C7.56184 12.4601 8.22187 11.4427 9.14514 10.628C10.0684 9.81337 11.2214 9.231 12.4851 8.94108C13.7488 8.65115 15.0773 8.66418 16.3334 8.97882V2.85294C16.3334 2.2289 16.0524 1.63042 15.5523 1.18916C15.0522 0.747898 14.374 0.5 13.6667 0.5H3.00004ZM4.00004 3.44118H12.6667C12.9319 3.44118 13.1863 3.53414 13.3738 3.69961C13.5613 3.86508 13.6667 4.08951 13.6667 4.32353C13.6667 4.55754 13.5613 4.78197 13.3738 4.94745C13.1863 5.11292 12.9319 5.20588 12.6667 5.20588H4.00004C3.73482 5.20588 3.48047 5.11292 3.29293 4.94745C3.1054 4.78197 3.00004 4.55754 3.00004 4.32353C3.00004 4.08951 3.1054 3.86508 3.29293 3.69961C3.48047 3.53414 3.73482 3.44118 4.00004 3.44118ZM20.3334 15.2059C20.3334 16.61 19.7012 17.9565 18.576 18.9494C17.4508 19.9422 15.9247 20.5 14.3334 20.5C12.7421 20.5 11.216 19.9422 10.0907 18.9494C8.96552 17.9565 8.33337 16.61 8.33337 15.2059C8.33337 13.8018 8.96552 12.4552 10.0907 11.4624C11.216 10.4695 12.7421 9.91177 14.3334 9.91177C15.9247 9.91177 17.4508 10.4695 18.576 11.4624C19.7012 12.4552 20.3334 13.8018 20.3334 15.2059ZM13.6934 12.8929C13.607 12.8403 13.5065 12.8086 13.402 12.801C13.2974 12.7934 13.1924 12.81 13.0974 12.8494C13.02 12.8798 12.9498 12.9229 12.8907 12.9765C12.8286 13.0317 12.7795 13.0973 12.7463 13.1694C12.7132 13.2415 12.6965 13.3187 12.6974 13.3965V17.0141C12.6963 17.0921 12.7129 17.1695 12.7461 17.2418C12.7793 17.3141 12.8284 17.3799 12.8907 17.4353C12.9522 17.4881 13.0229 17.5317 13.1 17.5647C13.2353 17.6194 13.3888 17.6278 13.5307 17.5882C13.5923 17.5707 13.6507 17.5453 13.704 17.5129L16.7654 15.6694C16.8585 15.6152 16.9335 15.5401 16.9827 15.4518C17.0329 15.3627 17.0588 15.2644 17.0581 15.1649C17.0574 15.0654 17.0302 14.9674 16.9787 14.8788C16.9259 14.7921 16.8494 14.7185 16.756 14.6647L13.6934 12.8929Z" fill="#959595"/>
<path d="M3.00004 0.5C2.2928 0.5 1.61452 0.747898 1.11442 1.18916C0.614325 1.63042 0.333374 2.2289 0.333374 2.85294V16.9706C0.333374 17.5946 0.614325 18.1931 1.11442 18.6344C1.61452 19.0756 2.2928 19.3235 3.00004 19.3235H8.67604C8.33642 18.9606 8.04268 18.5662 7.80004 18.1471H3.00004C2.64642 18.1471 2.30728 18.0231 2.05723 17.8025C1.80718 17.5819 1.66671 17.2826 1.66671 16.9706H7.27604C6.91944 15.8623 6.90467 14.6901 7.23326 13.5751C7.56184 12.4601 8.22187 11.4427 9.14514 10.628C10.0684 9.81337 11.2214 9.231 12.4851 8.94108C13.7488 8.65115 15.0773 8.66418 16.3334 8.97882V2.85294C16.3334 2.2289 16.0524 1.63042 15.5523 1.18916C15.0522 0.747898 14.374 0.5 13.6667 0.5H3.00004ZM4.00004 3.44118H12.6667C12.9319 3.44118 13.1863 3.53414 13.3738 3.69961C13.5613 3.86508 13.6667 4.08951 13.6667 4.32353C13.6667 4.55754 13.5613 4.78197 13.3738 4.94745C13.1863 5.11292 12.9319 5.20588 12.6667 5.20588H4.00004C3.73482 5.20588 3.48047 5.11292 3.29293 4.94745C3.1054 4.78197 3.00004 4.55754 3.00004 4.32353C3.00004 4.08951 3.1054 3.86508 3.29293 3.69961C3.48047 3.53414 3.73482 3.44118 4.00004 3.44118ZM20.3334 15.2059C20.3334 16.61 19.7012 17.9565 18.576 18.9494C17.4508 19.9422 15.9247 20.5 14.3334 20.5C12.7421 20.5 11.216 19.9422 10.0907 18.9494C8.96552 17.9565 8.33337 16.61 8.33337 15.2059C8.33337 13.8018 8.96552 12.4552 10.0907 11.4624C11.216 10.4695 12.7421 9.91177 14.3334 9.91177C15.9247 9.91177 17.4508 10.4695 18.576 11.4624C19.7012 12.4552 20.3334 13.8018 20.3334 15.2059ZM13.6934 12.8929C13.607 12.8403 13.5065 12.8086 13.402 12.801C13.2974 12.7934 13.1924 12.81 13.0974 12.8494C13.02 12.8798 12.9498 12.9229 12.8907 12.9765C12.8286 13.0317 12.7795 13.0973 12.7463 13.1694C12.7132 13.2415 12.6965 13.3187 12.6974 13.3965V17.0141C12.6963 17.0921 12.7129 17.1695 12.7461 17.2418C12.7793 17.3141 12.8284 17.3799 12.8907 17.4353C12.9522 17.4881 13.0229 17.5317 13.1 17.5647C13.2353 17.6194 13.3888 17.6278 13.5307 17.5882C13.5923 17.5707 13.6507 17.5453 13.704 17.5129L16.7654 15.6694C16.8585 15.6152 16.9335 15.5401 16.9827 15.4518C17.0329 15.3627 17.0588 15.2644 17.0581 15.1649C17.0574 15.0654 17.0302 14.9674 16.9787 14.8788C16.9259 14.7921 16.8494 14.7185 16.756 14.6647L13.6934 12.8929Z" fill="#959595"/>
<path d="M3.00004 0.5C2.2928 0.5 1.61452 0.747898 1.11442 1.18916C0.614325 1.63042 0.333374 2.2289 0.333374 2.85294V16.9706C0.333374 17.5946 0.614325 18.1931 1.11442 18.6344C1.61452 19.0756 2.2928 19.3235 3.00004 19.3235H8.67604C8.33642 18.9606 8.04268 18.5662 7.80004 18.1471H3.00004C2.64642 18.1471 2.30728 18.0231 2.05723 17.8025C1.80718 17.5819 1.66671 17.2826 1.66671 16.9706H7.27604C6.91944 15.8623 6.90467 14.6901 7.23326 13.5751C7.56184 12.4601 8.22187 11.4427 9.14514 10.628C10.0684 9.81337 11.2214 9.231 12.4851 8.94108C13.7488 8.65115 15.0773 8.66418 16.3334 8.97882V2.85294C16.3334 2.2289 16.0524 1.63042 15.5523 1.18916C15.0522 0.747898 14.374 0.5 13.6667 0.5H3.00004ZM4.00004 3.44118H12.6667C12.9319 3.44118 13.1863 3.53414 13.3738 3.69961C13.5613 3.86508 13.6667 4.08951 13.6667 4.32353C13.6667 4.55754 13.5613 4.78197 13.3738 4.94745C13.1863 5.11292 12.9319 5.20588 12.6667 5.20588H4.00004C3.73482 5.20588 3.48047 5.11292 3.29293 4.94745C3.1054 4.78197 3.00004 4.55754 3.00004 4.32353C3.00004 4.08951 3.1054 3.86508 3.29293 3.69961C3.48047 3.53414 3.73482 3.44118 4.00004 3.44118ZM20.3334 15.2059C20.3334 16.61 19.7012 17.9565 18.576 18.9494C17.4508 19.9422 15.9247 20.5 14.3334 20.5C12.7421 20.5 11.216 19.9422 10.0907 18.9494C8.96552 17.9565 8.33337 16.61 8.33337 15.2059C8.33337 13.8018 8.96552 12.4552 10.0907 11.4624C11.216 10.4695 12.7421 9.91177 14.3334 9.91177C15.9247 9.91177 17.4508 10.4695 18.576 11.4624C19.7012 12.4552 20.3334 13.8018 20.3334 15.2059ZM13.6934 12.8929C13.607 12.8403 13.5065 12.8086 13.402 12.801C13.2974 12.7934 13.1924 12.81 13.0974 12.8494C13.02 12.8798 12.9498 12.9229 12.8907 12.9765C12.8286 13.0317 12.7795 13.0973 12.7463 13.1694C12.7132 13.2415 12.6965 13.3187 12.6974 13.3965V17.0141C12.6963 17.0921 12.7129 17.1695 12.7461 17.2418C12.7793 17.3141 12.8284 17.3799 12.8907 17.4353C12.9522 17.4881 13.0229 17.5317 13.1 17.5647C13.2353 17.6194 13.3888 17.6278 13.5307 17.5882C13.5923 17.5707 13.6507 17.5453 13.704 17.5129L16.7654 15.6694C16.8585 15.6152 16.9335 15.5401 16.9827 15.4518C17.0329 15.3627 17.0588 15.2644 17.0581 15.1649C17.0574 15.0654 17.0302 14.9674 16.9787 14.8788C16.9259 14.7921 16.8494 14.7185 16.756 14.6647L13.6934 12.8929Z" fill="#959595"/>
<path d="M3.00004 0.5C2.2928 0.5 1.61452 0.747898 1.11442 1.18916C0.614325 1.63042 0.333374 2.2289 0.333374 2.85294V16.9706C0.333374 17.5946 0.614325 18.1931 1.11442 18.6344C1.61452 19.0756 2.2928 19.3235 3.00004 19.3235H8.67604C8.33642 18.9606 8.04268 18.5662 7.80004 18.1471H3.00004C2.64642 18.1471 2.30728 18.0231 2.05723 17.8025C1.80718 17.5819 1.66671 17.2826 1.66671 16.9706H7.27604C6.91944 15.8623 6.90467 14.6901 7.23326 13.5751C7.56184 12.4601 8.22187 11.4427 9.14514 10.628C10.0684 9.81337 11.2214 9.231 12.4851 8.94108C13.7488 8.65115 15.0773 8.66418 16.3334 8.97882V2.85294C16.3334 2.2289 16.0524 1.63042 15.5523 1.18916C15.0522 0.747898 14.374 0.5 13.6667 0.5H3.00004ZM4.00004 3.44118H12.6667C12.9319 3.44118 13.1863 3.53414 13.3738 3.69961C13.5613 3.86508 13.6667 4.08951 13.6667 4.32353C13.6667 4.55754 13.5613 4.78197 13.3738 4.94745C13.1863 5.11292 12.9319 5.20588 12.6667 5.20588H4.00004C3.73482 5.20588 3.48047 5.11292 3.29293 4.94745C3.1054 4.78197 3.00004 4.55754 3.00004 4.32353C3.00004 4.08951 3.1054 3.86508 3.29293 3.69961C3.48047 3.53414 3.73482 3.44118 4.00004 3.44118ZM20.3334 15.2059C20.3334 16.61 19.7012 17.9565 18.576 18.9494C17.4508 19.9422 15.9247 20.5 14.3334 20.5C12.7421 20.5 11.216 19.9422 10.0907 18.9494C8.96552 17.9565 8.33337 16.61 8.33337 15.2059C8.33337 13.8018 8.96552 12.4552 10.0907 11.4624C11.216 10.4695 12.7421 9.91177 14.3334 9.91177C15.9247 9.91177 17.4508 10.4695 18.576 11.4624C19.7012 12.4552 20.3334 13.8018 20.3334 15.2059ZM13.6934 12.8929C13.607 12.8403 13.5065 12.8086 13.402 12.801C13.2974 12.7934 13.1924 12.81 13.0974 12.8494C13.02 12.8798 12.9498 12.9229 12.8907 12.9765C12.8286 13.0317 12.7795 13.0973 12.7463 13.1694C12.7132 13.2415 12.6965 13.3187 12.6974 13.3965V17.0141C12.6963 17.0921 12.7129 17.1695 12.7461 17.2418C12.7793 17.3141 12.8284 17.3799 12.8907 17.4353C12.9522 17.4881 13.0229 17.5317 13.1 17.5647C13.2353 17.6194 13.3888 17.6278 13.5307 17.5882C13.5923 17.5707 13.6507 17.5453 13.704 17.5129L16.7654 15.6694C16.8585 15.6152 16.9335 15.5401 16.9827 15.4518C17.0329 15.3627 17.0588 15.2644 17.0581 15.1649C17.0574 15.0654 17.0302 14.9674 16.9787 14.8788C16.9259 14.7921 16.8494 14.7185 16.756 14.6647L13.6934 12.8929Z" fill="#959595"/>
<path d="M3.00004 0.5C2.2928 0.5 1.61452 0.747898 1.11442 1.18916C0.614325 1.63042 0.333374 2.2289 0.333374 2.85294V16.9706C0.333374 17.5946 0.614325 18.1931 1.11442 18.6344C1.61452 19.0756 2.2928 19.3235 3.00004 19.3235H8.67604C8.33642 18.9606 8.04268 18.5662 7.80004 18.1471H3.00004C2.64642 18.1471 2.30728 18.0231 2.05723 17.8025C1.80718 17.5819 1.66671 17.2826 1.66671 16.9706H7.27604C6.91944 15.8623 6.90467 14.6901 7.23326 13.5751C7.56184 12.4601 8.22187 11.4427 9.14514 10.628C10.0684 9.81337 11.2214 9.231 12.4851 8.94108C13.7488 8.65115 15.0773 8.66418 16.3334 8.97882V2.85294C16.3334 2.2289 16.0524 1.63042 15.5523 1.18916C15.0522 0.747898 14.374 0.5 13.6667 0.5H3.00004ZM4.00004 3.44118H12.6667C12.9319 3.44118 13.1863 3.53414 13.3738 3.69961C13.5613 3.86508 13.6667 4.08951 13.6667 4.32353C13.6667 4.55754 13.5613 4.78197 13.3738 4.94745C13.1863 5.11292 12.9319 5.20588 12.6667 5.20588H4.00004C3.73482 5.20588 3.48047 5.11292 3.29293 4.94745C3.1054 4.78197 3.00004 4.55754 3.00004 4.32353C3.00004 4.08951 3.1054 3.86508 3.29293 3.69961C3.48047 3.53414 3.73482 3.44118 4.00004 3.44118ZM20.3334 15.2059C20.3334 16.61 19.7012 17.9565 18.576 18.9494C17.4508 19.9422 15.9247 20.5 14.3334 20.5C12.7421 20.5 11.216 19.9422 10.0907 18.9494C8.96552 17.9565 8.33337 16.61 8.33337 15.2059C8.33337 13.8018 8.96552 12.4552 10.0907 11.4624C11.216 10.4695 12.7421 9.91177 14.3334 9.91177C15.9247 9.91177 17.4508 10.4695 18.576 11.4624C19.7012 12.4552 20.3334 13.8018 20.3334 15.2059ZM13.6934 12.8929C13.607 12.8403 13.5065 12.8086 13.402 12.801C13.2974 12.7934 13.1924 12.81 13.0974 12.8494C13.02 12.8798 12.9498 12.9229 12.8907 12.9765C12.8286 13.0317 12.7795 13.0973 12.7463 13.1694C12.7132 13.2415 12.6965 13.3187 12.6974 13.3965V17.0141C12.6963 17.0921 12.7129 17.1695 12.7461 17.2418C12.7793 17.3141 12.8284 17.3799 12.8907 17.4353C12.9522 17.4881 13.0229 17.5317 13.1 17.5647C13.2353 17.6194 13.3888 17.6278 13.5307 17.5882C13.5923 17.5707 13.6507 17.5453 13.704 17.5129L16.7654 15.6694C16.8585 15.6152 16.9335 15.5401 16.9827 15.4518C17.0329 15.3627 17.0588 15.2644 17.0581 15.1649C17.0574 15.0654 17.0302 14.9674 16.9787 14.8788C16.9259 14.7921 16.8494 14.7185 16.756 14.6647L13.6934 12.8929Z" fill="#959595"/>
<path d="M3.00004 0.5C2.2928 0.5 1.61452 0.747898 1.11442 1.18916C0.614325 1.63042 0.333374 2.2289 0.333374 2.85294V16.9706C0.333374 17.5946 0.614325 18.1931 1.11442 18.6344C1.61452 19.0756 2.2928 19.3235 3.00004 19.3235H8.67604C8.33642 18.9606 8.04268 18.5662 7.80004 18.1471H3.00004C2.64642 18.1471 2.30728 18.0231 2.05723 17.8025C1.80718 17.5819 1.66671 17.2826 1.66671 16.9706H7.27604C6.91944 15.8623 6.90467 14.6901 7.23326 13.5751C7.56184 12.4601 8.22187 11.4427 9.14514 10.628C10.0684 9.81337 11.2214 9.231 12.4851 8.94108C13.7488 8.65115 15.0773 8.66418 16.3334 8.97882V2.85294C16.3334 2.2289 16.0524 1.63042 15.5523 1.18916C15.0522 0.747898 14.374 0.5 13.6667 0.5H3.00004ZM4.00004 3.44118H12.6667C12.9319 3.44118 13.1863 3.53414 13.3738 3.69961C13.5613 3.86508 13.6667 4.08951 13.6667 4.32353C13.6667 4.55754 13.5613 4.78197 13.3738 4.94745C13.1863 5.11292 12.9319 5.20588 12.6667 5.20588H4.00004C3.73482 5.20588 3.48047 5.11292 3.29293 4.94745C3.1054 4.78197 3.00004 4.55754 3.00004 4.32353C3.00004 4.08951 3.1054 3.86508 3.29293 3.69961C3.48047 3.53414 3.73482 3.44118 4.00004 3.44118ZM20.3334 15.2059C20.3334 16.61 19.7012 17.9565 18.576 18.9494C17.4508 19.9422 15.9247 20.5 14.3334 20.5C12.7421 20.5 11.216 19.9422 10.0907 18.9494C8.96552 17.9565 8.33337 16.61 8.33337 15.2059C8.33337 13.8018 8.96552 12.4552 10.0907 11.4624C11.216 10.4695 12.7421 9.91177 14.3334 9.91177C15.9247 9.91177 17.4508 10.4695 18.576 11.4624C19.7012 12.4552 20.3334 13.8018 20.3334 15.2059ZM13.6934 12.8929C13.607 12.8403 13.5065 12.8086 13.402 12.801C13.2974 12.7934 13.1924 12.81 13.0974 12.8494C13.02 12.8798 12.9498 12.9229 12.8907 12.9765C12.8286 13.0317 12.7795 13.0973 12.7463 13.1694C12.7132 13.2415 12.6965 13.3187 12.6974 13.3965V17.0141C12.6963 17.0921 12.7129 17.1695 12.7461 17.2418C12.7793 17.3141 12.8284 17.3799 12.8907 17.4353C12.9522 17.4881 13.0229 17.5317 13.1 17.5647C13.2353 17.6194 13.3888 17.6278 13.5307 17.5882C13.5923 17.5707 13.6507 17.5453 13.704 17.5129L16.7654 15.6694C16.8585 15.6152 16.9335 15.5401 16.9827 15.4518C17.0329 15.3627 17.0588 15.2644 17.0581 15.1649C17.0574 15.0654 17.0302 14.9674 16.9787 14.8788C16.9259 14.7921 16.8494 14.7185 16.756 14.6647L13.6934 12.8929Z" fill="#959595"/>
<path d="M3.00004 0.5C2.2928 0.5 1.61452 0.747898 1.11442 1.18916C0.614325 1.63042 0.333374 2.2289 0.333374 2.85294V16.9706C0.333374 17.5946 0.614325 18.1931 1.11442 18.6344C1.61452 19.0756 2.2928 19.3235 3.00004 19.3235H8.67604C8.33642 18.9606 8.04268 18.5662 7.80004 18.1471H3.00004C2.64642 18.1471 2.30728 18.0231 2.05723 17.8025C1.80718 17.5819 1.66671 17.2826 1.66671 16.9706H7.27604C6.91944 15.8623 6.90467 14.6901 7.23326 13.5751C7.56184 12.4601 8.22187 11.4427 9.14514 10.628C10.0684 9.81337 11.2214 9.231 12.4851 8.94108C13.7488 8.65115 15.0773 8.66418 16.3334 8.97882V2.85294C16.3334 2.2289 16.0524 1.63042 15.5523 1.18916C15.0522 0.747898 14.374 0.5 13.6667 0.5H3.00004ZM4.00004 3.44118H12.6667C12.9319 3.44118 13.1863 3.53414 13.3738 3.69961C13.5613 3.86508 13.6667 4.08951 13.6667 4.32353C13.6667 4.55754 13.5613 4.78197 13.3738 4.94745C13.1863 5.11292 12.9319 5.20588 12.6667 5.20588H4.00004C3.73482 5.20588 3.48047 5.11292 3.29293 4.94745C3.1054 4.78197 3.00004 4.55754 3.00004 4.32353C3.00004 4.08951 3.1054 3.86508 3.29293 3.69961C3.48047 3.53414 3.73482 3.44118 4.00004 3.44118ZM20.3334 15.2059C20.3334 16.61 19.7012 17.9565 18.576 18.9494C17.4508 19.9422 15.9247 20.5 14.3334 20.5C12.7421 20.5 11.216 19.9422 10.0907 18.9494C8.96552 17.9565 8.33337 16.61 8.33337 15.2059C8.33337 13.8018 8.96552 12.4552 10.0907 11.4624C11.216 10.4695 12.7421 9.91177 14.3334 9.91177C15.9247 9.91177 17.4508 10.4695 18.576 11.4624C19.7012 12.4552 20.3334 13.8018 20.3334 15.2059ZM13.6934 12.8929C13.607 12.8403 13.5065 12.8086 13.402 12.801C13.2974 12.7934 13.1924 12.81 13.0974 12.8494C13.02 12.8798 12.9498 12.9229 12.8907 12.9765C12.8286 13.0317 12.7795 13.0973 12.7463 13.1694C12.7132 13.2415 12.6965 13.3187 12.6974 13.3965V17.0141C12.6963 17.0921 12.7129 17.1695 12.7461 17.2418C12.7793 17.3141 12.8284 17.3799 12.8907 17.4353C12.9522 17.4881 13.0229 17.5317 13.1 17.5647C13.2353 17.6194 13.3888 17.6278 13.5307 17.5882C13.5923 17.5707 13.6507 17.5453 13.704 17.5129L16.7654 15.6694C16.8585 15.6152 16.9335 15.5401 16.9827 15.4518C17.0329 15.3627 17.0588 15.2644 17.0581 15.1649C17.0574 15.0654 17.0302 14.9674 16.9787 14.8788C16.9259 14.7921 16.8494 14.7185 16.756 14.6647L13.6934 12.8929Z" fill="#959595"/>
<path d="M3.00004 0.5C2.2928 0.5 1.61452 0.747898 1.11442 1.18916C0.614325 1.63042 0.333374 2.2289 0.333374 2.85294V16.9706C0.333374 17.5946 0.614325 18.1931 1.11442 18.6344C1.61452 19.0756 2.2928 19.3235 3.00004 19.3235H8.67604C8.33642 18.9606 8.04268 18.5662 7.80004 18.1471H3.00004C2.64642 18.1471 2.30728 18.0231 2.05723 17.8025C1.80718 17.5819 1.66671 17.2826 1.66671 16.9706H7.27604C6.91944 15.8623 6.90467 14.6901 7.23326 13.5751C7.56184 12.4601 8.22187 11.4427 9.14514 10.628C10.0684 9.81337 11.2214 9.231 12.4851 8.94108C13.7488 8.65115 15.0773 8.66418 16.3334 8.97882V2.85294C16.3334 2.2289 16.0524 1.63042 15.5523 1.18916C15.0522 0.747898 14.374 0.5 13.6667 0.5H3.00004ZM4.00004 3.44118H12.6667C12.9319 3.44118 13.1863 3.53414 13.3738 3.69961C13.5613 3.86508 13.6667 4.08951 13.6667 4.32353C13.6667 4.55754 13.5613 4.78197 13.3738 4.94745C13.1863 5.11292 12.9319 5.20588 12.6667 5.20588H4.00004C3.73482 5.20588 3.48047 5.11292 3.29293 4.94745C3.1054 4.78197 3.00004 4.55754 3.00004 4.32353C3.00004 4.08951 3.1054 3.86508 3.29293 3.69961C3.48047 3.53414 3.73482 3.44118 4.00004 3.44118ZM20.3334 15.2059C20.3334 16.61 19.7012 17.9565 18.576 18.9494C17.4508 19.9422 15.9247 20.5 14.3334 20.5C12.7421 20.5 11.216 19.9422 10.0907 18.9494C8.96552 17.9565 8.33337 16.61 8.33337 15.2059C8.33337 13.8018 8.96552 12.4552 10.0907 11.4624C11.216 10.4695 12.7421 9.91177 14.3334 9.91177C15.9247 9.91177 17.4508 10.4695 18.576 11.4624C19.7012 12.4552 20.3334 13.8018 20.3334 15.2059ZM13.6934 12.8929C13.607 12.8403 13.5065 12.8086 13.402 12.801C13.2974 12.7934 13.1924 12.81 13.0974 12.8494C13.02 12.8798 12.9498 12.9229 12.8907 12.9765C12.8286 13.0317 12.7795 13.0973 12.7463 13.1694C12.7132 13.2415 12.6965 13.3187 12.6974 13.3965V17.0141C12.6963 17.0921 12.7129 17.1695 12.7461 17.2418C12.7793 17.3141 12.8284 17.3799 12.8907 17.4353C12.9522 17.4881 13.0229 17.5317 13.1 17.5647C13.2353 17.6194 13.3888 17.6278 13.5307 17.5882C13.5923 17.5707 13.6507 17.5453 13.704 17.5129L16.7654 15.6694C16.8585 15.6152 16.9335 15.5401 16.9827 15.4518C17.0329 15.3627 17.0588 15.2644 17.0581 15.1649C17.0574 15.0654 17.0302 14.9674 16.9787 14.8788C16.9259 14.7921 16.8494 14.7185 16.756 14.6647L13.6934 12.8929Z" fill="#959595"/>
<path d="M3.00004 0.5C2.2928 0.5 1.61452 0.747898 1.11442 1.18916C0.614325 1.63042 0.333374 2.2289 0.333374 2.85294V16.9706C0.333374 17.5946 0.614325 18.1931 1.11442 18.6344C1.61452 19.0756 2.2928 19.3235 3.00004 19.3235H8.67604C8.33642 18.9606 8.04268 18.5662 7.80004 18.1471H3.00004C2.64642 18.1471 2.30728 18.0231 2.05723 17.8025C1.80718 17.5819 1.66671 17.2826 1.66671 16.9706H7.27604C6.91944 15.8623 6.90467 14.6901 7.23326 13.5751C7.56184 12.4601 8.22187 11.4427 9.14514 10.628C10.0684 9.81337 11.2214 9.231 12.4851 8.94108C13.7488 8.65115 15.0773 8.66418 16.3334 8.97882V2.85294C16.3334 2.2289 16.0524 1.63042 15.5523 1.18916C15.0522 0.747898 14.374 0.5 13.6667 0.5H3.00004ZM4.00004 3.44118H12.6667C12.9319 3.44118 13.1863 3.53414 13.3738 3.69961C13.5613 3.86508 13.6667 4.08951 13.6667 4.32353C13.6667 4.55754 13.5613 4.78197 13.3738 4.94745C13.1863 5.11292 12.9319 5.20588 12.6667 5.20588H4.00004C3.73482 5.20588 3.48047 5.11292 3.29293 4.94745C3.1054 4.78197 3.00004 4.55754 3.00004 4.32353C3.00004 4.08951 3.1054 3.86508 3.29293 3.69961C3.48047 3.53414 3.73482 3.44118 4.00004 3.44118ZM20.3334 15.2059C20.3334 16.61 19.7012 17.9565 18.576 18.9494C17.4508 19.9422 15.9247 20.5 14.3334 20.5C12.7421 20.5 11.216 19.9422 10.0907 18.9494C8.96552 17.9565 8.33337 16.61 8.33337 15.2059C8.33337 13.8018 8.96552 12.4552 10.0907 11.4624C11.216 10.4695 12.7421 9.91177 14.3334 9.91177C15.9247 9.91177 17.4508 10.4695 18.576 11.4624C19.7012 12.4552 20.3334 13.8018 20.3334 15.2059ZM13.6934 12.8929C13.607 12.8403 13.5065 12.8086 13.402 12.801C13.2974 12.7934 13.1924 12.81 13.0974 12.8494C13.02 12.8798 12.9498 12.9229 12.8907 12.9765C12.8286 13.0317 12.7795 13.0973 12.7463 13.1694C12.7132 13.2415 12.6965 13.3187 12.6974 13.3965V17.0141C12.6963 17.0921 12.7129 17.1695 12.7461 17.2418C12.7793 17.3141 12.8284 17.3799 12.8907 17.4353C12.9522 17.4881 13.0229 17.5317 13.1 17.5647C13.2353 17.6194 13.3888 17.6278 13.5307 17.5882C13.5923 17.5707 13.6507 17.5453 13.704 17.5129L16.7654 15.6694C16.8585 15.6152 16.9335 15.5401 16.9827 15.4518C17.0329 15.3627 17.0588 15.2644 17.0581 15.1649C17.0574 15.0654 17.0302 14.9674 16.9787 14.8788C16.9259 14.7921 16.8494 14.7185 16.756 14.6647L13.6934 12.8929Z" fill="#959595"/>
<path d="M3.00004 0.5C2.2928 0.5 1.61452 0.747898 1.11442 1.18916C0.614325 1.63042 0.333374 2.2289 0.333374 2.85294V16.9706C0.333374 17.5946 0.614325 18.1931 1.11442 18.6344C1.61452 19.0756 2.2928 19.3235 3.00004 19.3235H8.67604C8.33642 18.9606 8.04268 18.5662 7.80004 18.1471H3.00004C2.64642 18.1471 2.30728 18.0231 2.05723 17.8025C1.80718 17.5819 1.66671 17.2826 1.66671 16.9706H7.27604C6.91944 15.8623 6.90467 14.6901 7.23326 13.5751C7.56184 12.4601 8.22187 11.4427 9.14514 10.628C10.0684 9.81337 11.2214 9.231 12.4851 8.94108C13.7488 8.65115 15.0773 8.66418 16.3334 8.97882V2.85294C16.3334 2.2289 16.0524 1.63042 15.5523 1.18916C15.0522 0.747898 14.374 0.5 13.6667 0.5H3.00004ZM4.00004 3.44118H12.6667C12.9319 3.44118 13.1863 3.53414 13.3738 3.69961C13.5613 3.86508 13.6667 4.08951 13.6667 4.32353C13.6667 4.55754 13.5613 4.78197 13.3738 4.94745C13.1863 5.11292 12.9319 5.20588 12.6667 5.20588H4.00004C3.73482 5.20588 3.48047 5.11292 3.29293 4.94745C3.1054 4.78197 3.00004 4.55754 3.00004 4.32353C3.00004 4.08951 3.1054 3.86508 3.29293 3.69961C3.48047 3.53414 3.73482 3.44118 4.00004 3.44118ZM20.3334 15.2059C20.3334 16.61 19.7012 17.9565 18.576 18.9494C17.4508 19.9422 15.9247 20.5 14.3334 20.5C12.7421 20.5 11.216 19.9422 10.0907 18.9494C8.96552 17.9565 8.33337 16.61 8.33337 15.2059C8.33337 13.8018 8.96552 12.4552 10.0907 11.4624C11.216 10.4695 12.7421 9.91177 14.3334 9.91177C15.9247 9.91177 17.4508 10.4695 18.576 11.4624C19.7012 12.4552 20.3334 13.8018 20.3334 15.2059ZM13.6934 12.8929C13.607 12.8403 13.5065 12.8086 13.402 12.801C13.2974 12.7934 13.1924 12.81 13.0974 12.8494C13.02 12.8798 12.9498 12.9229 12.8907 12.9765C12.8286 13.0317 12.7795 13.0973 12.7463 13.1694C12.7132 13.2415 12.6965 13.3187 12.6974 13.3965V17.0141C12.6963 17.0921 12.7129 17.1695 12.7461 17.2418C12.7793 17.3141 12.8284 17.3799 12.8907 17.4353C12.9522 17.4881 13.0229 17.5317 13.1 17.5647C13.2353 17.6194 13.3888 17.6278 13.5307 17.5882C13.5923 17.5707 13.6507 17.5453 13.704 17.5129L16.7654 15.6694C16.8585 15.6152 16.9335 15.5401 16.9827 15.4518C17.0329 15.3627 17.0588 15.2644 17.0581 15.1649C17.0574 15.0654 17.0302 14.9674 16.9787 14.8788C16.9259 14.7921 16.8494 14.7185 16.756 14.6647L13.6934 12.8929Z" fill="#959595"/>
<path d="M3.00004 0.5C2.2928 0.5 1.61452 0.747898 1.11442 1.18916C0.614325 1.63042 0.333374 2.2289 0.333374 2.85294V16.9706C0.333374 17.5946 0.614325 18.1931 1.11442 18.6344C1.61452 19.0756 2.2928 19.3235 3.00004 19.3235H8.67604C8.33642 18.9606 8.04268 18.5662 7.80004 18.1471H3.00004C2.64642 18.1471 2.30728 18.0231 2.05723 17.8025C1.80718 17.5819 1.66671 17.2826 1.66671 16.9706H7.27604C6.91944 15.8623 6.90467 14.6901 7.23326 13.5751C7.56184 12.4601 8.22187 11.4427 9.14514 10.628C10.0684 9.81337 11.2214 9.231 12.4851 8.94108C13.7488 8.65115 15.0773 8.66418 16.3334 8.97882V2.85294C16.3334 2.2289 16.0524 1.63042 15.5523 1.18916C15.0522 0.747898 14.374 0.5 13.6667 0.5H3.00004ZM4.00004 3.44118H12.6667C12.9319 3.44118 13.1863 3.53414 13.3738 3.69961C13.5613 3.86508 13.6667 4.08951 13.6667 4.32353C13.6667 4.55754 13.5613 4.78197 13.3738 4.94745C13.1863 5.11292 12.9319 5.20588 12.6667 5.20588H4.00004C3.73482 5.20588 3.48047 5.11292 3.29293 4.94745C3.1054 4.78197 3.00004 4.55754 3.00004 4.32353C3.00004 4.08951 3.1054 3.86508 3.29293 3.69961C3.48047 3.53414 3.73482 3.44118 4.00004 3.44118ZM20.3334 15.2059C20.3334 16.61 19.7012 17.9565 18.576 18.9494C17.4508 19.9422 15.9247 20.5 14.3334 20.5C12.7421 20.5 11.216 19.9422 10.0907 18.9494C8.96552 17.9565 8.33337 16.61 8.33337 15.2059C8.33337 13.8018 8.96552 12.4552 10.0907 11.4624C11.216 10.4695 12.7421 9.91177 14.3334 9.91177C15.9247 9.91177 17.4508 10.4695 18.576 11.4624C19.7012 12.4552 20.3334 13.8018 20.3334 15.2059ZM13.6934 12.8929C13.607 12.8403 13.5065 12.8086 13.402 12.801C13.2974 12.7934 13.1924 12.81 13.0974 12.8494C13.02 12.8798 12.9498 12.9229 12.8907 12.9765C12.8286 13.0317 12.7795 13.0973 12.7463 13.1694C12.7132 13.2415 12.6965 13.3187 12.6974 13.3965V17.0141C12.6963 17.0921 12.7129 17.1695 12.7461 17.2418C12.7793 17.3141 12.8284 17.3799 12.8907 17.4353C12.9522 17.4881 13.0229 17.5317 13.1 17.5647C13.2353 17.6194 13.3888 17.6278 13.5307 17.5882C13.5923 17.5707 13.6507 17.5453 13.704 17.5129L16.7654 15.6694C16.8585 15.6152 16.9335 15.5401 16.9827 15.4518C17.0329 15.3627 17.0588 15.2644 17.0581 15.1649C17.0574 15.0654 17.0302 14.9674 16.9787 14.8788C16.9259 14.7921 16.8494 14.7185 16.756 14.6647L13.6934 12.8929Z" fill="#959595"/>
<path d="M3.00004 0.5C2.2928 0.5 1.61452 0.747898 1.11442 1.18916C0.614325 1.63042 0.333374 2.2289 0.333374 2.85294V16.9706C0.333374 17.5946 0.614325 18.1931 1.11442 18.6344C1.61452 19.0756 2.2928 19.3235 3.00004 19.3235H8.67604C8.33642 18.9606 8.04268 18.5662 7.80004 18.1471H3.00004C2.64642 18.1471 2.30728 18.0231 2.05723 17.8025C1.80718 17.5819 1.66671 17.2826 1.66671 16.9706H7.27604C6.91944 15.8623 6.90467 14.6901 7.23326 13.5751C7.56184 12.4601 8.22187 11.4427 9.14514 10.628C10.0684 9.81337 11.2214 9.231 12.4851 8.94108C13.7488 8.65115 15.0773 8.66418 16.3334 8.97882V2.85294C16.3334 2.2289 16.0524 1.63042 15.5523 1.18916C15.0522 0.747898 14.374 0.5 13.6667 0.5H3.00004ZM4.00004 3.44118H12.6667C12.9319 3.44118 13.1863 3.53414 13.3738 3.69961C13.5613 3.86508 13.6667 4.08951 13.6667 4.32353C13.6667 4.55754 13.5613 4.78197 13.3738 4.94745C13.1863 5.11292 12.9319 5.20588 12.6667 5.20588H4.00004C3.73482 5.20588 3.48047 5.11292 3.29293 4.94745C3.1054 4.78197 3.00004 4.55754 3.00004 4.32353C3.00004 4.08951 3.1054 3.86508 3.29293 3.69961C3.48047 3.53414 3.73482 3.44118 4.00004 3.44118ZM20.3334 15.2059C20.3334 16.61 19.7012 17.9565 18.576 18.9494C17.4508 19.9422 15.9247 20.5 14.3334 20.5C12.7421 20.5 11.216 19.9422 10.0907 18.9494C8.96552 17.9565 8.33337 16.61 8.33337 15.2059C8.33337 13.8018 8.96552 12.4552 10.0907 11.4624C11.216 10.4695 12.7421 9.91177 14.3334 9.91177C15.9247 9.91177 17.4508 10.4695 18.576 11.4624C19.7012 12.4552 20.3334 13.8018 20.3334 15.2059ZM13.6934 12.8929C13.607 12.8403 13.5065 12.8086 13.402 12.801C13.2974 12.7934 13.1924 12.81 13.0974 12.8494C13.02 12.8798 12.9498 12.9229 12.8907 12.9765C12.8286 13.0317 12.7795 13.0973 12.7463 13.1694C12.7132 13.2415 12.6965 13.3187 12.6974 13.3965V17.0141C12.6963 17.0921 12.7129 17.1695 12.7461 17.2418C12.7793 17.3141 12.8284 17.3799 12.8907 17.4353C12.9522 17.4881 13.0229 17.5317 13.1 17.5647C13.2353 17.6194 13.3888 17.6278 13.5307 17.5882C13.5923 17.5707 13.6507 17.5453 13.704 17.5129L16.7654 15.6694C16.8585 15.6152 16.9335 15.5401 16.9827 15.4518C17.0329 15.3627 17.0588 15.2644 17.0581 15.1649C17.0574 15.0654 17.0302 14.9674 16.9787 14.8788C16.9259 14.7921 16.8494 14.7185 16.756 14.6647L13.6934 12.8929Z" fill="#959595"/>
<path d="M3.00004 0.5C2.2928 0.5 1.61452 0.747898 1.11442 1.18916C0.614325 1.63042 0.333374 2.2289 0.333374 2.85294V16.9706C0.333374 17.5946 0.614325 18.1931 1.11442 18.6344C1.61452 19.0756 2.2928 19.3235 3.00004 19.3235H8.67604C8.33642 18.9606 8.04268 18.5662 7.80004 18.1471H3.00004C2.64642 18.1471 2.30728 18.0231 2.05723 17.8025C1.80718 17.5819 1.66671 17.2826 1.66671 16.9706H7.27604C6.91944 15.8623 6.90467 14.6901 7.23326 13.5751C7.56184 12.4601 8.22187 11.4427 9.14514 10.628C10.0684 9.81337 11.2214 9.231 12.4851 8.94108C13.7488 8.65115 15.0773 8.66418 16.3334 8.97882V2.85294C16.3334 2.2289 16.0524 1.63042 15.5523 1.18916C15.0522 0.747898 14.374 0.5 13.6667 0.5H3.00004ZM4.00004 3.44118H12.6667C12.9319 3.44118 13.1863 3.53414 13.3738 3.69961C13.5613 3.86508 13.6667 4.08951 13.6667 4.32353C13.6667 4.55754 13.5613 4.78197 13.3738 4.94745C13.1863 5.11292 12.9319 5.20588 12.6667 5.20588H4.00004C3.73482 5.20588 3.48047 5.11292 3.29293 4.94745C3.1054 4.78197 3.00004 4.55754 3.00004 4.32353C3.00004 4.08951 3.1054 3.86508 3.29293 3.69961C3.48047 3.53414 3.73482 3.44118 4.00004 3.44118ZM20.3334 15.2059C20.3334 16.61 19.7012 17.9565 18.576 18.9494C17.4508 19.9422 15.9247 20.5 14.3334 20.5C12.7421 20.5 11.216 19.9422 10.0907 18.9494C8.96552 17.9565 8.33337 16.61 8.33337 15.2059C8.33337 13.8018 8.96552 12.4552 10.0907 11.4624C11.216 10.4695 12.7421 9.91177 14.3334 9.91177C15.9247 9.91177 17.4508 10.4695 18.576 11.4624C19.7012 12.4552 20.3334 13.8018 20.3334 15.2059ZM13.6934 12.8929C13.607 12.8403 13.5065 12.8086 13.402 12.801C13.2974 12.7934 13.1924 12.81 13.0974 12.8494C13.02 12.8798 12.9498 12.9229 12.8907 12.9765C12.8286 13.0317 12.7795 13.0973 12.7463 13.1694C12.7132 13.2415 12.6965 13.3187 12.6974 13.3965V17.0141C12.6963 17.0921 12.7129 17.1695 12.7461 17.2418C12.7793 17.3141 12.8284 17.3799 12.8907 17.4353C12.9522 17.4881 13.0229 17.5317 13.1 17.5647C13.2353 17.6194 13.3888 17.6278 13.5307 17.5882C13.5923 17.5707 13.6507 17.5453 13.704 17.5129L16.7654 15.6694C16.8585 15.6152 16.9335 15.5401 16.9827 15.4518C17.0329 15.3627 17.0588 15.2644 17.0581 15.1649C17.0574 15.0654 17.0302 14.9674 16.9787 14.8788C16.9259 14.7921 16.8494 14.7185 16.756 14.6647L13.6934 12.8929Z" fill="#959595"/>
<path d="M3.00004 0.5C2.2928 0.5 1.61452 0.747898 1.11442 1.18916C0.614325 1.63042 0.333374 2.2289 0.333374 2.85294V16.9706C0.333374 17.5946 0.614325 18.1931 1.11442 18.6344C1.61452 19.0756 2.2928 19.3235 3.00004 19.3235H8.67604C8.33642 18.9606 8.04268 18.5662 7.80004 18.1471H3.00004C2.64642 18.1471 2.30728 18.0231 2.05723 17.8025C1.80718 17.5819 1.66671 17.2826 1.66671 16.9706H7.27604C6.91944 15.8623 6.90467 14.6901 7.23326 13.5751C7.56184 12.4601 8.22187 11.4427 9.14514 10.628C10.0684 9.81337 11.2214 9.231 12.4851 8.94108C13.7488 8.65115 15.0773 8.66418 16.3334 8.97882V2.85294C16.3334 2.2289 16.0524 1.63042 15.5523 1.18916C15.0522 0.747898 14.374 0.5 13.6667 0.5H3.00004ZM4.00004 3.44118H12.6667C12.9319 3.44118 13.1863 3.53414 13.3738 3.69961C13.5613 3.86508 13.6667 4.08951 13.6667 4.32353C13.6667 4.55754 13.5613 4.78197 13.3738 4.94745C13.1863 5.11292 12.9319 5.20588 12.6667 5.20588H4.00004C3.73482 5.20588 3.48047 5.11292 3.29293 4.94745C3.1054 4.78197 3.00004 4.55754 3.00004 4.32353C3.00004 4.08951 3.1054 3.86508 3.29293 3.69961C3.48047 3.53414 3.73482 3.44118 4.00004 3.44118ZM20.3334 15.2059C20.3334 16.61 19.7012 17.9565 18.576 18.9494C17.4508 19.9422 15.9247 20.5 14.3334 20.5C12.7421 20.5 11.216 19.9422 10.0907 18.9494C8.96552 17.9565 8.33337 16.61 8.33337 15.2059C8.33337 13.8018 8.96552 12.4552 10.0907 11.4624C11.216 10.4695 12.7421 9.91177 14.3334 9.91177C15.9247 9.91177 17.4508 10.4695 18.576 11.4624C19.7012 12.4552 20.3334 13.8018 20.3334 15.2059ZM13.6934 12.8929C13.607 12.8403 13.5065 12.8086 13.402 12.801C13.2974 12.7934 13.1924 12.81 13.0974 12.8494C13.02 12.8798 12.9498 12.9229 12.8907 12.9765C12.8286 13.0317 12.7795 13.0973 12.7463 13.1694C12.7132 13.2415 12.6965 13.3187 12.6974 13.3965V17.0141C12.6963 17.0921 12.7129 17.1695 12.7461 17.2418C12.7793 17.3141 12.8284 17.3799 12.8907 17.4353C12.9522 17.4881 13.0229 17.5317 13.1 17.5647C13.2353 17.6194 13.3888 17.6278 13.5307 17.5882C13.5923 17.5707 13.6507 17.5453 13.704 17.5129L16.7654 15.6694C16.8585 15.6152 16.9335 15.5401 16.9827 15.4518C17.0329 15.3627 17.0588 15.2644 17.0581 15.1649C17.0574 15.0654 17.0302 14.9674 16.9787 14.8788C16.9259 14.7921 16.8494 14.7185 16.756 14.6647L13.6934 12.8929Z" fill="#959595"/>
<path d="M3.00004 0.5C2.2928 0.5 1.61452 0.747898 1.11442 1.18916C0.614325 1.63042 0.333374 2.2289 0.333374 2.85294V16.9706C0.333374 17.5946 0.614325 18.1931 1.11442 18.6344C1.61452 19.0756 2.2928 19.3235 3.00004 19.3235H8.67604C8.33642 18.9606 8.04268 18.5662 7.80004 18.1471H3.00004C2.64642 18.1471 2.30728 18.0231 2.05723 17.8025C1.80718 17.5819 1.66671 17.2826 1.66671 16.9706H7.27604C6.91944 15.8623 6.90467 14.6901 7.23326 13.5751C7.56184 12.4601 8.22187 11.4427 9.14514 10.628C10.0684 9.81337 11.2214 9.231 12.4851 8.94108C13.7488 8.65115 15.0773 8.66418 16.3334 8.97882V2.85294C16.3334 2.2289 16.0524 1.63042 15.5523 1.18916C15.0522 0.747898 14.374 0.5 13.6667 0.5H3.00004ZM4.00004 3.44118H12.6667C12.9319 3.44118 13.1863 3.53414 13.3738 3.69961C13.5613 3.86508 13.6667 4.08951 13.6667 4.32353C13.6667 4.55754 13.5613 4.78197 13.3738 4.94745C13.1863 5.11292 12.9319 5.20588 12.6667 5.20588H4.00004C3.73482 5.20588 3.48047 5.11292 3.29293 4.94745C3.1054 4.78197 3.00004 4.55754 3.00004 4.32353C3.00004 4.08951 3.1054 3.86508 3.29293 3.69961C3.48047 3.53414 3.73482 3.44118 4.00004 3.44118ZM20.3334 15.2059C20.3334 16.61 19.7012 17.9565 18.576 18.9494C17.4508 19.9422 15.9247 20.5 14.3334 20.5C12.7421 20.5 11.216 19.9422 10.0907 18.9494C8.96552 17.9565 8.33337 16.61 8.33337 15.2059C8.33337 13.8018 8.96552 12.4552 10.0907 11.4624C11.216 10.4695 12.7421 9.91177 14.3334 9.91177C15.9247 9.91177 17.4508 10.4695 18.576 11.4624C19.7012 12.4552 20.3334 13.8018 20.3334 15.2059ZM13.6934 12.8929C13.607 12.8403 13.5065 12.8086 13.402 12.801C13.2974 12.7934 13.1924 12.81 13.0974 12.8494C13.02 12.8798 12.9498 12.9229 12.8907 12.9765C12.8286 13.0317 12.7795 13.0973 12.7463 13.1694C12.7132 13.2415 12.6965 13.3187 12.6974 13.3965V17.0141C12.6963 17.0921 12.7129 17.1695 12.7461 17.2418C12.7793 17.3141 12.8284 17.3799 12.8907 17.4353C12.9522 17.4881 13.0229 17.5317 13.1 17.5647C13.2353 17.6194 13.3888 17.6278 13.5307 17.5882C13.5923 17.5707 13.6507 17.5453 13.704 17.5129L16.7654 15.6694C16.8585 15.6152 16.9335 15.5401 16.9827 15.4518C17.0329 15.3627 17.0588 15.2644 17.0581 15.1649C17.0574 15.0654 17.0302 14.9674 16.9787 14.8788C16.9259 14.7921 16.8494 14.7185 16.756 14.6647L13.6934 12.8929Z" fill="#959595"/>
<path d="M3.00004 0.5C2.2928 0.5 1.61452 0.747898 1.11442 1.18916C0.614325 1.63042 0.333374 2.2289 0.333374 2.85294V16.9706C0.333374 17.5946 0.614325 18.1931 1.11442 18.6344C1.61452 19.0756 2.2928 19.3235 3.00004 19.3235H8.67604C8.33642 18.9606 8.04268 18.5662 7.80004 18.1471H3.00004C2.64642 18.1471 2.30728 18.0231 2.05723 17.8025C1.80718 17.5819 1.66671 17.2826 1.66671 16.9706H7.27604C6.91944 15.8623 6.90467 14.6901 7.23326 13.5751C7.56184 12.4601 8.22187 11.4427 9.14514 10.628C10.0684 9.81337 11.2214 9.231 12.4851 8.94108C13.7488 8.65115 15.0773 8.66418 16.3334 8.97882V2.85294C16.3334 2.2289 16.0524 1.63042 15.5523 1.18916C15.0522 0.747898 14.374 0.5 13.6667 0.5H3.00004ZM4.00004 3.44118H12.6667C12.9319 3.44118 13.1863 3.53414 13.3738 3.69961C13.5613 3.86508 13.6667 4.08951 13.6667 4.32353C13.6667 4.55754 13.5613 4.78197 13.3738 4.94745C13.1863 5.11292 12.9319 5.20588 12.6667 5.20588H4.00004C3.73482 5.20588 3.48047 5.11292 3.29293 4.94745C3.1054 4.78197 3.00004 4.55754 3.00004 4.32353C3.00004 4.08951 3.1054 3.86508 3.29293 3.69961C3.48047 3.53414 3.73482 3.44118 4.00004 3.44118ZM20.3334 15.2059C20.3334 16.61 19.7012 17.9565 18.576 18.9494C17.4508 19.9422 15.9247 20.5 14.3334 20.5C12.7421 20.5 11.216 19.9422 10.0907 18.9494C8.96552 17.9565 8.33337 16.61 8.33337 15.2059C8.33337 13.8018 8.96552 12.4552 10.0907 11.4624C11.216 10.4695 12.7421 9.91177 14.3334 9.91177C15.9247 9.91177 17.4508 10.4695 18.576 11.4624C19.7012 12.4552 20.3334 13.8018 20.3334 15.2059ZM13.6934 12.8929C13.607 12.8403 13.5065 12.8086 13.402 12.801C13.2974 12.7934 13.1924 12.81 13.0974 12.8494C13.02 12.8798 12.9498 12.9229 12.8907 12.9765C12.8286 13.0317 12.7795 13.0973 12.7463 13.1694C12.7132 13.2415 12.6965 13.3187 12.6974 13.3965V17.0141C12.6963 17.0921 12.7129 17.1695 12.7461 17.2418C12.7793 17.3141 12.8284 17.3799 12.8907 17.4353C12.9522 17.4881 13.0229 17.5317 13.1 17.5647C13.2353 17.6194 13.3888 17.6278 13.5307 17.5882C13.5923 17.5707 13.6507 17.5453 13.704 17.5129L16.7654 15.6694C16.8585 15.6152 16.9335 15.5401 16.9827 15.4518C17.0329 15.3627 17.0588 15.2644 17.0581 15.1649C17.0574 15.0654 17.0302 14.9674 16.9787 14.8788C16.9259 14.7921 16.8494 14.7185 16.756 14.6647L13.6934 12.8929Z" fill="#959595"/>
<path d="M3.00004 0.5C2.2928 0.5 1.61452 0.747898 1.11442 1.18916C0.614325 1.63042 0.333374 2.2289 0.333374 2.85294V16.9706C0.333374 17.5946 0.614325 18.1931 1.11442 18.6344C1.61452 19.0756 2.2928 19.3235 3.00004 19.3235H8.67604C8.33642 18.9606 8.04268 18.5662 7.80004 18.1471H3.00004C2.64642 18.1471 2.30728 18.0231 2.05723 17.8025C1.80718 17.5819 1.66671 17.2826 1.66671 16.9706H7.27604C6.91944 15.8623 6.90467 14.6901 7.23326 13.5751C7.56184 12.4601 8.22187 11.4427 9.14514 10.628C10.0684 9.81337 11.2214 9.231 12.4851 8.94108C13.7488 8.65115 15.0773 8.66418 16.3334 8.97882V2.85294C16.3334 2.2289 16.0524 1.63042 15.5523 1.18916C15.0522 0.747898 14.374 0.5 13.6667 0.5H3.00004ZM4.00004 3.44118H12.6667C12.9319 3.44118 13.1863 3.53414 13.3738 3.69961C13.5613 3.86508 13.6667 4.08951 13.6667 4.32353C13.6667 4.55754 13.5613 4.78197 13.3738 4.94745C13.1863 5.11292 12.9319 5.20588 12.6667 5.20588H4.00004C3.73482 5.20588 3.48047 5.11292 3.29293 4.94745C3.1054 4.78197 3.00004 4.55754 3.00004 4.32353C3.00004 4.08951 3.1054 3.86508 3.29293 3.69961C3.48047 3.53414 3.73482 3.44118 4.00004 3.44118ZM20.3334 15.2059C20.3334 16.61 19.7012 17.9565 18.576 18.9494C17.4508 19.9422 15.9247 20.5 14.3334 20.5C12.7421 20.5 11.216 19.9422 10.0907 18.9494C8.96552 17.9565 8.33337 16.61 8.33337 15.2059C8.33337 13.8018 8.96552 12.4552 10.0907 11.4624C11.216 10.4695 12.7421 9.91177 14.3334 9.91177C15.9247 9.91177 17.4508 10.4695 18.576 11.4624C19.7012 12.4552 20.3334 13.8018 20.3334 15.2059ZM13.6934 12.8929C13.607 12.8403 13.5065 12.8086 13.402 12.801C13.2974 12.7934 13.1924 12.81 13.0974 12.8494C13.02 12.8798 12.9498 12.9229 12.8907 12.9765C12.8286 13.0317 12.7795 13.0973 12.7463 13.1694C12.7132 13.2415 12.6965 13.3187 12.6974 13.3965V17.0141C12.6963 17.0921 12.7129 17.1695 12.7461 17.2418C12.7793 17.3141 12.8284 17.3799 12.8907 17.4353C12.9522 17.4881 13.0229 17.5317 13.1 17.5647C13.2353 17.6194 13.3888 17.6278 13.5307 17.5882C13.5923 17.5707 13.6507 17.5453 13.704 17.5129L16.7654 15.6694C16.8585 15.6152 16.9335 15.5401 16.9827 15.4518C17.0329 15.3627 17.0588 15.2644 17.0581 15.1649C17.0574 15.0654 17.0302 14.9674 16.9787 14.8788C16.9259 14.7921 16.8494 14.7185 16.756 14.6647L13.6934 12.8929Z" fill="#959595"/>
<path d="M3.00004 0.5C2.2928 0.5 1.61452 0.747898 1.11442 1.18916C0.614325 1.63042 0.333374 2.2289 0.333374 2.85294V16.9706C0.333374 17.5946 0.614325 18.1931 1.11442 18.6344C1.61452 19.0756 2.2928 19.3235 3.00004 19.3235H8.67604C8.33642 18.9606 8.04268 18.5662 7.80004 18.1471H3.00004C2.64642 18.1471 2.30728 18.0231 2.05723 17.8025C1.80718 17.5819 1.66671 17.2826 1.66671 16.9706H7.27604C6.91944 15.8623 6.90467 14.6901 7.23326 13.5751C7.56184 12.4601 8.22187 11.4427 9.14514 10.628C10.0684 9.81337 11.2214 9.231 12.4851 8.94108C13.7488 8.65115 15.0773 8.66418 16.3334 8.97882V2.85294C16.3334 2.2289 16.0524 1.63042 15.5523 1.18916C15.0522 0.747898 14.374 0.5 13.6667 0.5H3.00004ZM4.00004 3.44118H12.6667C12.9319 3.44118 13.1863 3.53414 13.3738 3.69961C13.5613 3.86508 13.6667 4.08951 13.6667 4.32353C13.6667 4.55754 13.5613 4.78197 13.3738 4.94745C13.1863 5.11292 12.9319 5.20588 12.6667 5.20588H4.00004C3.73482 5.20588 3.48047 5.11292 3.29293 4.94745C3.1054 4.78197 3.00004 4.55754 3.00004 4.32353C3.00004 4.08951 3.1054 3.86508 3.29293 3.69961C3.48047 3.53414 3.73482 3.44118 4.00004 3.44118ZM20.3334 15.2059C20.3334 16.61 19.7012 17.9565 18.576 18.9494C17.4508 19.9422 15.9247 20.5 14.3334 20.5C12.7421 20.5 11.216 19.9422 10.0907 18.9494C8.96552 17.9565 8.33337 16.61 8.33337 15.2059C8.33337 13.8018 8.96552 12.4552 10.0907 11.4624C11.216 10.4695 12.7421 9.91177 14.3334 9.91177C15.9247 9.91177 17.4508 10.4695 18.576 11.4624C19.7012 12.4552 20.3334 13.8018 20.3334 15.2059ZM13.6934 12.8929C13.607 12.8403 13.5065 12.8086 13.402 12.801C13.2974 12.7934 13.1924 12.81 13.0974 12.8494C13.02 12.8798 12.9498 12.9229 12.8907 12.9765C12.8286 13.0317 12.7795 13.0973 12.7463 13.1694C12.7132 13.2415 12.6965 13.3187 12.6974 13.3965V17.0141C12.6963 17.0921 12.7129 17.1695 12.7461 17.2418C12.7793 17.3141 12.8284 17.3799 12.8907 17.4353C12.9522 17.4881 13.0229 17.5317 13.1 17.5647C13.2353 17.6194 13.3888 17.6278 13.5307 17.5882C13.5923 17.5707 13.6507 17.5453 13.704 17.5129L16.7654 15.6694C16.8585 15.6152 16.9335 15.5401 16.9827 15.4518C17.0329 15.3627 17.0588 15.2644 17.0581 15.1649C17.0574 15.0654 17.0302 14.9674 16.9787 14.8788C16.9259 14.7921 16.8494 14.7185 16.756 14.6647L13.6934 12.8929Z" fill="#959595" fill-opacity="0.2"/>
<path d="M3.00004 0.5C2.2928 0.5 1.61452 0.747898 1.11442 1.18916C0.614325 1.63042 0.333374 2.2289 0.333374 2.85294V16.9706C0.333374 17.5946 0.614325 18.1931 1.11442 18.6344C1.61452 19.0756 2.2928 19.3235 3.00004 19.3235H8.67604C8.33642 18.9606 8.04268 18.5662 7.80004 18.1471H3.00004C2.64642 18.1471 2.30728 18.0231 2.05723 17.8025C1.80718 17.5819 1.66671 17.2826 1.66671 16.9706H7.27604C6.91944 15.8623 6.90467 14.6901 7.23326 13.5751C7.56184 12.4601 8.22187 11.4427 9.14514 10.628C10.0684 9.81337 11.2214 9.231 12.4851 8.94108C13.7488 8.65115 15.0773 8.66418 16.3334 8.97882V2.85294C16.3334 2.2289 16.0524 1.63042 15.5523 1.18916C15.0522 0.747898 14.374 0.5 13.6667 0.5H3.00004ZM4.00004 3.44118H12.6667C12.9319 3.44118 13.1863 3.53414 13.3738 3.69961C13.5613 3.86508 13.6667 4.08951 13.6667 4.32353C13.6667 4.55754 13.5613 4.78197 13.3738 4.94745C13.1863 5.11292 12.9319 5.20588 12.6667 5.20588H4.00004C3.73482 5.20588 3.48047 5.11292 3.29293 4.94745C3.1054 4.78197 3.00004 4.55754 3.00004 4.32353C3.00004 4.08951 3.1054 3.86508 3.29293 3.69961C3.48047 3.53414 3.73482 3.44118 4.00004 3.44118ZM20.3334 15.2059C20.3334 16.61 19.7012 17.9565 18.576 18.9494C17.4508 19.9422 15.9247 20.5 14.3334 20.5C12.7421 20.5 11.216 19.9422 10.0907 18.9494C8.96552 17.9565 8.33337 16.61 8.33337 15.2059C8.33337 13.8018 8.96552 12.4552 10.0907 11.4624C11.216 10.4695 12.7421 9.91177 14.3334 9.91177C15.9247 9.91177 17.4508 10.4695 18.576 11.4624C19.7012 12.4552 20.3334 13.8018 20.3334 15.2059ZM13.6934 12.8929C13.607 12.8403 13.5065 12.8086 13.402 12.801C13.2974 12.7934 13.1924 12.81 13.0974 12.8494C13.02 12.8798 12.9498 12.9229 12.8907 12.9765C12.8286 13.0317 12.7795 13.0973 12.7463 13.1694C12.7132 13.2415 12.6965 13.3187 12.6974 13.3965V17.0141C12.6963 17.0921 12.7129 17.1695 12.7461 17.2418C12.7793 17.3141 12.8284 17.3799 12.8907 17.4353C12.9522 17.4881 13.0229 17.5317 13.1 17.5647C13.2353 17.6194 13.3888 17.6278 13.5307 17.5882C13.5923 17.5707 13.6507 17.5453 13.704 17.5129L16.7654 15.6694C16.8585 15.6152 16.9335 15.5401 16.9827 15.4518C17.0329 15.3627 17.0588 15.2644 17.0581 15.1649C17.0574 15.0654 17.0302 14.9674 16.9787 14.8788C16.9259 14.7921 16.8494 14.7185 16.756 14.6647L13.6934 12.8929Z" fill="#959595" fill-opacity="0.2"/>
<path d="M3.00004 0.5C2.2928 0.5 1.61452 0.747898 1.11442 1.18916C0.614325 1.63042 0.333374 2.2289 0.333374 2.85294V16.9706C0.333374 17.5946 0.614325 18.1931 1.11442 18.6344C1.61452 19.0756 2.2928 19.3235 3.00004 19.3235H8.67604C8.33642 18.9606 8.04268 18.5662 7.80004 18.1471H3.00004C2.64642 18.1471 2.30728 18.0231 2.05723 17.8025C1.80718 17.5819 1.66671 17.2826 1.66671 16.9706H7.27604C6.91944 15.8623 6.90467 14.6901 7.23326 13.5751C7.56184 12.4601 8.22187 11.4427 9.14514 10.628C10.0684 9.81337 11.2214 9.231 12.4851 8.94108C13.7488 8.65115 15.0773 8.66418 16.3334 8.97882V2.85294C16.3334 2.2289 16.0524 1.63042 15.5523 1.18916C15.0522 0.747898 14.374 0.5 13.6667 0.5H3.00004ZM4.00004 3.44118H12.6667C12.9319 3.44118 13.1863 3.53414 13.3738 3.69961C13.5613 3.86508 13.6667 4.08951 13.6667 4.32353C13.6667 4.55754 13.5613 4.78197 13.3738 4.94745C13.1863 5.11292 12.9319 5.20588 12.6667 5.20588H4.00004C3.73482 5.20588 3.48047 5.11292 3.29293 4.94745C3.1054 4.78197 3.00004 4.55754 3.00004 4.32353C3.00004 4.08951 3.1054 3.86508 3.29293 3.69961C3.48047 3.53414 3.73482 3.44118 4.00004 3.44118ZM20.3334 15.2059C20.3334 16.61 19.7012 17.9565 18.576 18.9494C17.4508 19.9422 15.9247 20.5 14.3334 20.5C12.7421 20.5 11.216 19.9422 10.0907 18.9494C8.96552 17.9565 8.33337 16.61 8.33337 15.2059C8.33337 13.8018 8.96552 12.4552 10.0907 11.4624C11.216 10.4695 12.7421 9.91177 14.3334 9.91177C15.9247 9.91177 17.4508 10.4695 18.576 11.4624C19.7012 12.4552 20.3334 13.8018 20.3334 15.2059ZM13.6934 12.8929C13.607 12.8403 13.5065 12.8086 13.402 12.801C13.2974 12.7934 13.1924 12.81 13.0974 12.8494C13.02 12.8798 12.9498 12.9229 12.8907 12.9765C12.8286 13.0317 12.7795 13.0973 12.7463 13.1694C12.7132 13.2415 12.6965 13.3187 12.6974 13.3965V17.0141C12.6963 17.0921 12.7129 17.1695 12.7461 17.2418C12.7793 17.3141 12.8284 17.3799 12.8907 17.4353C12.9522 17.4881 13.0229 17.5317 13.1 17.5647C13.2353 17.6194 13.3888 17.6278 13.5307 17.5882C13.5923 17.5707 13.6507 17.5453 13.704 17.5129L16.7654 15.6694C16.8585 15.6152 16.9335 15.5401 16.9827 15.4518C17.0329 15.3627 17.0588 15.2644 17.0581 15.1649C17.0574 15.0654 17.0302 14.9674 16.9787 14.8788C16.9259 14.7921 16.8494 14.7185 16.756 14.6647L13.6934 12.8929Z" fill="#959595" fill-opacity="0.2"/>
</svg>
