<?xml version="1.0" encoding="UTF-8"?>
<svg version="1.1" xmlns="http://www.w3.org/2000/svg" width="512" height="512">
<path d="M0 0 C0.33 48.84 0.66 97.68 1 148 C24.95937904 133.45479384 24.95937904 133.45479384 48.85717773 118.81005859 C51.74485025 117.71842166 53.06837874 118.03409944 56 119 C58.35233796 120.2297731 60.59338906 121.49045544 62.85546875 122.8671875 C63.84623161 123.45851974 63.84623161 123.45851974 64.85700989 124.0617981 C66.97132595 125.32608208 69.07938699 126.60040579 71.1875 127.875 C72.55364699 128.69335885 73.92018065 129.51107257 75.28710938 130.328125 C85.5636378 136.48918317 95.77577404 142.75186192 106 149 C106 99.83 106 50.66 106 0 C127.6975 -0.061875 149.395 -0.12375 171.75 -0.1875 C178.58428711 -0.21481201 185.41857422 -0.24212402 192.45996094 -0.27026367 C200.84814453 -0.28381348 200.84814453 -0.28381348 204.78326416 -0.28633118 C207.51373995 -0.29091817 210.24378967 -0.30028733 212.97418213 -0.31672668 C217.12576955 -0.34138695 221.27705041 -0.34171369 225.42871094 -0.34057617 C227.23293329 -0.35676766 227.23293329 -0.35676766 229.07360458 -0.37328625 C243.61490012 -0.32026107 254.91875266 3.41657311 265.8125 13.1875 C274.09153383 22.02377649 277.33118869 33.78201731 277.24050903 45.59277344 C277.24307231 46.83421757 277.24307231 46.83421757 277.24568737 48.10074139 C277.24896242 50.85370941 277.2380115 53.60642971 277.22705078 56.359375 C277.22648624 58.34082534 277.22680407 60.3222761 277.22793579 62.3037262 C277.22850862 67.66882069 277.21676555 73.03382541 277.20278788 78.39889908 C277.19026892 84.01096387 277.1891091 89.62303082 277.18673706 95.23510742 C277.18052573 105.8561094 277.16411957 116.47707011 277.14403808 127.09805393 C277.12166832 139.19232038 277.11068294 151.28658882 277.10064721 163.38087082 C277.07975306 188.25393674 277.04458379 213.12696606 277 238 C276.080089 237.89452284 276.080089 237.89452284 275.14159393 237.78691483 C274.33460304 237.6955563 273.52761215 237.60419777 272.69616699 237.5100708 C271.89726799 237.41912769 271.09836899 237.32818459 270.27526093 237.23448563 C237.48385628 233.85504331 203.89201401 242.05230998 177.828125 262.6328125 C156.2595407 280.68607505 141.3733578 301.58800234 133.1875 328.6875 C132.9925293 329.3273584 132.79755859 329.9672168 132.59667969 330.62646484 C126.51792785 352.00930532 127.13475424 375.67270344 133 397 C133.18723633 397.68481445 133.37447266 398.36962891 133.56738281 399.07519531 C135.99809754 407.65196593 139.48873296 415.42756645 143.64453125 423.26953125 C145 426 145 426 145 428 C122.92891156 428.07021118 100.85784164 428.12304739 78.78666401 428.15543652 C68.53766957 428.17087787 58.2887447 428.19191497 48.03979492 428.22631836 C39.10245804 428.25630456 30.16517156 428.27559484 21.22778577 428.28226548 C16.49945818 428.28616217 11.77127474 428.2952625 7.04299355 428.31719017 C2.58362476 428.33770127 -1.87554183 428.34380454 -6.33495331 428.33932304 C-7.96302454 428.34014175 -9.59110324 428.34601969 -11.21913338 428.35761642 C-27.29917163 428.46644401 -41.02834779 426.58691641 -53.25 415.3125 C-63.73630989 404.21059701 -65.30279976 392.22347408 -65.26742554 377.60357666 C-65.27116547 376.13679323 -65.27576835 374.67001179 -65.28115618 373.20323348 C-65.29335925 369.18549236 -65.2931289 365.16783467 -65.29076743 361.15007925 C-65.29035858 356.81183185 -65.3014049 352.47361096 -65.31088257 348.13537598 C-65.32747873 339.64071091 -65.33299149 331.14607361 -65.33410732 322.65139368 C-65.33505845 315.74474174 -65.33917197 308.83809894 -65.34550858 301.93144989 C-65.36311717 282.33933828 -65.37234804 262.74724856 -65.37084763 243.15512899 C-65.37076772 242.09943447 -65.3706878 241.04373995 -65.37060547 239.95605469 C-65.37052371 238.89906757 -65.37044195 237.84208044 -65.37035771 236.75306341 C-65.3695449 219.62534589 -65.38868214 202.49771632 -65.4168822 185.37002423 C-65.44562558 167.77315365 -65.4594217 150.17632595 -65.45769465 132.5794313 C-65.45703125 122.70424544 -65.46250148 112.8291518 -65.48405075 102.95398712 C-65.50228166 94.54577224 -65.50659419 86.13769139 -65.4930319 77.72946528 C-65.48651191 73.4423651 -65.48634988 69.15552191 -65.5037384 64.86844635 C-65.51951726 60.93768247 -65.51655689 57.00737831 -65.49917014 53.07662532 C-65.49611078 51.66077667 -65.49969223 50.24489329 -65.51089029 48.82908562 C-65.61333034 34.94905152 -62.65760029 23.11323485 -52.96484375 12.84375 C-37.41080184 -1.85989456 -21.83767442 0 0 0 Z " fill="#000000" transform="translate(150,42)"/>
<path d="M0 0 C3.94507626 1.5780305 7.21671955 3.18381352 10.84765625 5.31640625 C11.40757263 5.6443367 11.96748901 5.97226715 12.54437256 6.31013489 C14.38598605 7.39049954 16.22434289 8.47626649 18.0625 9.5625 C19.36609271 10.32965246 20.66972291 11.09674122 21.97338867 11.86376953 C31.77957839 17.64389099 41.51765274 23.53196007 51.2331543 29.46313477 C57.5913732 33.34160518 63.96957008 37.1830575 70.37890625 40.9765625 C71.08757339 41.39610199 71.79624054 41.81564148 72.52638245 42.24789429 C75.9536416 44.27550176 79.38318635 46.29912832 82.81567383 48.31787109 C91.34405033 53.34674942 99.70994793 58.58739414 108 64 C104.35086439 67.0559117 100.59902388 69.5412238 96.49609375 71.94921875 C95.55613304 72.50359367 95.55613304 72.50359367 94.59718323 73.06916809 C93.24925332 73.86381009 91.90033964 74.65678527 90.55053711 75.44824219 C86.92325986 77.57557429 83.30367002 79.71591322 79.68359375 81.85546875 C78.94781097 82.28999359 78.2120282 82.72451843 77.45394897 83.17221069 C70.60089803 87.22449151 63.79588757 91.35278879 57 95.5 C45.32900963 102.61516093 33.59338097 109.61735439 21.83203125 116.58203125 C21.189776 116.96235504 20.54752075 117.34267883 19.88580322 117.73452759 C18.64134594 118.47119415 17.39668245 119.2075125 16.15179443 119.94345093 C11.66879987 122.59576012 7.20860109 125.28414403 2.76220703 127.99731445 C1 129 1 129 0 129 C0 86.43 0 43.86 0 0 Z " fill="#000000" transform="translate(362,341)"/>
</svg>
