<svg width="20" height="21" viewBox="0 0 20 21" fill="none" xmlns="http://www.w3.org/2000/svg">
<path d="M10 0.5C4.477 0.5 0 4.977 0 10.5C0 16.023 4.477 20.5 10 20.5C15.523 20.5 20 16.023 20 10.5C20 4.977 15.523 0.5 10 0.5ZM6.25 10.5C6.25 10.8315 6.1183 11.1495 5.88388 11.3839C5.64946 11.6183 5.33152 11.75 5 11.75C4.66848 11.75 4.35054 11.6183 4.11612 11.3839C3.8817 11.1495 3.75 10.8315 3.75 10.5C3.75 10.1685 3.8817 9.85054 4.11612 9.61612C4.35054 9.3817 4.66848 9.25 5 9.25C5.33152 9.25 5.64946 9.3817 5.88388 9.61612C6.1183 9.85054 6.25 10.1685 6.25 10.5ZM11.25 10.5C11.25 10.8315 11.1183 11.1495 10.8839 11.3839C10.6495 11.6183 10.3315 11.75 10 11.75C9.66848 11.75 9.35054 11.6183 9.11612 11.3839C8.8817 11.1495 8.75 10.8315 8.75 10.5C8.75 10.1685 8.8817 9.85054 9.11612 9.61612C9.35054 9.3817 9.66848 9.25 10 9.25C10.3315 9.25 10.6495 9.3817 10.8839 9.61612C11.1183 9.85054 11.25 10.1685 11.25 10.5ZM16.25 10.5C16.25 10.8315 16.1183 11.1495 15.8839 11.3839C15.6495 11.6183 15.3315 11.75 15 11.75C14.6685 11.75 14.3505 11.6183 14.1161 11.3839C13.8817 11.1495 13.75 10.8315 13.75 10.5C13.75 10.1685 13.8817 9.85054 14.1161 9.61612C14.3505 9.3817 14.6685 9.25 15 9.25C15.3315 9.25 15.6495 9.3817 15.8839 9.61612C16.1183 9.85054 16.25 10.1685 16.25 10.5Z" fill="#959595"/>
</svg>
