<?xml version="1.0" standalone="no"?>
<svg version="1.1" id="Layer_1" xmlns="http://www.w3.org/2000/svg" xmlns:xlink="http://www.w3.org/1999/xlink" x="0px" y="0px" width="595.28px" height="595.28px" viewBox="0 0 595.28 595.28" enable-background="new 0 0 595.28 595.28" xml:space="preserve">
<path id="color_x5F_2" fill="#FBC02D" d="M323.952,88.862c-0.099-0.011-0.199-0.003-0.299-0.005l0.226-0.364l0.119,0.372
	C323.982,88.864,323.967,88.862,323.952,88.862z M315.475,103.385c0.765,0.538,1.934,1.092,2.402,1.943
	c0.113,0.207-0.254,0.494-0.762,0.718c-0.75,2.133-2.489,6.259-1.701,7.74c0.205,0.191,0.452,0.261,0.726,0.243l2.18-1.09
	c0.263-0.19,0.507-0.37,0.714-0.508c0.919-0.61,1.826-1.284,2.781-1.857c0.146-0.344,1.069-0.752,1.798-0.881l0.267-0.2l0.193,0.161
	c0.033,0.001,0.066,0.004,0.098,0.008c0.563,0.015,1.027,0.233,1.04,0.533c1.144,0.723,2.149,1.69,3.218,2.504
	c0.814,0.621,1.698,1.358,2.673,1.712c0.049,0.018,0.075,0.024,0.116,0.038c0.096-0.198,0.172-0.408,0.198-0.616
	c0.207-1.657-0.469-3.405-1.038-4.93c-0.342-0.916-1.049-2.103-0.91-3.112c0.039-0.28,0.457-0.532,0.963-0.696
	c0.589-0.703,1.376-1.322,1.979-1.964c0.855-0.912,2.51-2.318,2.734-3.629c0.218-1.274-4.627-1.019-7.331-0.937
	c-0.601,0.184-1.255,0.243-1.562-0.005c-0.017-0.002-0.043-0.002-0.058-0.005c-0.536-0.088-0.657-0.511-0.41-0.882
	c-0.556-1.275-0.843-2.708-1.299-4c-0.292-0.831-0.595-1.691-1.061-2.444c-0.134-0.217-0.293-0.433-0.472-0.629
	c-0.045,0.076-0.106,0.142-0.147,0.22c-0.42,0.805-0.747,1.651-1.032,2.513c-0.413,1.25-0.707,2.633-1.265,3.851
	c0.243,0.148,0.009,0.477-0.41,0.751c-0.563,0.515-2.302,0.675-2.676,0.489c-1.001-0.031-2.005-0.17-2.998-0.256
	c-0.913-0.079-1.933-0.24-2.842-0.065c-0.356,0.069-0.03,1.467,0.103,1.712C312.512,101.338,314.087,102.409,315.475,103.385z
	 M331.426,114.517C331.82,114.629,331.662,114.496,331.426,114.517L331.426,114.517z M366.287,114.517
	C366.682,114.629,366.523,114.496,366.287,114.517L366.287,114.517z M350.336,103.385c0.765,0.537,1.935,1.091,2.402,1.943
	c0.113,0.207-0.254,0.494-0.762,0.718c-0.75,2.134-2.49,6.26-1.701,7.74c0.248,0.23,0.557,0.287,0.898,0.225l1.669-0.834
	c0.393-0.272,0.759-0.551,1.052-0.746c0.918-0.61,1.825-1.284,2.782-1.858c0.157-0.372,1.225-0.819,1.97-0.907l0.232-0.174
	l0.202,0.168c0.54,0.026,0.979,0.242,0.99,0.533c1.144,0.723,2.149,1.69,3.218,2.504c0.814,0.621,1.698,1.358,2.673,1.712
	c0.049,0.018,0.075,0.024,0.116,0.038c0.096-0.198,0.172-0.408,0.198-0.616c0.208-1.657-0.469-3.405-1.038-4.93
	c-0.342-0.916-1.048-2.102-0.91-3.112c0.038-0.28,0.457-0.532,0.963-0.696c0.589-0.702,1.376-1.322,1.979-1.963
	c0.856-0.912,2.511-2.318,2.734-3.629c0.217-1.275-4.628-1.019-7.331-0.937c-0.601,0.184-1.256,0.243-1.563-0.005
	c-0.016-0.002-0.042-0.002-0.056-0.004c-0.535-0.088-0.657-0.511-0.411-0.881c-0.556-1.275-0.843-2.709-1.298-4.001
	c-0.293-0.831-0.595-1.691-1.061-2.444c-0.134-0.217-0.294-0.433-0.472-0.63c-0.045,0.077-0.107,0.142-0.148,0.221
	c-0.419,0.805-0.746,1.651-1.031,2.513c-0.413,1.249-0.707,2.633-1.265,3.85c0.245,0.148,0.008,0.479-0.414,0.754
	c-0.566,0.513-2.299,0.672-2.673,0.487c-1.001-0.031-2.005-0.17-2.998-0.256c-0.912-0.079-1.932-0.24-2.841-0.065
	c-0.354,0.068-0.031,1.466,0.103,1.712C347.373,101.338,348.949,102.409,350.336,103.385z M359,88.873l-0.121-0.38l-0.224,0.361
	c0.053,0.003,0.106,0.002,0.159,0.008C358.877,88.863,358.938,88.868,359,88.873z M394.003,88.881l-0.124-0.388l-0.227,0.364
	c0.008,0,0.015,0.004,0.021,0.005C393.784,88.864,393.895,88.868,394.003,88.881z M397.533,98.564
	c-0.602,0.184-1.256,0.243-1.563-0.005c-0.015-0.002-0.04-0.002-0.054-0.004c-0.534-0.087-0.657-0.509-0.412-0.879
	c-0.556-1.276-0.844-2.71-1.299-4.003c-0.292-0.831-0.594-1.691-1.06-2.444c-0.134-0.217-0.294-0.433-0.472-0.63
	c-0.045,0.077-0.107,0.142-0.148,0.221c-0.419,0.805-0.746,1.651-1.031,2.513c-0.413,1.25-0.707,2.633-1.265,3.851
	c0.243,0.148,0.01,0.476-0.409,0.751c-0.563,0.516-2.303,0.676-2.677,0.49c-1.002-0.031-2.005-0.17-2.998-0.256
	c-0.913-0.079-1.933-0.24-2.842-0.065c-0.356,0.069-0.03,1.467,0.103,1.712c0.828,1.523,2.403,2.595,3.791,3.57
	c0.765,0.538,1.934,1.092,2.402,1.943c0.113,0.207-0.254,0.494-0.762,0.718c-0.751,2.132-2.49,6.256-1.704,7.738
	c0.318,0.298,0.739,0.304,1.196,0.149l0.938-0.469c0.554-0.346,1.089-0.768,1.488-1.034c0.918-0.61,1.824-1.283,2.78-1.857
	c0.167-0.399,1.384-0.884,2.126-0.919l0.217-0.163l0.221,0.184c0.466,0.057,0.822,0.256,0.833,0.518
	c1.144,0.724,2.149,1.691,3.218,2.504c0.814,0.621,1.698,1.358,2.673,1.712c0.049,0.018,0.075,0.024,0.116,0.038
	c0.096-0.198,0.172-0.408,0.198-0.616c0.207-1.657-0.469-3.405-1.038-4.93c-0.342-0.916-1.049-2.103-0.91-3.112
	c0.039-0.28,0.457-0.532,0.963-0.696c0.589-0.703,1.376-1.322,1.979-1.964c0.855-0.912,2.51-2.318,2.734-3.629
	C405.083,98.226,400.235,98.482,397.533,98.564z M401.148,114.517C401.543,114.629,401.385,114.496,401.148,114.517L401.148,114.517
	z M428.879,88.493l-0.232,0.375c0.122,0.006,0.244,0.019,0.365,0.039L428.879,88.493z M432.395,98.564
	c-0.601,0.184-1.256,0.243-1.563-0.005c-0.016-0.002-0.042-0.002-0.056-0.004c-0.535-0.088-0.657-0.511-0.411-0.881
	c-0.556-1.275-0.843-2.709-1.299-4.001c-0.292-0.831-0.594-1.691-1.06-2.444c-0.129-0.208-0.28-0.417-0.448-0.607l-0.309,0.496
	c-0.35,0.716-0.644,1.458-0.895,2.215c-0.413,1.25-0.707,2.634-1.265,3.851c0.243,0.148,0.009,0.477-0.411,0.752
	c-0.563,0.515-2.301,0.674-2.675,0.489c-1.001-0.031-2.005-0.17-2.999-0.256c-0.912-0.079-1.932-0.24-2.841-0.065
	c-0.356,0.069-0.031,1.467,0.103,1.712c0.828,1.523,2.404,2.595,3.791,3.57c0.765,0.537,1.935,1.091,2.402,1.943
	c0.113,0.207-0.254,0.494-0.762,0.718c-0.75,2.133-2.49,6.259-1.702,7.74c0.905,0.843,2.655-0.714,3.62-1.355
	c0.919-0.611,1.826-1.284,2.782-1.858c0.181-0.426,1.55-0.947,2.265-0.919l0.215-0.162l0.255,0.212
	c0.378,0.081,0.649,0.261,0.659,0.488c1.145,0.724,2.15,1.691,3.219,2.505c0.814,0.621,1.697,1.358,2.672,1.712
	c0.049,0.018,0.074,0.024,0.116,0.038c0.097-0.198,0.173-0.408,0.199-0.616c0.207-1.657-0.469-3.405-1.038-4.93
	c-0.342-0.916-1.049-2.103-0.91-3.112c0.039-0.28,0.457-0.531,0.961-0.695c0.59-0.703,1.378-1.323,1.98-1.964
	c0.855-0.912,2.511-2.318,2.734-3.629C439.943,98.226,435.098,98.482,432.395,98.564z M436.009,114.517
	C436.403,114.629,436.244,114.496,436.009,114.517L436.009,114.517z M466.477,98.564c-0.602,0.184-1.256,0.243-1.563-0.005
	c-0.017-0.002-0.043-0.002-0.057-0.004c-0.535-0.088-0.657-0.51-0.41-0.881c-0.556-1.276-0.844-2.709-1.299-4.001
	c-0.293-0.831-0.595-1.691-1.061-2.444c-0.137-0.222-0.301-0.441-0.483-0.641c-0.046,0.078-0.095,0.152-0.137,0.232
	c-0.419,0.805-0.746,1.651-1.031,2.513c-0.413,1.25-0.707,2.634-1.265,3.851c0.242,0.148,0.008,0.477-0.411,0.751
	c-0.563,0.515-2.301,0.675-2.675,0.489c-1.002-0.031-2.006-0.17-2.998-0.256c-0.912-0.079-1.934-0.24-2.842-0.065
	c-0.356,0.069-0.031,1.467,0.102,1.712c0.829,1.523,2.404,2.595,3.791,3.57c0.765,0.537,1.935,1.091,2.402,1.943
	c0.113,0.207-0.254,0.494-0.762,0.718c-0.75,2.133-2.489,6.259-1.701,7.739c0.373,0.348,0.889,0.294,1.437,0.056l0.369-0.185
	c0.665-0.366,1.336-0.908,1.813-1.226c0.92-0.611,1.826-1.285,2.783-1.858c0.174-0.411,1.453-0.911,2.187-0.921l0.212-0.159
	l0.229,0.191c0.433,0.067,0.755,0.261,0.766,0.509c1.144,0.724,2.149,1.691,3.218,2.505c0.814,0.621,1.699,1.358,2.674,1.712
	c0.049,0.018,0.074,0.024,0.116,0.038c0.096-0.198,0.172-0.408,0.198-0.616c0.207-1.657-0.469-3.405-1.038-4.93
	c-0.342-0.916-1.049-2.103-0.909-3.112c0.038-0.28,0.455-0.531,0.96-0.695c0.589-0.703,1.377-1.323,1.979-1.964
	c0.856-0.912,2.512-2.318,2.735-3.629C474.025,98.227,469.18,98.482,466.477,98.564z M470.091,114.517
	C470.484,114.629,470.326,114.496,470.091,114.517L470.091,114.517z M462.879,88.493l-0.23,0.371
	c0.12,0.003,0.239,0.011,0.357,0.027L462.879,88.493z M224.121,158.176c-6.025-2.301-11.451-5.758-15.957-10.326
	c-0.076,3.124,1.436,6.109,3.843,8.31C215.123,159.008,220.705,161.882,224.121,158.176z M243.213,530.492h0.271
	c-0.143-0.035-0.253-0.098-0.326-0.189C243.193,530.424,243.213,530.492,243.213,530.492z M274.184,498.571
	c0.398,6.389,1.027,12.76,1.959,19.09l-1.597-15.169C274.546,502.492,274.402,500.95,274.184,498.571z M317.07,302.224
	c-0.064,0.027-0.128,0.055-0.191,0.082c0.04,0.04,0.08,0.079,0.12,0.118c7.549,7.41,15.147,14.985,22.295,22.943l-4.748-6.209
	l-17.099-17.096C317.321,302.116,317.195,302.17,317.07,302.224z M374.951,438.912c2.159-13.267,3.107-25.576,1.76-34.682
	C377.27,415.781,376.324,427.535,374.951,438.912z M316.036,305.127c-0.483-0.477-0.968-0.953-1.452-1.429
	c-0.097-0.095-0.192-0.189-0.289-0.284c-0.807,0.344-1.611,0.692-2.417,1.037c-26.937,11.499-53.901,22.935-80.873,34.353
	c-0.246,0.692-0.458,1.395-0.639,2.108c-0.5,1.986-0.909,3.996-1.27,6.012c-1.164,6.505-2.049,13.062-2.807,19.626
	c-1.831,15.846-3.258,31.876-3.118,47.843c0.165,18.836,2.686,37.943,6.055,56.452c3.643,20.016,8.682,39.878,16.769,58.595
	c0.173,0.401-0.827,0.908-1.707,1.052h31.13c-4.189-19.417-5.147-39.496-4.605-59.31c0.457-16.678,1.588-33.44,5.002-49.798
	c0.354-1.696,0.719-3.391,1.092-5.084c2.295-13.116,6.552-28.185,10.453-38.75c0.699-2.508,1.999-6.833,3.668-9.401
	c-0.228-0.201-0.442-0.414-0.672-0.613c-0.305-0.264-0.198-0.567,0.104-0.828c0.443-0.383,1.317-0.67,1.979-0.594
	c0.174,0.02,0.331,0.066,0.463,0.142c0.615-0.29,1.259-0.265,1.926,0.201c0.263,0.184-0.173,0.538-0.779,0.808
	c0.029,0.025,0.058,0.052,0.086,0.078c0.015-0.019,0.014-0.014,0.004,0.003c9.387,8.376,17.238,18.433,22.954,29.658
	c6.905,13.562,9.946,28.578,11.742,43.616c3.585,30.005,1.276,60.151-2.435,90.024l22.814,1.85l2.229-6.241
	c-0.308-0.014-0.507-0.076-0.461-0.196c9.775-25.615,16.802-52.403,20.204-79.628c2.855-22.848,5.561-48.199-2.767-70.221
	C357.729,347.935,337.16,325.954,316.036,305.127z M362.096,355.894c-0.965-1.835-1.55-2.735-1.55-2.735l-0.412-0.539
	C360.803,353.702,361.455,354.794,362.096,355.894z M323.742,427.02c-1.336-7.184-3.129-14.287-5.794-21.047
	C320.012,412.887,321.999,420.141,323.742,427.02z M278.502,226.639c3.116-1.379,6.068-3.055,8.607-5.226
	c0-0.001-0.001-0.003-0.001-0.004C285.272,222.572,281.919,224.664,278.502,226.639z M228.007,254.774
	c15.803-6.672,31.651-13.237,47.505-19.789c8.415-3.478,16.83-6.959,25.236-10.46c-0.173-0.061-0.289-0.163-0.312-0.315
	c-2.537-17.594-8.462-35.273-16.002-51.333c-0.03-0.065-0.028-0.132-0.013-0.199c-2.491-0.32-4.998-0.576-7.518-0.773
	c7.904,15.407,13.541,31.571,13.104,49.096c-0.014,0.533-0.72,0.936-1.434,1.054c-4.46,3.44-9.929,5.653-15.335,7.465
	c-0.721,0.365-1.405,0.695-2.029,0.973c-2.037,0.906-5.536,1.734-9.268,2.433c-5.711,1.511-11.527,2.694-17.367,3.423
	c-1.885,0.235,0.609-0.969,1.285-1.054c0.84-0.105,1.679-0.222,2.518-0.347c-1.147,0.137-1.835,0.211-1.835,0.211
	s-0.021-0.125-0.062-0.364c-0.64,0.747-2.707,0.979-2.72-0.152c-0.122-10.734-3.786-19.512-7.866-29.25
	c-3.641-8.686-10.413-15.523-14.291-24.048c-2.098,1.35-4.158,2.751-6.174,4.213l-2.301,1.808
	C227.345,206.03,230.576,232.027,228.007,254.774z M275.422,169.972l-0.878-0.146l0.033,0.093
	C274.859,169.935,275.141,169.955,275.422,169.972z"></path>
<path id="color_x5F_1" d="M471.652,105.43c0.255-0.256,0.511-0.511,0.765-0.768c0.7-0.707,1.384-1.431,2.044-2.176
	c0.923-1.041,2.306-2.401,2.274-3.897c-0.032-1.535-3.125-1.705-4.087-1.761c-1.721-0.1-3.538,0.306-5.266,0.201
	c-0.954-2.009-1.229-4.353-2.266-6.344c-0.189-0.363-0.42-0.65-0.666-0.903c0.094-0.104,0.115-0.197,0.033-0.262
	c-0.454-0.359-0.959-0.556-1.479-0.628c-0.118-0.016-0.237-0.024-0.357-0.027c-0.01,0-0.021-0.001-0.031-0.002
	c-1.033-0.115-2.165,0.262-3.158,1.047c-0.322,0.254-0.348,0.417-0.209,0.515c-0.192,0.21-0.364,0.435-0.51,0.669
	c-1.148,1.857-1.385,4.111-2.193,6.103c-3.142-0.187-7.126-1.488-9.124,1.425c-1.011,1.473,0.926,3.313,1.886,4.169
	c0.835,0.744,1.769,1.38,2.684,2.02c0.325,0.228,0.816,0.495,1.199,0.807c-0.338,1.876-2.247,5.403-2.21,7.748
	c-0.165,0.168-0.249,0.355-0.187,0.547c1.512,4.691,7.85-0.294,11.054-2.323c3.048,2.05,5.578,5.783,9.638,3.677
	c1.752-0.909,1.655-2.825,1.287-4.502c-0.249-1.139-0.683-2.24-1.093-3.328c-0.146-0.386-0.454-0.958-0.604-1.479
	c0.157-0.092,0.286-0.196,0.361-0.314C471.212,105.994,471.578,105.506,471.652,105.43z M455.515,113.841
	c-0.548,0.238-1.063,0.292-1.437-0.056c-0.788-1.48,0.951-5.606,1.701-7.739c0.508-0.224,0.875-0.511,0.762-0.718
	c-0.468-0.852-1.638-1.406-2.402-1.943c-1.387-0.976-2.962-2.047-3.791-3.57c-0.133-0.246-0.458-1.644-0.102-1.712
	c0.908-0.175,1.93-0.014,2.842,0.065c0.992,0.086,1.996,0.225,2.998,0.256c0.374,0.186,2.112,0.025,2.675-0.489
	c0.419-0.275,0.653-0.603,0.411-0.751c0.558-1.217,0.852-2.601,1.265-3.851c0.285-0.861,0.612-1.708,1.031-2.513
	c0.042-0.08,0.091-0.154,0.137-0.232c0.183,0.2,0.347,0.419,0.483,0.641c0.466,0.752,0.768,1.613,1.061,2.444
	c0.455,1.292,0.743,2.726,1.299,4.001c-0.247,0.371-0.125,0.793,0.41,0.881c0.014,0.002,0.04,0.002,0.057,0.004
	c0.307,0.249,0.961,0.189,1.563,0.005c2.703-0.082,7.549-0.337,7.331,0.937c-0.224,1.312-1.879,2.718-2.735,3.629
	c-0.603,0.642-1.391,1.262-1.979,1.964c-0.505,0.164-0.922,0.415-0.96,0.695c-0.14,1.01,0.567,2.197,0.909,3.112
	c0.569,1.525,1.245,3.273,1.038,4.93c-0.026,0.208-0.103,0.418-0.198,0.616c-0.042-0.014-0.067-0.021-0.116-0.038
	c-0.975-0.354-1.859-1.092-2.674-1.712c-1.068-0.813-2.074-1.781-3.218-2.505c-0.011-0.248-0.333-0.442-0.766-0.509
	c-0.087-0.013-0.179-0.02-0.272-0.022c-0.053-0.007-0.107-0.01-0.169-0.009c-0.733,0.01-2.013,0.51-2.187,0.921
	c-0.957,0.574-1.863,1.248-2.783,1.858c-0.478,0.318-1.148,0.86-1.813,1.226C455.76,113.725,455.637,113.788,455.515,113.841z
	 M470.091,114.517C470.326,114.496,470.484,114.629,470.091,114.517L470.091,114.517z M438.567,96.828
	c-1.72-0.1-3.538,0.306-5.267,0.201c-0.954-2.009-1.228-4.354-2.265-6.344c-0.189-0.363-0.419-0.65-0.665-0.902
	c0.094-0.104,0.115-0.197,0.033-0.263c-0.43-0.339-0.904-0.531-1.393-0.612c-0.121-0.02-0.243-0.033-0.365-0.039
	c-0.037-0.002-0.074-0.006-0.11-0.006c-1.032-0.115-2.165,0.262-3.157,1.047c-0.322,0.254-0.348,0.417-0.209,0.515
	c-0.193,0.21-0.365,0.435-0.511,0.669c-1.149,1.857-1.385,4.11-2.192,6.103c-3.143-0.187-7.127-1.487-9.125,1.425
	c-1.011,1.474,0.926,3.313,1.887,4.169c0.835,0.744,1.768,1.38,2.683,2.02c0.326,0.228,0.817,0.495,1.2,0.807
	c-0.338,1.876-2.247,5.404-2.211,7.748c-0.165,0.168-0.248,0.355-0.187,0.548c1.513,4.691,7.851-0.294,11.054-2.323
	c3.048,2.05,5.576,5.782,9.637,3.677c1.752-0.909,1.656-2.825,1.289-4.502c-0.25-1.139-0.684-2.24-1.094-3.328
	c-0.146-0.386-0.455-0.958-0.604-1.479c0.156-0.092,0.285-0.196,0.361-0.314c-0.227,0.352,0.139-0.136,0.215-0.212
	c0.254-0.256,0.51-0.511,0.764-0.768c0.701-0.707,1.384-1.431,2.044-2.176c0.923-1.041,2.307-2.401,2.274-3.897
	C442.621,97.053,439.53,96.883,438.567,96.828z M436.992,103.13c-0.603,0.642-1.391,1.262-1.98,1.964
	c-0.504,0.164-0.922,0.415-0.961,0.695c-0.139,1.01,0.568,2.197,0.91,3.112c0.569,1.525,1.245,3.273,1.038,4.93
	c-0.026,0.208-0.103,0.418-0.199,0.616c-0.042-0.014-0.067-0.021-0.116-0.038c-0.975-0.354-1.857-1.092-2.672-1.712
	c-1.068-0.813-2.074-1.781-3.219-2.505c-0.01-0.227-0.281-0.407-0.659-0.488c-0.12-0.026-0.249-0.041-0.384-0.044
	c-0.027-0.003-0.057-0.005-0.086-0.006c-0.715-0.028-2.084,0.493-2.265,0.919c-0.956,0.574-1.863,1.247-2.782,1.858
	c-0.965,0.641-2.715,2.198-3.62,1.355c-0.788-1.48,0.952-5.606,1.702-7.74c0.508-0.224,0.875-0.511,0.762-0.718
	c-0.468-0.852-1.638-1.406-2.402-1.943c-1.387-0.976-2.963-2.047-3.791-3.57c-0.134-0.246-0.459-1.644-0.103-1.712
	c0.909-0.175,1.929-0.014,2.841,0.065c0.994,0.086,1.998,0.225,2.999,0.256c0.374,0.186,2.112,0.026,2.675-0.489
	c0.42-0.275,0.654-0.604,0.411-0.752c0.558-1.217,0.852-2.601,1.265-3.851c0.251-0.758,0.545-1.499,0.895-2.215
	c0.049-0.098,0.086-0.201,0.137-0.297c0.041-0.08,0.091-0.155,0.137-0.232c0.011,0.012,0.023,0.021,0.035,0.034
	c0.168,0.191,0.319,0.399,0.448,0.607c0.466,0.752,0.768,1.613,1.06,2.444c0.456,1.292,0.743,2.726,1.299,4.001
	c-0.246,0.371-0.124,0.793,0.411,0.881c0.014,0.002,0.04,0.002,0.056,0.004c0.307,0.249,0.962,0.189,1.563,0.005
	c2.703-0.082,7.549-0.338,7.332,0.937C439.503,100.813,437.848,102.219,436.992,103.13z M436.009,114.517
	C436.244,114.496,436.403,114.629,436.009,114.517L436.009,114.517z M380.367,102.79c0.835,0.744,1.768,1.38,2.683,2.02
	c0.326,0.228,0.817,0.495,1.199,0.807c-0.338,1.876-2.247,5.404-2.21,7.748c-0.165,0.168-0.248,0.355-0.187,0.547
	c1.513,4.691,7.85-0.294,11.054-2.323c3.048,2.049,5.578,5.782,9.638,3.676c1.752-0.909,1.656-2.825,1.288-4.502
	c-0.25-1.139-0.683-2.24-1.094-3.328c-0.146-0.386-0.455-0.958-0.604-1.479c0.157-0.092,0.287-0.197,0.362-0.314
	c-0.226,0.352,0.139-0.136,0.214-0.212c0.255-0.256,0.51-0.511,0.765-0.768c0.7-0.707,1.383-1.431,2.043-2.176
	c0.923-1.041,2.306-2.401,2.274-3.897c-0.033-1.535-3.125-1.705-4.087-1.761c-1.72-0.1-3.539,0.306-5.267,0.201
	c-0.954-2.009-1.229-4.354-2.265-6.344c-0.189-0.363-0.419-0.65-0.665-0.902c0.094-0.104,0.115-0.197,0.033-0.263
	c-0.473-0.374-0.998-0.575-1.54-0.638c-0.108-0.013-0.219-0.017-0.329-0.019c-0.007-0.001-0.014-0.004-0.021-0.005
	c-1.026-0.107-2.149,0.273-3.135,1.052c-0.322,0.254-0.348,0.417-0.209,0.515c-0.192,0.21-0.365,0.435-0.51,0.669
	c-1.15,1.857-1.387,4.11-2.193,6.103c-3.143-0.187-7.127-1.488-9.125,1.425C377.47,100.094,379.407,101.934,380.367,102.79z
	 M386.33,113.934c-0.457,0.154-0.878,0.148-1.196-0.149c-0.786-1.481,0.953-5.605,1.704-7.738c0.508-0.224,0.875-0.511,0.762-0.718
	c-0.469-0.852-1.638-1.406-2.402-1.943c-1.388-0.976-2.963-2.047-3.791-3.57c-0.133-0.245-0.459-1.644-0.103-1.712
	c0.909-0.175,1.929-0.014,2.842,0.065c0.993,0.086,1.996,0.225,2.998,0.256c0.374,0.187,2.114,0.026,2.677-0.49
	c0.419-0.275,0.652-0.603,0.409-0.751c0.558-1.217,0.852-2.601,1.265-3.851c0.285-0.861,0.612-1.708,1.031-2.513
	c0.041-0.079,0.104-0.144,0.148-0.221c0.178,0.197,0.338,0.413,0.472,0.63c0.466,0.752,0.768,1.613,1.06,2.444
	c0.455,1.292,0.743,2.727,1.299,4.003c-0.245,0.37-0.122,0.792,0.412,0.879c0.014,0.002,0.039,0.002,0.054,0.004
	c0.308,0.249,0.962,0.189,1.563,0.005c2.702-0.082,7.55-0.338,7.332,0.937c-0.225,1.312-1.879,2.718-2.734,3.629
	c-0.603,0.642-1.39,1.261-1.979,1.964c-0.506,0.164-0.924,0.416-0.963,0.696c-0.139,1.01,0.568,2.197,0.91,3.112
	c0.569,1.525,1.245,3.273,1.038,4.93c-0.026,0.208-0.103,0.418-0.198,0.616c-0.041-0.014-0.067-0.021-0.116-0.038
	c-0.975-0.354-1.858-1.092-2.673-1.712c-1.068-0.813-2.074-1.78-3.218-2.504c-0.011-0.261-0.367-0.461-0.833-0.518
	c-0.068-0.008-0.137-0.014-0.209-0.015c-0.068-0.008-0.146-0.01-0.229-0.006c-0.742,0.035-1.959,0.52-2.126,0.919
	c-0.956,0.574-1.862,1.247-2.78,1.857c-0.399,0.266-0.935,0.688-1.488,1.034C386.953,113.661,386.635,113.831,386.33,113.934z
	 M401.148,114.517C401.385,114.496,401.543,114.629,401.148,114.517L401.148,114.517z M345.506,102.79
	c0.835,0.744,1.768,1.38,2.683,2.02c0.326,0.228,0.817,0.495,1.2,0.807c-0.338,1.876-2.246,5.403-2.21,7.748
	c-0.166,0.168-0.249,0.355-0.188,0.548c1.513,4.691,7.851-0.294,11.054-2.323c3.049,2.05,5.577,5.783,9.638,3.677
	c1.752-0.909,1.656-2.825,1.288-4.502c-0.25-1.139-0.683-2.24-1.094-3.328c-0.146-0.386-0.455-0.958-0.604-1.478
	c0.157-0.092,0.286-0.197,0.362-0.315c-0.227,0.352,0.14-0.136,0.214-0.212c0.255-0.256,0.511-0.511,0.765-0.768
	c0.7-0.707,1.384-1.431,2.044-2.176c0.922-1.041,2.306-2.401,2.273-3.897c-0.033-1.536-3.124-1.705-4.087-1.761
	c-1.72-0.1-3.538,0.306-5.266,0.201c-0.954-2.009-1.229-4.353-2.265-6.344c-0.189-0.363-0.42-0.65-0.666-0.903
	c0.094-0.104,0.115-0.197,0.033-0.262c-0.514-0.406-1.091-0.603-1.682-0.646c-0.062-0.004-0.123-0.01-0.186-0.011
	c-0.053-0.006-0.106-0.005-0.159-0.008c-0.989-0.062-2.058,0.311-2.999,1.055c-0.322,0.254-0.348,0.418-0.209,0.515
	c-0.192,0.21-0.365,0.435-0.51,0.669c-1.149,1.857-1.386,4.111-2.194,6.103c-3.142-0.187-7.128-1.488-9.123,1.425
	C342.61,100.095,344.545,101.933,345.506,102.79z M351.174,114.012c-0.342,0.062-0.65,0.005-0.898-0.225
	c-0.789-1.48,0.951-5.606,1.701-7.74c0.508-0.224,0.875-0.511,0.762-0.718c-0.468-0.852-1.638-1.406-2.402-1.943
	c-1.387-0.976-2.963-2.047-3.791-3.57c-0.134-0.246-0.457-1.644-0.103-1.712c0.909-0.175,1.929-0.014,2.841,0.065
	c0.993,0.086,1.997,0.225,2.998,0.256c0.374,0.185,2.106,0.026,2.673-0.487c0.422-0.275,0.659-0.606,0.414-0.754
	c0.558-1.217,0.852-2.601,1.265-3.85c0.285-0.861,0.612-1.708,1.031-2.513c0.041-0.079,0.104-0.144,0.148-0.221
	c0.178,0.197,0.338,0.413,0.472,0.63c0.466,0.752,0.768,1.613,1.061,2.444c0.455,1.292,0.742,2.726,1.298,4.001
	c-0.246,0.371-0.124,0.793,0.411,0.881c0.014,0.002,0.04,0.002,0.056,0.004c0.308,0.249,0.963,0.189,1.563,0.005
	c2.703-0.082,7.548-0.338,7.331,0.937c-0.224,1.312-1.878,2.718-2.734,3.629c-0.603,0.642-1.39,1.261-1.979,1.963
	c-0.506,0.164-0.925,0.416-0.963,0.696c-0.138,1.011,0.568,2.196,0.91,3.112c0.569,1.524,1.246,3.273,1.038,4.93
	c-0.026,0.208-0.103,0.418-0.198,0.616c-0.041-0.014-0.067-0.021-0.116-0.038c-0.975-0.354-1.858-1.092-2.673-1.712
	c-1.068-0.813-2.074-1.781-3.218-2.504c-0.012-0.291-0.45-0.506-0.99-0.533c-0.017-0.001-0.034,0-0.05,0
	c-0.111-0.014-0.24-0.011-0.385,0.005c-0.745,0.088-1.813,0.535-1.97,0.907c-0.957,0.574-1.864,1.248-2.782,1.858
	c-0.293,0.195-0.659,0.474-1.052,0.746C352.297,113.555,351.7,113.916,351.174,114.012z M366.287,114.517
	C366.523,114.496,366.682,114.629,366.287,114.517L366.287,114.517z M310.645,102.79c0.835,0.744,1.768,1.38,2.683,2.02
	c0.326,0.228,0.817,0.495,1.2,0.807c-0.338,1.877-2.247,5.403-2.21,7.748c-0.165,0.168-0.249,0.355-0.187,0.547
	c1.512,4.691,7.85-0.294,11.053-2.323c3.049,2.05,5.577,5.783,9.638,3.677c1.752-0.909,1.656-2.825,1.288-4.502
	c-0.25-1.139-0.683-2.24-1.094-3.328c-0.146-0.386-0.455-0.958-0.604-1.479c0.157-0.092,0.287-0.197,0.362-0.314
	c-0.226,0.352,0.139-0.136,0.214-0.212c0.255-0.256,0.51-0.511,0.765-0.768c0.7-0.707,1.383-1.431,2.043-2.176
	c0.923-1.041,2.306-2.401,2.274-3.897c-0.033-1.535-3.124-1.705-4.087-1.761c-1.72-0.1-3.537,0.306-5.265,0.201
	c-0.955-2.009-1.229-4.354-2.266-6.344c-0.189-0.363-0.42-0.65-0.666-0.903c0.094-0.104,0.115-0.197,0.033-0.262
	c-0.555-0.438-1.183-0.635-1.822-0.655c-0.016,0-0.031-0.002-0.046-0.002c-0.099-0.011-0.199-0.003-0.299-0.005
	c-0.95-0.02-1.96,0.343-2.858,1.052c-0.322,0.254-0.348,0.418-0.209,0.515c-0.192,0.21-0.365,0.435-0.51,0.669
	c-1.15,1.857-1.386,4.111-2.193,6.103c-3.143-0.187-7.127-1.488-9.125,1.425C307.747,100.094,309.685,101.934,310.645,102.79z
	 M316.14,114.029c-0.273,0.018-0.521-0.052-0.726-0.243c-0.788-1.48,0.951-5.606,1.701-7.74c0.508-0.224,0.875-0.511,0.762-0.718
	c-0.469-0.852-1.638-1.406-2.402-1.943c-1.388-0.976-2.963-2.047-3.791-3.57c-0.133-0.245-0.459-1.644-0.103-1.712
	c0.909-0.175,1.929-0.014,2.842,0.065c0.993,0.086,1.997,0.225,2.998,0.256c0.374,0.186,2.113,0.025,2.676-0.489
	c0.419-0.275,0.653-0.604,0.41-0.751c0.558-1.217,0.852-2.601,1.265-3.851c0.285-0.861,0.612-1.708,1.032-2.513
	c0.041-0.079,0.103-0.144,0.147-0.22c0.179,0.197,0.338,0.412,0.472,0.629c0.466,0.752,0.769,1.613,1.061,2.444
	c0.456,1.292,0.743,2.725,1.299,4c-0.247,0.371-0.126,0.794,0.41,0.882c0.015,0.002,0.041,0.003,0.058,0.005
	c0.307,0.248,0.961,0.189,1.562,0.005c2.704-0.082,7.549-0.337,7.331,0.937c-0.225,1.312-1.879,2.718-2.734,3.629
	c-0.603,0.642-1.39,1.261-1.979,1.964c-0.506,0.164-0.924,0.416-0.963,0.696c-0.139,1.01,0.568,2.197,0.91,3.112
	c0.569,1.525,1.245,3.273,1.038,4.93c-0.026,0.208-0.103,0.418-0.198,0.616c-0.041-0.014-0.067-0.021-0.116-0.038
	c-0.975-0.354-1.858-1.092-2.673-1.712c-1.068-0.813-2.074-1.781-3.218-2.504c-0.013-0.299-0.478-0.518-1.04-0.533
	c-0.031-0.004-0.064-0.006-0.098-0.008c-0.135-0.004-0.291,0.009-0.46,0.039c-0.729,0.129-1.652,0.537-1.798,0.881
	c-0.955,0.574-1.862,1.247-2.781,1.857c-0.207,0.138-0.451,0.318-0.714,0.508C317.633,113.433,316.813,113.986,316.14,114.029z
	 M331.426,114.517C331.662,114.496,331.82,114.629,331.426,114.517L331.426,114.517z M375.654,245.372
	c0.205-0.156,0.346-0.34,0.366-0.545c0.169-1.664,1.148-3.486,1.606-5.097c0.358-1.26,1.565-4.493,0.452-5.684
	c-1.386-1.483-4.044-0.575-5.62,0.01c-2.137,0.793-4.021,2.316-6.091,3.264c-2.14-1.805-3.743-4.267-6.096-5.858
	c-0.304-0.206-0.629-0.364-0.962-0.494c0.092-0.106,0.081-0.192-0.104-0.229c-2.086-0.424-3.403-0.099-4.213,0.691
	c-0.52,0.375-0.963,0.877-1.271,1.519c-0.076,0.158,0.069,0.254,0.325,0.297c-0.681,2.841,0.524,7.268,0.609,9.981
	c-3.054,1.429-10.636,2.773-9.365,6.752c0.613,1.924,3.618,2.55,5.276,2.923c1.166,0.263,2.354,0.433,3.535,0.612
	c0.403,0.062,0.946,0.092,1.441,0.192c0.825,2.566,0.631,7.509,2.034,10.111c-0.198,0.205-0.259,0.427-0.068,0.628
	c1.229,1.301,2.751,1.344,4.157,0.784c0.438-0.148,0.912-0.353,1.43-0.631c0.482-0.259,0.609-0.448,0.537-0.579
	c0.316-0.266,0.613-0.549,0.877-0.842c1.969-2.185,2.949-5.074,4.624-7.448c4.141,0.73,9.829,3.322,12.625-0.487
	C384.544,251.45,377.322,248.156,375.654,245.372z M374.521,255.304c-1.448-0.301-2.913-0.742-4.394-0.939
	c0.034-0.351-0.592-0.523-0.893-0.525c-0.694-0.004-1.447,0.249-1.917,0.774c-0.017,0.019-0.03,0.042-0.047,0.062
	c-0.54,0.287-0.934,0.642-0.61,0.797c-0.988,1.375-1.732,2.98-2.575,4.415c-0.612,1.042-1.271,2.055-2.023,3.001
	c-0.316,0.399-0.683,0.779-1.101,1.077c-0.053-0.021-0.1-0.049-0.148-0.078c-1.135-1.22-1.851-7.756-2.248-10.249
	c0.445-0.24,0.718-0.506,0.515-0.652c-0.234-0.168-0.513-0.292-0.813-0.391c-0.141-0.119-0.374-0.169-0.651-0.167
	c-0.828-0.164-1.732-0.199-2.431-0.307c-2.142-0.329-4.643-0.662-6.375-2.073c-2.897-2.36,2.747-4.539,6.35-5.953
	c0.819,0.023,2.355-0.33,2.393-0.961c0.002-0.029,0-0.058,0.001-0.086c0.028-0.018,0.061-0.036,0.085-0.053
	c0.481-0.34,0.324-0.5-0.073-0.547c-0.032-1.608-0.46-3.253-0.693-4.823c-0.161-1.09-0.272-2.184-0.299-3.285
	c-0.014-0.61,0.045-1.214,0.182-1.808c0.037-0.141,0.098-0.272,0.152-0.406c0.341,0.156,0.656,0.377,0.961,0.583
	c0.941,0.636,1.764,1.461,2.565,2.259c1.187,1.18,2.268,2.603,3.582,3.674c-0.177,0.53,0.374,1.012,1.474,0.677
	c1.696-0.515,3.223-1.49,4.758-2.353c0.821-0.461,4.918-3.136,5.244-1.341c0.576,3.172-1.907,6.262-2.333,9.295
	c-0.431,0.205-0.729,0.465-0.648,0.708c0.388,1.159,1.937,2.151,2.784,2.948c1.53,1.439,3.194,3.011,3.9,5.039
	C380.31,256.825,376.15,255.642,374.521,255.304z M335.986,263.133c0.205-0.156,0.347-0.341,0.367-0.546
	c0.164-1.662,1.148-3.488,1.605-5.097c0.358-1.26,1.565-4.492,0.453-5.684c-1.385-1.484-4.045-0.575-5.621,0.01
	c-2.137,0.793-4.021,2.316-6.092,3.264c-2.139-1.804-3.742-4.266-6.095-5.857c-0.304-0.206-0.629-0.364-0.962-0.494
	c0.092-0.107,0.082-0.192-0.103-0.23c-2.087-0.425-3.406-0.099-4.216,0.693c-0.52,0.375-0.961,0.877-1.269,1.518
	c-0.076,0.158,0.069,0.254,0.324,0.296c-0.681,2.841,0.524,7.267,0.609,9.981c-3.054,1.429-10.636,2.774-9.365,6.753
	c0.614,1.924,3.618,2.55,5.276,2.923c1.166,0.262,2.354,0.433,3.535,0.612c0.403,0.062,0.946,0.092,1.441,0.192
	c0.825,2.566,0.631,7.509,2.034,10.11c-0.198,0.205-0.259,0.427-0.068,0.629c1.229,1.3,2.747,1.345,4.153,0.786
	c0.439-0.148,0.914-0.354,1.435-0.633c0.483-0.26,0.61-0.449,0.536-0.58c0.316-0.266,0.613-0.549,0.877-0.842
	c1.97-2.185,2.95-5.074,4.625-7.448c4.14,0.73,9.828,3.321,12.624-0.488C344.876,269.21,337.658,265.917,335.986,263.133z
	 M334.853,273.063c-1.448-0.301-2.913-0.742-4.394-0.939c0.033-0.351-0.592-0.523-0.893-0.525c-0.694-0.004-1.447,0.248-1.917,0.773
	c-0.018,0.02-0.03,0.043-0.048,0.063c-0.539,0.287-0.933,0.641-0.609,0.797c-0.987,1.375-1.731,2.98-2.574,4.414
	c-0.613,1.042-1.272,2.055-2.024,3.001c-0.316,0.399-0.683,0.779-1.101,1.077c-0.052-0.02-0.1-0.049-0.148-0.078
	c-1.135-1.222-1.851-7.756-2.248-10.249c0.445-0.24,0.718-0.506,0.515-0.652c-0.234-0.168-0.513-0.292-0.813-0.391
	c-0.141-0.119-0.374-0.169-0.65-0.167c-0.829-0.164-1.733-0.199-2.432-0.307c-2.142-0.33-4.643-0.662-6.375-2.073
	c-2.897-2.359,2.745-4.539,6.348-5.953c0.819,0.023,2.357-0.329,2.395-0.961c0.002-0.029,0-0.058,0.001-0.087
	c0.028-0.018,0.061-0.036,0.085-0.053c0.481-0.34,0.324-0.5-0.073-0.548c-0.033-1.608-0.46-3.252-0.693-4.822
	c-0.161-1.09-0.272-2.183-0.299-3.285c-0.014-0.61,0.046-1.214,0.183-1.808c0.037-0.14,0.097-0.272,0.152-0.405
	c0.341,0.155,0.656,0.376,0.961,0.583c0.94,0.637,1.763,1.461,2.564,2.259c1.187,1.18,2.269,2.604,3.583,3.674
	c-0.176,0.53,0.375,1.01,1.475,0.676c1.695-0.515,3.221-1.491,4.756-2.352c0.821-0.461,4.92-3.136,5.245-1.341
	c0.575,3.174-1.913,6.26-2.333,9.295c-0.432,0.205-0.73,0.466-0.649,0.709c0.389,1.159,1.937,2.151,2.784,2.948
	c1.53,1.438,3.194,3.01,3.9,5.038C340.641,274.584,336.482,273.401,334.853,273.063z M300.81,277.884
	c0.204-0.156,0.346-0.34,0.366-0.545c0.168-1.664,1.148-3.486,1.606-5.097c0.358-1.26,1.565-4.493,0.452-5.684
	c-1.386-1.483-4.045-0.575-5.621,0.01c-2.137,0.794-4.021,2.316-6.092,3.264c-2.139-1.805-3.742-4.267-6.094-5.858
	c-0.305-0.206-0.629-0.365-0.963-0.495c0.092-0.106,0.082-0.192-0.103-0.229c-2.086-0.424-3.403-0.099-4.214,0.692
	c-0.52,0.375-0.962,0.878-1.271,1.519c-0.076,0.159,0.069,0.254,0.325,0.297c-0.68,2.841,0.524,7.267,0.609,9.981
	c-3.055,1.429-10.636,2.773-9.365,6.752c0.613,1.924,3.617,2.55,5.276,2.923c1.165,0.263,2.354,0.433,3.534,0.612
	c0.403,0.062,0.947,0.092,1.441,0.192c0.826,2.566,0.631,7.51,2.035,10.111c-0.197,0.205-0.259,0.427-0.068,0.628
	c1.229,1.302,2.75,1.345,4.157,0.784c0.438-0.148,0.912-0.353,1.431-0.631c0.482-0.259,0.609-0.448,0.537-0.58
	c0.315-0.266,0.612-0.548,0.876-0.841c1.969-2.185,2.95-5.075,4.624-7.448c4.141,0.729,9.828,3.322,12.625-0.488
	C309.699,283.962,302.48,280.667,300.81,277.884z M299.676,287.815c-1.448-0.3-2.912-0.742-4.393-0.939
	c0.033-0.351-0.593-0.523-0.893-0.525c-0.695-0.004-1.448,0.249-1.918,0.773c-0.018,0.02-0.03,0.042-0.048,0.062
	c-0.539,0.287-0.932,0.641-0.609,0.797c-0.987,1.375-1.732,2.98-2.575,4.414c-0.613,1.042-1.271,2.055-2.023,3.002
	c-0.316,0.398-0.684,0.779-1.102,1.076c-0.051-0.02-0.099-0.049-0.146-0.078c-1.137-1.219-1.852-7.756-2.249-10.249
	c0.445-0.24,0.718-0.506,0.515-0.652c-0.234-0.168-0.513-0.293-0.813-0.391c-0.141-0.119-0.374-0.169-0.65-0.167
	c-0.829-0.164-1.733-0.199-2.432-0.307c-2.142-0.329-4.643-0.662-6.375-2.073c-2.897-2.359,2.746-4.538,6.348-5.953
	c0.82,0.023,2.357-0.33,2.395-0.961c0.002-0.029,0-0.058,0.002-0.086c0.027-0.018,0.061-0.036,0.084-0.053
	c0.48-0.34,0.324-0.5-0.074-0.547c-0.032-1.608-0.459-3.253-0.692-4.823c-0.161-1.09-0.272-2.183-0.299-3.285
	c-0.015-0.61,0.046-1.214,0.183-1.808c0.037-0.14,0.097-0.272,0.152-0.405c0.34,0.155,0.656,0.376,0.96,0.583
	c0.941,0.637,1.763,1.462,2.565,2.26c1.186,1.18,2.268,2.604,3.582,3.674c-0.176,0.53,0.375,1.01,1.475,0.676
	c1.695-0.515,3.222-1.49,4.756-2.352c0.822-0.461,4.919-3.136,5.245-1.341c0.577,3.172-1.907,6.261-2.333,9.295
	c-0.431,0.205-0.729,0.465-0.648,0.708c0.389,1.16,1.936,2.151,2.784,2.948c1.53,1.439,3.194,3.011,3.899,5.039
	C305.465,289.336,301.306,288.154,299.676,287.815z M261.092,293.77c0.205-0.156,0.346-0.34,0.367-0.545
	c0.173-1.666,1.148-3.483,1.607-5.096c0.358-1.26,1.565-4.493,0.452-5.684c-1.386-1.483-4.045-0.575-5.621,0.01
	c-2.138,0.793-4.021,2.316-6.093,3.264c-2.137-1.805-3.741-4.266-6.094-5.857c-0.304-0.206-0.629-0.364-0.962-0.494
	c0.093-0.107,0.082-0.192-0.103-0.23c-2.086-0.424-3.404-0.099-4.214,0.692c-0.521,0.375-0.963,0.877-1.271,1.519
	c-0.076,0.159,0.069,0.254,0.325,0.297c-0.68,2.841,0.524,7.268,0.609,9.981c-3.055,1.428-10.638,2.774-9.366,6.752
	c0.615,1.924,3.619,2.55,5.278,2.923c1.165,0.263,2.354,0.433,3.535,0.613c0.403,0.061,0.946,0.091,1.44,0.192
	c0.825,2.566,0.63,7.51,2.034,10.111c-0.197,0.205-0.258,0.427-0.067,0.628c1.229,1.302,2.75,1.344,4.157,0.784
	c0.438-0.148,0.911-0.353,1.43-0.631c0.482-0.259,0.609-0.448,0.537-0.579c0.316-0.266,0.613-0.549,0.877-0.842
	c1.968-2.185,2.949-5.075,4.624-7.448c4.14,0.73,9.827,3.322,12.624-0.487C269.983,299.848,262.76,296.554,261.092,293.77z
	 M259.959,303.702c-1.447-0.301-2.912-0.742-4.393-0.939c0.033-0.351-0.593-0.523-0.893-0.524c-0.694-0.004-1.447,0.249-1.917,0.773
	c-0.017,0.019-0.029,0.042-0.046,0.061c-0.541,0.287-0.936,0.642-0.611,0.798c-0.988,1.375-1.732,2.981-2.576,4.415
	c-0.612,1.042-1.271,2.055-2.023,3.001c-0.316,0.399-0.682,0.779-1.101,1.077c-0.052-0.021-0.1-0.049-0.147-0.078
	c-1.137-1.221-1.851-7.756-2.248-10.249c0.445-0.24,0.718-0.506,0.515-0.652c-0.235-0.168-0.513-0.293-0.813-0.391
	c-0.141-0.118-0.373-0.168-0.648-0.167c-0.828-0.165-1.734-0.199-2.433-0.307c-2.142-0.33-4.644-0.663-6.376-2.073
	c-2.898-2.359,2.747-4.539,6.35-5.953c0.82,0.023,2.355-0.33,2.393-0.961c0.002-0.028,0-0.057,0.002-0.085
	c0.027-0.018,0.061-0.037,0.085-0.054c0.481-0.34,0.324-0.5-0.075-0.547c-0.032-1.609-0.459-3.253-0.691-4.823
	c-0.162-1.09-0.273-2.184-0.3-3.285c-0.014-0.61,0.046-1.214,0.183-1.808c0.037-0.14,0.097-0.272,0.152-0.405
	c0.341,0.155,0.656,0.377,0.961,0.583c0.94,0.637,1.763,1.462,2.564,2.26c1.186,1.18,2.268,2.603,3.582,3.673
	c-0.176,0.53,0.375,1.012,1.475,0.677c0.258-0.078,0.505-0.185,0.756-0.282c0.017-0.006,0.033-0.013,0.049-0.019
	c0.197-0.072,0.386-0.156,0.553-0.243c1.172-0.522,2.287-1.185,3.399-1.809c0.821-0.461,4.919-3.136,5.245-1.341
	c0.576,3.17-1.9,6.263-2.334,9.295c-0.431,0.205-0.729,0.465-0.648,0.709c0.389,1.159,1.937,2.151,2.784,2.948
	c1.53,1.438,3.194,3.01,3.9,5.038C265.748,305.223,261.588,304.04,259.959,303.702z M221.375,311.927
	c0.205-0.156,0.347-0.34,0.367-0.545c0.168-1.664,1.148-3.486,1.606-5.097c0.358-1.26,1.565-4.492,0.453-5.684
	c-1.385-1.484-4.046-0.575-5.622,0.01c-2.137,0.793-4.021,2.317-6.091,3.264c-2.138-1.805-3.742-4.266-6.095-5.857
	c-0.304-0.206-0.628-0.364-0.961-0.494c0.092-0.106,0.081-0.192-0.104-0.229c-2.085-0.424-3.402-0.1-4.213,0.69
	c-0.521,0.375-0.964,0.878-1.272,1.52c-0.076,0.158,0.069,0.254,0.325,0.297c-0.682,2.841,0.523,7.268,0.608,9.982
	c-3.056,1.428-10.634,2.773-9.364,6.752c0.613,1.924,3.618,2.55,5.276,2.923c1.165,0.263,2.354,0.433,3.534,0.612
	c0.404,0.062,0.948,0.092,1.443,0.193c0.824,2.566,0.629,7.509,2.033,10.11c-0.197,0.205-0.259,0.427-0.068,0.629
	c1.229,1.302,2.75,1.344,4.157,0.783c0.438-0.148,0.912-0.353,1.431-0.631c0.482-0.259,0.609-0.448,0.537-0.58
	c0.315-0.266,0.612-0.548,0.876-0.841c1.969-2.185,2.95-5.075,4.625-7.449c4.14,0.73,9.827,3.322,12.624-0.487
	C230.267,318.005,223.044,314.711,221.375,311.927z M220.242,321.858c-1.447-0.301-2.912-0.742-4.393-0.939
	c0.034-0.351-0.592-0.523-0.893-0.525c-0.694-0.004-1.447,0.249-1.917,0.774c-0.017,0.019-0.029,0.042-0.046,0.061
	c-0.541,0.287-0.936,0.642-0.611,0.798c-0.988,1.375-1.732,2.98-2.576,4.415c-0.612,1.042-1.271,2.055-2.023,3.002
	c-0.316,0.398-0.684,0.779-1.102,1.076c-0.051-0.02-0.098-0.048-0.145-0.076c-1.137-1.215-1.853-7.757-2.25-10.25
	c0.443-0.24,0.716-0.505,0.513-0.651c-0.233-0.167-0.511-0.292-0.809-0.39c-0.141-0.12-0.376-0.17-0.654-0.168
	c-0.828-0.164-1.733-0.199-2.431-0.307c-2.142-0.33-4.643-0.662-6.375-2.073c-2.898-2.359,2.747-4.539,6.35-5.953
	c0.82,0.022,2.354-0.33,2.392-0.961c0.002-0.028,0-0.057,0.001-0.085c0.029-0.018,0.063-0.037,0.087-0.054
	c0.481-0.341,0.323-0.5-0.075-0.547c-0.032-1.608-0.46-3.253-0.693-4.823c-0.161-1.09-0.272-2.183-0.299-3.285
	c-0.014-0.61,0.046-1.214,0.183-1.808c0.037-0.141,0.097-0.272,0.153-0.406c0.34,0.155,0.656,0.377,0.961,0.583
	c0.94,0.637,1.763,1.462,2.564,2.26c1.186,1.18,2.268,2.603,3.582,3.673c-0.177,0.53,0.374,1.012,1.475,0.678
	c0.258-0.078,0.505-0.185,0.756-0.282c0.017-0.006,0.033-0.013,0.049-0.019c0.197-0.072,0.385-0.156,0.553-0.243
	c1.172-0.522,2.287-1.184,3.399-1.809c0.821-0.461,4.919-3.136,5.245-1.341c0.576,3.172-1.908,6.261-2.334,9.295
	c-0.431,0.205-0.729,0.465-0.648,0.708c0.389,1.159,1.937,2.151,2.784,2.948c1.53,1.438,3.194,3.01,3.9,5.038
	C226.031,323.379,221.872,322.196,220.242,321.858z M328.833,440.618c3.585,30.005,1.276,60.151-2.435,90.024
	c-0.098,0.786-0.192,1.572-0.292,2.357c-0.142,1.12-3.079,1.607-2.914,0.302c3.849-30.384,6.653-61.374,2.743-91.907
	c-0.611-4.774-1.305-9.591-2.193-14.374c-1.336-7.184-3.129-14.287-5.794-21.047c-0.903-2.293-1.899-4.549-3.021-6.752
	c-5.616-11.03-12.963-20.94-22.003-29.343c-0.002,0.002-0.003,0.005-0.004,0.008c-0.733,1.81-1.4,3.645-2.027,5.494
	c-1.717,5.069-3.27,10.194-4.726,15.344c-3.579,12.668-6.878,25.504-9.057,38.496c-2.75,16.393-3.546,33.333-3.513,49.938
	c0.013,6.473,0.183,12.953,0.586,19.415c0.398,6.389,1.027,12.76,1.959,19.09c0.6,4.073,1.324,8.129,2.196,12.161
	c0.177,0.816-2.733,1.536-2.898,0.776c-0.008-0.036-0.015-0.071-0.022-0.106c-4.189-19.417-5.147-39.496-4.605-59.31
	c0.457-16.678,1.588-33.44,5.002-49.798c0.354-1.696,0.719-3.391,1.092-5.084c2.744-12.44,6.019-24.806,9.941-36.916
	c0.085-0.262,0.26-0.933,0.512-1.835c0.699-2.508,1.999-6.833,3.668-9.401c-0.228-0.201-0.442-0.414-0.672-0.613
	c-0.305-0.264-0.198-0.567,0.104-0.828c0.443-0.383,1.317-0.67,1.979-0.594c0.174,0.02,0.331,0.066,0.463,0.142
	c0.615-0.29,1.259-0.265,1.926,0.201c0.263,0.184-0.173,0.538-0.779,0.808c0.029,0.025,0.058,0.052,0.086,0.078
	c0.001,0.001,0.002,0.002,0.004,0.003c9.387,8.376,17.238,18.433,22.954,29.658C323.996,410.564,327.037,425.58,328.833,440.618z
	 M406.246,236.672c-0.284-0.221-0.966-0.096-1.583,0.131c1.728-3.977,1.485-8.474-2.104-12.223
	c-0.128-0.134-0.322-0.207-0.549-0.236c0.298-4.311-1.254-8.524-5.366-10.58c0.008-0.045,0.012-0.089,0.021-0.134
	c0.04-0.194-0.027-0.335-0.164-0.432c-1.198-5.479-3.124-11.073-6.749-15.109c-0.02-0.179-0.141-0.326-0.384-0.405
	c-1.451-1.523-3.147-2.816-5.18-3.751c-8.664-3.987-20.458,3.497-28.006,6.855c-2.503,1.114-5.011,2.216-7.519,3.317
	c-0.051-0.23-0.232-0.447-0.613-0.61c-4.246-1.821-8.409-3.713-12.112-6.477c0.866-1.511,1.742-3.019,2.622-4.526
	c0.275-0.471-0.068-0.683-0.592-0.717c0.131-0.186,0.133-0.376-0.076-0.537c-18.361-14.084-39.972-19.866-62.471-21.267
	c-0.281-0.018-0.563-0.037-0.845-0.053c-3.364-0.193-6.748-0.291-10.144-0.304c-1.153-0.004-3.061,1.741-1.1,1.748
	c3.503,0.013,6.995,0.119,10.469,0.327c-0.104,0.163-0.127,0.34-0.034,0.52c7.944,15.379,13.765,31.568,13.328,49.099
	c-0.001,0.036,0.009,0.066,0.012,0.1c0,0.001,0.001,0.003,0.001,0.004c-2.539,2.171-5.491,3.847-8.607,5.226
	c-3.84,1.7-7.928,2.951-11.801,4.119c-5.983,1.804-12.129,3.267-18.322,4.191c-0.839,0.125-1.678,0.242-2.518,0.347
	c-0.676,0.084-3.17,1.289-1.285,1.054c5.84-0.729,11.656-1.912,17.367-3.423c2.243-0.593,4.472-1.232,6.677-1.921
	c1.518-0.474,3.066-0.964,4.62-1.485c5.406-1.812,10.875-4.025,15.335-7.465c0.714-0.118,1.42-0.521,1.434-1.054
	c0.437-17.525-5.2-33.689-13.104-49.096c2.52,0.198,5.026,0.453,7.518,0.773c-0.016,0.067-0.018,0.134,0.013,0.199
	c7.54,16.06,13.465,33.739,16.002,51.333c0.022,0.152,0.139,0.254,0.312,0.315c-8.406,3.501-16.821,6.982-25.236,10.46
	c-15.854,6.552-31.702,13.117-47.505,19.789c2.569-22.747-0.662-48.744-14.876-67.41c-0.016-0.021-0.031-0.041-0.047-0.062
	c0.774-0.593,1.559-1.174,2.348-1.747c2.016-1.462,4.076-2.863,6.174-4.213c3.878,8.525,10.65,15.362,14.291,24.048
	c4.08,9.739,7.744,18.517,7.866,29.25c0.013,1.132,2.08,0.899,2.72,0.152c0.119-0.139,0.194-0.292,0.192-0.461
	c-0.11-9.724-2.784-17.853-6.657-26.671c-2.006-4.568-3.92-8.789-6.673-12.979c-3.226-4.909-6.878-9.504-9.202-14.937
	c3.292-2.036,6.654-3.969,10.039-5.854c5.703,13.08,27.133,12.979,27.789-2.888c0.006-0.012,0.017-0.023,0.021-0.036
	c2.342-5.71,5.405-9.166,10.854-11.951c5.014-2.563,10.024-5.2,14.28-8.937c7.691-6.752,12.125-18.422,3.435-26.148
	c-0.201-0.179-0.549-0.225-0.93-0.188c2.624-1.555,4.643-3.42,2.659-4.863c-1.55-1.127-3.851-1.428-5.671-1.807
	c-0.313-0.065-0.627-0.125-0.941-0.188c0.383-0.348,0.506-0.793-0.002-1.183c-6.45-4.948-6.242-13.318-5.666-20.681
	c0.033-0.417-0.208-0.664-0.561-0.778c2.426-3.046,4.076-6.736,4.453-10.754c0.963-10.241-6.958-17.319-16.474-18.468
	c-10.226-1.234-15.265,6.784-23.461,10.852c-9.571,4.75-20.643,2.357-30.756,5.213c-7.266,2.052-13.771,7.213-16.69,14.222
	c-5.229,12.55-2.456,28.653,3.213,40.505c1.666,3.485,3.717,6.616,6.063,9.417c-0.011,0.023-0.026,0.045-0.035,0.069
	c-0.568,1.627-0.671,3.256-0.429,4.824c-12.249-3.926-26.502,3.044-31.746,14.704c-2.402,5.341-1.529,12.59-5.313,17.31
	c-2.815,3.511-12.291,2.809-16.24,3.357c-0.894,0.124-2.499,1.308-0.998,1.917c13.892,5.628,30.68,7.607,44.807,1.859
	c12.553-5.107,26.916-12.65,26.836-28.022c1.318-0.446,2.555-1.19,3.645-2.283c3.709,1.214,7.617,2.012,11.663,2.365
	c0.146,0.013,0.304-0.003,0.466-0.04c-1.446,3.323-3.104,6.584-3.804,10.138c-0.238,0.014-0.489,0.079-0.737,0.216
	c-12.424,6.879-24.373,14.306-34.203,24.693c-13.582,14.352-21.932,32.955-28.541,51.32c-0.404,1.122,0.963,1.411,1.934,1.048
	c2.864,0.437,5.698,1.256,8.473,2.278c-0.264,0.149-0.448,0.334-0.472,0.555c-0.877,8.417-3.873,16.374-5.983,24.521
	c-0.182,0.704,2.667,0.28,2.865-0.485c2.044-7.892,4.851-15.598,5.869-23.711c2.225,0.899,4.406,1.878,6.524,2.827
	c5.589,2.503,11.476,5.301,16.264,9.212c-3.351,1.449-6.707,2.882-10.05,4.349c-6.303,2.764-12.515,5.783-18.992,8.118
	c-4.324,1.559-10.614,1.801-14.226,4.852c-3.589,3.033-5.813,5.891-6.321,10.478c-3.367-1.315-7.38-1.083-8.637,3.066
	c-1.895,6.251,4.131,11.946,9.279,14.165c-4.162,5.169-7.411,12.486-3.496,17.959c-0.287,0.185-0.472,0.41-0.437,0.655
	c0.433,2.994,1.517,5.309,3.036,7.067c-0.074,0.182-0.098,0.382-0.036,0.6c2.149,7.567,11.239,9.901,19.252,8.967
	c3.665,6.823,9.38,12.805,17.752,11.05c0.814-0.17,1.149-0.671,1.115-1.142c10.958-4.628,21.91-9.27,32.864-13.906
	c-2.046,5.003-2.672,14.238-2.863,15.545c-2.42,16.532-3.904,33.272-4.471,49.969c-0.674,19.811,1.654,39.706,4.775,59.241
	c3.559,22.275,8.943,44.524,17.909,65.278c0.015,0.033,0.039,0.059,0.062,0.086c0.073,0.091,0.184,0.154,0.326,0.189
	c0.22,0.055,0.504,0.049,0.804,0c0.88-0.144,1.88-0.651,1.707-1.052c-8.087-18.717-13.126-38.58-16.769-58.595
	c-3.369-18.509-5.89-37.615-6.055-56.452c-0.14-15.967,1.287-31.997,3.118-47.843c0.758-6.564,1.643-13.121,2.807-19.626
	c0.36-2.017,0.77-4.026,1.27-6.012c0.181-0.713,0.393-1.416,0.639-2.108c26.972-11.417,53.937-22.854,80.873-34.353
	c0.806-0.344,1.61-0.692,2.417-1.037c0.097,0.094,0.192,0.189,0.289,0.284c0.484,0.476,0.969,0.952,1.452,1.429
	c21.124,20.827,41.692,42.808,52.382,71.079c8.327,22.021,5.622,47.373,2.767,70.221c-3.402,27.226-10.429,54.014-20.204,79.628
	c-0.046,0.12,0.153,0.183,0.461,0.196c0.76,0.033,2.198-0.238,2.389-0.737c9.61-25.18,16.374-51.365,20.019-78.073
	c0.384-2.813,0.757-5.659,1.103-8.529c1.373-11.376,2.318-23.131,1.76-34.682c-0.478-9.871-2.053-19.593-5.395-28.801
	c-2.487-6.852-5.617-13.338-9.221-19.535c-0.641-1.1-1.293-2.192-1.962-3.274c-6.006-9.708-13.16-18.702-20.84-27.252
	c-7.147-7.958-14.746-15.533-22.295-22.943c-0.04-0.04-0.08-0.079-0.12-0.118c0.063-0.027,0.127-0.055,0.191-0.082
	c0.125-0.054,0.251-0.108,0.377-0.162c18.13-7.747,36.252-15.512,54.357-23.315c8.402-3.622,17.989-6.525,25.662-11.543
	c5.635-3.684,8.012-10.032,6.963-16.496C409.387,247.226,412.08,241.198,406.246,236.672z M212.007,156.16
	c-2.407-2.201-3.919-5.186-3.843-8.31c4.506,4.567,9.932,8.025,15.957,10.326C220.705,161.882,215.123,159.008,212.007,156.16z
	 M224.975,142.43c-0.088-0.497-0.037-0.941,0.237-1.271c0.083-0.1,0.183-0.197,0.283-0.294
	C225.262,141.355,225.088,141.882,224.975,142.43z M273.096,97.929c-0.767,0.507-1.565,0.951-2.392,1.32
	C271.528,98.821,272.33,98.376,273.096,97.929z M237.328,172.284c0.581-4.588,2.826-8.809,4.559-13.042
	c1.169-2.858,3.367-7.937,1.207-10.892c-2.01-2.748-4.914-2.475-7.853-1.538c-0.709,0.226-1.421,0.528-2.115,0.782
	c-0.696,0.097-1.274,0.252-1.7,0.457c-1.177,0.141-2.232-0.242-3.031-1.925c-2.224-4.684,1.357-9.091,6.319-6.31
	c0.742,0.416,3.432-0.697,2.33-1.314c-0.478-0.268-1.003-0.491-1.552-0.675c0.004-0.004,0.01-0.006,0.014-0.01
	c11.707-9.602,13.975-25.192,17.167-39.224c7.374,6.413,17.572,4.426,24.302-1.707c-0.449,7.022-0.104,14.312,5.168,19.305
	c-1.477-0.289-2.949-0.591-4.412-0.951c-0.705-0.173-3.264,0.949-2.369,1.169c4.372,1.074,9.084,1.395,13.302,3.013
	c5.247,2.013-5.633,6.262-6.963,6.838c-0.274,0.119-0.976,0.643-0.339,0.815c0.662,0.18,1.432-0.095,2.03-0.354
	c0.464-0.201,2.354-0.946,4.345-1.948c-0.006,0.096,0.032,0.189,0.129,0.275c11.842,10.528-0.918,23.969-10.616,29.884
	c-3.445,2.101-7.375,3.46-10.637,5.857c-3.313,2.435-5.354,5.652-6.976,9.309c-0.316,0.204-0.536,0.467-0.533,0.775
	c0.002,0.176-0.01,0.346-0.014,0.52c-0.001,0.056-0.003,0.111-0.004,0.167c-0.192,6.256-3.766,11.098-10.643,10.212
	c-5.146-0.663-9.558-4.277-11.507-8.991C237.153,172.64,237.305,172.47,237.328,172.284z M397.934,242.154
	c-1.813,1.608-4.309,3.151-6.817,3.022c-2.705-0.139-3.21-3.265-3.155-5.496c0.022-0.001,0.042,0.001,0.064,0
	c6.547-0.438,10.916-4.962,13.053-10.925c0.123-0.342,0.232-0.689,0.333-1.038C404.378,232.595,402.336,238.246,397.934,242.154z
	 M389.064,237.389c-4.852,0.755-3.569-4.825-2.482-7.482c1.64-4.011,4.847-7.641,8.676-9.676c0.882,0.128,2.433-0.437,2.314-1.2
	c-0.074-0.475-0.153-0.958-0.234-1.444C402.531,223.52,396.584,236.218,389.064,237.389z M345.964,205.296
	c-5.958,2.607-11.931,5.18-17.913,7.732c1.809-4.743,4.094-9.241,6.56-13.658C338.125,201.824,342.018,203.598,345.964,205.296z
	 M335.209,192.405c0.152,0.117,0.364,0.174,0.602,0.189c-0.686,1.175-1.368,2.349-2.047,3.525c-0.964,0.228-1.842,1.105-1.049,1.825
	c-3.02,5.311-5.832,10.708-7.928,16.476c-7.14,3.035-14.293,6.04-21.453,9.027c0-0.005,0.002-0.009,0.001-0.014
	c-2.483-17.21-8.21-34.499-15.516-50.276C304.839,175.769,321.04,181.536,335.209,192.405z M192.726,253.447
	c-5.798-2.663-12.116-5.393-18.521-6.201c6.423-17.72,14.452-35.159,27.19-49.273c2.939-3.256,6.127-6.209,9.491-8.937
	c13.665,18.436,16.768,44.112,14.229,66.342c-0.027,0.241,0.146,0.381,0.418,0.443c-1.265,0.536-2.531,1.069-3.795,1.606
	c0.176-0.191,0.281-0.414,0.263-0.661c-0.79-10.184-3.171-20.194-3.325-30.431c-0.021-1.352-2.93-0.782-2.914,0.305
	c0.157,10.399,2.539,20.558,3.341,30.902c0.033,0.431,0.495,0.592,1.04,0.56c-3.635,1.546-7.262,3.111-10.889,4.674
	C204.375,258.82,198.383,256.045,192.726,253.447z M151.186,297.488c-0.279-1.538-0.11-3.144,0.652-4.516
	c1.069-1.926,3.795,0.142,5.11,1.172c0.2,4.553,2.38,9.056,4.28,13.279c-0.243-0.177-1.077-0.12-1.763,0.059
	C155.333,305.542,152.029,302.115,151.186,297.488z M161.203,307.741c0.061-0.07,0.083-0.127,0.089-0.178
	c0.402,0.895,0.792,1.779,1.145,2.646c1.482,2.538,2.46,5.283,3.401,8.055c0.211,0.619,3.077-0.25,2.898-0.776
	c-0.942-2.772-1.92-5.517-3.401-8.055c-1.894-4.656-4.113-9.146-5.19-14.083c-0.128-0.587-0.212-1.155-0.268-1.71
	c0.113-0.127,0.143-0.246,0.032-0.332c-0.018-0.014-0.037-0.025-0.055-0.039c-0.54-7.281,4.988-11.709,11.925-13.564
	c10.875-2.908,21.022-8.191,31.3-12.675c23.191-10.117,46.581-19.776,69.964-29.438c17.379-7.182,34.756-14.37,52.063-21.721
	c0.796,0.04,2.021-0.327,2.225-0.911c0.006-0.017,0.013-0.033,0.019-0.05c4.631-1.971,9.26-3.946,13.879-5.946
	c5.371-2.326,10.729-4.681,16.08-7.055c5.847-2.594,11.797-5.859,18.113-7.119c4.561-0.91,8.057,0.534,10.752,3.213
	c-8.419,1.497-16.207,5.584-24.007,8.956c-8.895,3.845-17.809,7.644-26.729,11.431c-21.449,9.106-42.939,18.116-64.439,27.101
	c-20.373,8.514-40.761,16.994-61.156,25.453c-3.933,1.631-7.866,3.261-11.799,4.89c-5.396,2.234-10.698,5.424-16.44,6.541
	c-6.732,1.31-12.347,5.575-13.357,12.585c-0.596,4.129,0.548,8.457,1.909,12.318c0.446,1.266,3.18,5.788,2.943,6.705
	c-0.07,0.274,0.043,0.457,0.255,0.567c-1.869,1.039-3.545,2.266-4.791,3.349c-0.684,0.595,2.087,0.323,2.641-0.157
	c3.836-3.333,11.424-6.756,13.884-0.118c2.289,6.181-6.078,10.041-10.346,11.622c-6.198,2.296-14.734,2.074-18.407-4.27
	C152.947,319.126,157.424,312.05,161.203,307.741z M174.754,336.93c-7.54,2.27-14.769-0.116-17.316-7.055
	c6.988,4.429,17.734,1.142,24.247-2.401c1.261-0.687,2.532-1.655,3.614-2.792C188.994,330.404,179.244,335.578,174.754,336.93z
	 M161.589,337.943c4.171,1.63,9.393,1.396,14.25-0.066c2.453-0.739,6.362-2.531,9.29-4.918c0.026,0.061,0.055,0.122,0.098,0.183
	c4.417,6.267-4.946,8.615-9.514,9.014C170.948,342.572,164.858,341.637,161.589,337.943z M179.078,343.653
	c2.041-0.472,3.926-1.161,5.505-2.03c1.651,3.897,3.354,7.771,5.116,11.62C184.924,352.438,181.46,347.914,179.078,343.653z
	 M229.368,338.438c0.041,0.02,0.089,0.034,0.144,0.044c-0.006,0.002-0.012,0.005-0.017,0.007
	C229.451,338.47,229.413,338.459,229.368,338.438z M388.406,270.608c-9.11,3.941-18.226,7.872-27.344,11.797
	c-15.303,6.587-30.621,13.137-45.941,19.682c-0.289,0.096-0.568,0.217-0.796,0.341c-3.175,1.356-6.344,2.723-9.519,4.078
	c-24.272,10.357-48.568,20.661-72.87,30.95c-0.01-0.087-0.071-0.168-0.213-0.237c-1.403-0.683-2.521,0.15-3.413,1.771
	c-11.301,4.783-22.601,9.569-33.904,14.344c-0.287-0.184-0.69-0.271-1.192-0.166c-0.096,0.02-0.187,0.023-0.281,0.041
	c-1.937-4.204-3.796-8.441-5.599-12.703c-0.092-0.216-0.256-0.367-0.457-0.468c2.455-2.172,3.241-5.018,0.994-8.206
	c-0.232-0.329-0.625-0.462-1.044-0.461c2.361-2.575,3.276-5.634,0.411-8.749c-0.059-0.064-0.144-0.107-0.24-0.139
	c1.641-2.715,1.933-5.876-0.948-8.46c-2.775-2.489-6.537-2.132-10.034-0.738c-0.112-0.861-1.03-2.143-1.301-2.731
	c-1.236-2.693-2.244-5.476-2.957-8.353c-2.37-9.555,1.693-16.562,11.572-18.483c4.932-0.959,9.479-3.895,14.09-5.804
	c4.188-1.734,8.376-3.47,12.563-5.206c9.545-3.958,19.087-7.921,28.627-11.89c41.337-17.195,82.684-34.382,123.792-52.118
	c8.07-3.482,16.306-8.017,25.09-9.211c3.189,4.04,5.065,9.887,6.199,15.04c-0.144,1.27,0.134,2.508,0.496,3.738
	c-5.315,2.707-9.5,7.813-11.2,13.527c-0.887,2.979-0.266,6.146,2.151,7.373c-0.023,0.055-0.039,0.111-0.044,0.169
	c-0.249,3.128,0.319,6.264,3.63,7.316c0.554,0.176,1.128,0.262,1.711,0.282c-0.376,0.153-0.654,0.358-0.673,0.613
	c-0.522,7.472,6.858,6.977,11.876,4.741C402.798,261.654,396.678,267.03,388.406,270.608z M402.749,250.266
	c-0.694,0.183-1.339,0.489-1.283,0.789c0.008,0.042,0.01,0.08,0.017,0.122c-1.779,1.128-3.91,1.871-5.976,1.34
	c-2.556-0.656-3.002-3.521-2.846-5.746c0.001-0.022-0.009-0.041-0.025-0.058c2.007-0.441,3.98-1.46,5.521-2.454
	c2.452-1.583,4.521-3.746,5.87-6.169C408.342,241.884,406.979,246.858,402.749,250.266z M263.19,185.749
	c0.449-0.946,3.361-1.202,2.721,0.146c-4.776,10.054-15.941,10.686-25.169,6.67c-1.289-0.561,1.338-1.899,2.283-1.487
	C250.74,194.436,259.204,194.14,263.19,185.749z M234.567,143.875c-0.388,0.596-1.248,0.805-1.909,0.805c-0.667,0-1.334,0-2,0
	c-0.486,0-1.173-0.331-0.8-0.903c0.388-0.596,1.248-0.805,1.909-0.805c0.667,0,1.334,0,2,0
	C234.254,142.972,234.94,143.303,234.567,143.875z M272.764,108.43c0.595-0.39,1.348-0.549,2.049-0.549c0.445,0,0.89,0,1.334,0
	c0.578,0,0.625,0.384,0.182,0.674c-0.595,0.39-1.348,0.549-2.049,0.549c-0.445,0-0.89,0-1.334,0
	C272.367,109.104,272.32,108.721,272.764,108.43z M255.184,111.745c1.604-2.311,3.841-3.822,6.475-4.744
	c0.459-0.161,1.503-0.185,1.67,0.438c0.18,0.671-0.768,1.053-1.229,1.214c-1.708,0.598-3.165,1.778-4.191,3.256
	c-0.409,0.59-1.202,0.87-1.902,0.827C255.529,112.706,254.773,112.334,255.184,111.745z M264.287,119.964
	c1.02-0.718,3.462-0.079,1.852,1.057c-2.964,2.089-7.03,2.249-8.93-1.264c-0.646-1.195,2.157-2.151,2.674-1.194
	C260.916,120.471,262.398,121.296,264.287,119.964z M263.723,142.186c-1.8-0.922-3.501-2.073-4.951-3.488
	c-1.24-1.209,1.225-2.709,2.215-1.743c1.283,1.251,2.785,2.36,4.383,3.179C267.033,140.986,264.993,142.837,263.723,142.186z" fill="#0984E3"></path>
</svg>