<svg width="11" height="11" viewBox="0 0 11 11" fill="none" xmlns="http://www.w3.org/2000/svg">
<path d="M8.38148 4.1555L10.1105 5.88441C10.391 6.16123 10.6141 6.4908 10.7667 6.85416C10.9194 7.21752 10.9987 7.60749 11 8.00161C11.0013 8.39573 10.9246 8.78623 10.7744 9.1506C10.6242 9.51498 10.4034 9.84604 10.1247 10.1247C9.84598 10.4034 9.5149 10.6242 9.15051 10.7744C8.78611 10.9246 8.39561 11.0013 8.00146 11C7.60732 10.9987 7.21734 10.9194 6.85396 10.7667C6.49058 10.6141 6.16099 10.3911 5.88416 10.1105L5.30819 9.53458C5.23031 9.45943 5.16818 9.36953 5.12541 9.27011C5.08265 9.1707 5.06012 9.06377 5.05913 8.95555C5.05814 8.84733 5.07871 8.74 5.11964 8.63982C5.16058 8.53964 5.22105 8.44862 5.29754 8.37206C5.37404 8.2955 5.46501 8.23494 5.56516 8.19391C5.6653 8.15289 5.77262 8.13221 5.88084 8.1331C5.98906 8.13399 6.09602 8.15642 6.19548 8.19909C6.29494 8.24176 6.38491 8.3038 6.46013 8.38161L7.03719 8.95809C7.29236 9.21096 7.63731 9.35245 7.99655 9.35161C8.35579 9.35077 8.70008 9.20767 8.95407 8.95363C9.20806 8.69958 9.35107 8.35527 9.3518 7.99604C9.35254 7.63682 9.21094 7.29193 8.95799 7.03684L7.229 5.30793C7.04212 5.12098 6.80475 4.99261 6.54599 4.93856C6.28723 4.88452 6.01832 4.90714 5.77223 5.00366C5.68456 5.03843 5.60233 5.07393 5.52554 5.11015L5.27342 5.22806C4.93653 5.38019 4.67734 5.44539 4.34752 5.11613C3.8737 4.64234 3.9965 4.20495 4.5741 3.80668C5.14948 3.41078 5.84535 3.22889 6.54087 3.29262C7.23639 3.35634 7.88763 3.66164 8.38148 4.1555ZM5.11584 0.890024L5.69181 1.46597C5.84035 1.61961 5.9226 1.82544 5.92085 2.03914C5.91909 2.25283 5.83347 2.45729 5.68242 2.60847C5.53138 2.75965 5.32699 2.84546 5.11329 2.84742C4.89958 2.84938 4.69366 2.76732 4.53987 2.61893L3.96336 2.04299C3.83808 1.91322 3.68822 1.8097 3.52251 1.73846C3.35679 1.66722 3.17855 1.6297 2.99818 1.62808C2.81781 1.62647 2.63893 1.66078 2.47196 1.72904C2.305 1.79729 2.1533 1.89811 2.02572 2.02561C1.89814 2.15311 1.79723 2.30475 1.72888 2.47166C1.66053 2.63858 1.62611 2.81744 1.62762 2.9978C1.62914 3.17816 1.66656 3.35641 1.73771 3.52216C1.80886 3.6879 1.9123 3.83782 2.04201 3.96316L3.771 5.69207C3.95788 5.87902 4.19525 6.00739 4.45401 6.06144C4.71277 6.11548 4.98168 6.09286 5.22777 5.99634C5.31544 5.96157 5.39767 5.92607 5.47446 5.88985L5.72658 5.77194C6.06347 5.61981 6.3232 5.55461 6.65248 5.88387C7.1263 6.35766 7.0035 6.79505 6.4259 7.19332C5.85052 7.58922 5.15465 7.77111 4.45913 7.70738C3.76361 7.64366 3.11237 7.33836 2.61852 6.8445L0.889524 5.11559C0.608962 4.83877 0.38593 4.5092 0.23327 4.14584C0.0806096 3.78248 0.0013372 3.39251 1.6772e-05 2.99839C-0.00130365 2.60426 0.075354 2.21377 0.225576 1.8494C0.375798 1.48502 0.596617 1.15396 0.875318 0.875275C1.15402 0.596587 1.4851 0.375779 1.84949 0.225565C2.21388 0.0753502 2.60439 -0.00130359 2.99853 1.67712e-05C3.39268 0.00133713 3.78266 0.0806056 4.14604 0.233258C4.50942 0.385911 4.83901 0.609475 5.11584 0.890024Z" fill="white"/>
</svg>
