<svg width="11" height="7" viewBox="0 0 11 7" fill="none" xmlns="http://www.w3.org/2000/svg">
<path d="M4.4 5L7.2545 3.5L4.4 2V5ZM10.758 1.085C10.8295 1.32 10.879 1.635 10.912 2.035C10.9505 2.435 10.967 2.78 10.967 3.08L11 3.5C11 4.595 10.912 5.4 10.758 5.915C10.6205 6.365 10.3015 6.655 9.8065 6.78C9.548 6.845 9.075 6.89 8.349 6.92C7.634 6.955 6.9795 6.97 6.3745 6.97L5.5 7C3.1955 7 1.76 6.92 1.1935 6.78C0.6985 6.655 0.3795 6.365 0.242 5.915C0.1705 5.68 0.121 5.365 0.0880001 4.965C0.0495 4.565 0.033 4.22 0.033 3.92L0 3.5C0 2.405 0.088 1.6 0.242 1.085C0.3795 0.635 0.6985 0.345 1.1935 0.22C1.452 0.155 1.925 0.11 2.651 0.0799999C3.366 0.0449999 4.0205 0.03 4.6255 0.03L5.5 0C7.8045 0 9.24 0.08 9.8065 0.22C10.3015 0.345 10.6205 0.635 10.758 1.085Z" fill="white"/>
</svg>
